<svg xmlns="http://www.w3.org/2000/svg" width="33" height="33" viewBox="0 0 33 33" fill="none">
  <path d="M23.1048 12.9978V10.4332V10.0498L22.7214 10.0511L20.1567 10.0602L20.1665 13.0076L23.1048 12.9978Z" fill="black" fill-opacity="0.9"/>
  <path d="M16.4209 19.8046C18.1091 19.8046 19.4833 18.4316 19.4833 16.7435C19.4833 16.0775 19.2663 15.4602 18.9031 14.958C18.3475 14.1873 17.4424 13.6812 16.4209 13.6812C15.3995 13.6812 14.4957 14.1873 13.9388 14.958C13.5756 15.4602 13.3599 16.0775 13.3599 16.7435C13.3599 18.4316 14.7328 19.8046 16.4209 19.8046Z" fill="black" fill-opacity="0.9"/>
  <path d="M16.5007 0.5C7.66374 0.5 0.5 7.66244 0.5 16.4994C0.5 25.3363 7.66374 32.5 16.5007 32.5C25.3363 32.5 32.5 25.3363 32.5 16.4994C32.5 7.66244 25.3356 0.5 16.5007 0.5ZM25.1186 14.9581V22.0802C25.1186 23.9334 23.6098 25.4409 21.7567 25.4409H11.0841C9.23034 25.4409 7.72287 23.9334 7.72287 22.0802V14.9581V11.4077C7.72287 9.55393 9.23034 8.04646 11.0841 8.04646H21.7567C23.6098 8.04646 25.1186 9.55393 25.1186 11.4077V14.9581Z" fill="black" fill-opacity="0.9"/>
  <path d="M21.1769 16.7436C21.1769 19.3654 19.0437 21.4999 16.4206 21.4999C13.7974 21.4999 11.6655 19.3654 11.6655 16.7436C11.6655 16.1114 11.7909 15.5103 12.0145 14.958H9.41797V22.0802C9.41797 22.9989 10.1652 23.7462 11.084 23.7462H21.7565C22.6753 23.7462 23.4225 22.9989 23.4225 22.0802V14.958H20.8247C21.0502 15.5103 21.1769 16.112 21.1769 16.7436Z" fill="black" fill-opacity="0.9"/>
</svg>