<svg xmlns="http://www.w3.org/2000/svg" width="33" height="33" viewBox="0 0 33 33" fill="none">
  <path d="M16.5 0.5C7.664 0.5 0.5 7.663 0.5 16.5C0.5 25.336 7.664 32.5 16.5 32.5C25.336 32.5 32.5 25.336 32.5 16.5C32.5 7.663 25.336 0.5 16.5 0.5ZM12.344 22.777H9.08V12.957H12.344V22.777ZM10.712 11.616H10.691C9.595 11.616 8.887 10.861 8.887 9.919C8.887 8.956 9.617 8.223 10.733 8.223C11.849 8.223 12.537 8.956 12.558 9.919C12.558 10.862 11.849 11.616 10.712 11.616ZM24.113 22.777H20.849V17.523C20.849 16.203 20.377 15.303 19.195 15.303C18.294 15.303 17.757 15.91 17.521 16.497C17.435 16.707 17.413 17 17.413 17.293V22.777H14.15C14.15 22.777 14.193 13.879 14.15 12.957H17.414V14.348C17.847 13.679 18.623 12.726 20.356 12.726C22.503 12.726 24.113 14.13 24.113 17.146V22.777Z" fill="black" fill-opacity="0.9"/>
</svg>