<svg xmlns="http://www.w3.org/2000/svg" width="33" height="33" viewBox="0 0 33 33" fill="none">
  <g clip-path="url(#clip0_922_15414)">
    <path fill-rule="evenodd" clip-rule="evenodd" d="M16.5 0.5C25.3306 0.5 32.5 7.66938 32.5 16.5C32.5 25.3306 25.3306 32.5 16.5 32.5C7.66938 32.5 0.5 25.3306 0.5 16.5C0.5 7.66938 7.66938 0.5 16.5 0.5ZM13.6818 25.0099C20.762 25.0099 24.6333 19.143 24.6333 14.0584C24.6333 13.8908 24.6333 13.7232 24.6253 13.5635C25.3756 13.0208 26.0302 12.3422 26.549 11.568C25.8626 11.8713 25.1202 12.0789 24.3379 12.1746C25.1362 11.6957 25.7428 10.9454 26.0302 10.0434C25.2878 10.4824 24.4657 10.8017 23.5876 10.9773C22.8852 10.227 21.8874 9.76406 20.7779 9.76406C18.6547 9.76406 16.9306 11.4882 16.9306 13.6114C16.9306 13.9148 16.9625 14.2101 17.0343 14.4894C13.8335 14.3298 10.9998 12.7972 9.10013 10.4664C8.77281 11.0332 8.58125 11.6957 8.58125 12.3981C8.58125 13.7311 9.25975 14.9125 10.2974 15.5989C9.66681 15.583 9.07613 15.4074 8.55731 15.1201V15.1679C8.55731 17.0357 9.88231 18.5843 11.6464 18.9435C11.3271 19.0312 10.9839 19.0792 10.6327 19.0792C10.3852 19.0792 10.1458 19.0553 9.90631 19.0073C10.3932 20.5399 11.814 21.6494 13.4983 21.6813C12.1812 22.7111 10.5209 23.3257 8.71694 23.3257C8.40562 23.3257 8.10231 23.3097 7.799 23.2698C9.48325 24.3713 11.5107 25.0099 13.6818 25.0099Z" fill="black" fill-opacity="0.9"/>
  </g>
  <defs>
    <clipPath id="clip0_922_15414">
      <rect width="32" height="32" fill="white" transform="translate(0.5 0.5)"/>
    </clipPath>
  </defs>
</svg>