<svg width="62" height="62" viewBox="0 0 62 62" fill="none" xmlns="http://www.w3.org/2000/svg">
<circle cx="31" cy="31" r="31" transform="matrix(-1 0 0 1 62 0)" fill="white"/>
<path d="M35.6877 46.1666L23.0502 32.1666C22.9002 31.9999 22.7937 31.8194 22.7307 31.6249C22.6677 31.4305 22.6367 31.2221 22.6377 30.9999C22.6377 30.7777 22.6692 30.5694 22.7322 30.3749C22.7952 30.1805 22.9012 29.9999 23.0502 29.8333L35.6877 15.7916C36.0377 15.4027 36.4752 15.2083 37.0002 15.2083C37.5252 15.2083 37.9752 15.4166 38.3502 15.8333C38.7252 16.2499 38.9127 16.736 38.9127 17.2916C38.9127 17.8471 38.7252 18.3333 38.3502 18.7499L27.3252 30.9999L38.3502 43.2499C38.7002 43.6388 38.8752 44.1182 38.8752 44.6883C38.8752 45.2583 38.6877 45.751 38.3127 46.1666C37.9377 46.5833 37.5002 46.7916 37.0002 46.7916C36.5002 46.7916 36.0627 46.5833 35.6877 46.1666Z" fill="#313133"/>
</svg>
