<svg width="62" height="62" viewBox="0 0 62 62" fill="none" xmlns="http://www.w3.org/2000/svg">
<circle cx="31" cy="31" r="31" fill="white"/>
<path d="M26.3125 46.1666L38.95 32.1666C39.1 31.9999 39.2065 31.8194 39.2695 31.6249C39.3325 31.4305 39.3635 31.2221 39.3625 30.9999C39.3625 30.7777 39.331 30.5694 39.268 30.3749C39.205 30.1805 39.099 29.9999 38.95 29.8333L26.3125 15.7916C25.9625 15.4027 25.525 15.2083 25 15.2083C24.475 15.2083 24.025 15.4166 23.65 15.8333C23.275 16.2499 23.0875 16.736 23.0875 17.2916C23.0875 17.8471 23.275 18.3333 23.65 18.7499L34.675 30.9999L23.65 43.2499C23.3 43.6388 23.125 44.1182 23.125 44.6883C23.125 45.2583 23.3125 45.751 23.6875 46.1666C24.0625 46.5833 24.5 46.7916 25 46.7916C25.5 46.7916 25.9375 46.5833 26.3125 46.1666Z" fill="#313133"/>
</svg>
