<svg width="25" height="24" viewBox="0 0 25 24" fill="none" xmlns="http://www.w3.org/2000/svg">
<path fill-rule="evenodd" clip-rule="evenodd" d="M7.29253 10.9993C7.29253 10.4473 7.75919 9.99927 8.33419 9.99927C8.90919 9.99927 9.37586 10.4473 9.37586 10.9993C9.37586 11.5513 8.90919 11.9993 8.33419 11.9993C7.75919 11.9993 7.29253 11.5513 7.29253 10.9993ZM12.5009 9.99927C11.9259 9.99927 11.4592 10.4473 11.4592 10.9993C11.4592 11.5513 11.9259 11.9993 12.5009 11.9993C13.0759 11.9993 13.5425 11.5513 13.5425 10.9993C13.5425 10.4473 13.0759 9.99927 12.5009 9.99927ZM16.6675 9.99927C16.0925 9.99927 15.6259 10.4473 15.6259 10.9993C15.6259 11.5513 16.0925 11.9993 16.6675 11.9993C17.2425 11.9993 17.7092 11.5513 17.7092 10.9993C17.7092 10.4473 17.2425 9.99927 16.6675 9.99927ZM20.7284 12.2942C20.2002 15.5482 17.4679 18.2472 14.0836 18.8562C12.4492 19.1522 10.7846 18.9832 9.27419 18.3692C8.84607 18.1952 8.40336 18.1072 7.96898 18.1072C7.77107 18.1072 7.57523 18.1252 7.38253 18.1622L4.45336 18.7242L5.03982 15.9072C5.16273 15.3222 5.08773 14.6962 4.82419 14.0972C4.18461 12.6472 4.00961 11.0502 4.3169 9.48017C4.95128 6.23117 7.76169 3.60817 11.1523 3.10117C13.8502 2.69817 16.4888 3.51417 18.3929 5.34217C20.2982 7.17117 21.1492 9.70517 20.7284 12.2942ZM19.8669 3.92817C17.4867 1.64417 14.195 0.625171 10.8315 1.12417C6.58461 1.76017 3.06378 5.04417 2.26898 9.11117C1.88565 11.0692 2.10648 13.0632 2.90544 14.8762C3.00648 15.1072 3.03773 15.3222 2.99815 15.5152L2.1044 19.8032C2.03565 20.1312 2.14294 20.4702 2.38982 20.7062C2.58669 20.8962 2.85232 20.9992 3.12628 20.9992C3.19398 20.9992 3.26169 20.9932 3.33044 20.9802L7.7919 20.1232C8.04815 20.0762 8.29607 20.1452 8.46169 20.2112C10.3523 20.9782 12.4294 21.1892 14.4669 20.8222C18.7044 20.0592 22.1252 16.6792 22.7877 12.6022C23.3107 9.37517 22.2471 6.21317 19.8669 3.92817Z" fill="#001C43"/>
<mask id="mask0_6483_19787" style="mask-type:luminance" maskUnits="userSpaceOnUse" x="2" y="1" width="21" height="20">
<path fill-rule="evenodd" clip-rule="evenodd" d="M7.29253 10.9993C7.29253 10.4473 7.75919 9.99927 8.33419 9.99927C8.90919 9.99927 9.37586 10.4473 9.37586 10.9993C9.37586 11.5513 8.90919 11.9993 8.33419 11.9993C7.75919 11.9993 7.29253 11.5513 7.29253 10.9993ZM12.5009 9.99927C11.9259 9.99927 11.4592 10.4473 11.4592 10.9993C11.4592 11.5513 11.9259 11.9993 12.5009 11.9993C13.0759 11.9993 13.5425 11.5513 13.5425 10.9993C13.5425 10.4473 13.0759 9.99927 12.5009 9.99927ZM16.6675 9.99927C16.0925 9.99927 15.6259 10.4473 15.6259 10.9993C15.6259 11.5513 16.0925 11.9993 16.6675 11.9993C17.2425 11.9993 17.7092 11.5513 17.7092 10.9993C17.7092 10.4473 17.2425 9.99927 16.6675 9.99927ZM20.7284 12.2942C20.2002 15.5482 17.4679 18.2472 14.0836 18.8562C12.4492 19.1522 10.7846 18.9832 9.27419 18.3692C8.84607 18.1952 8.40336 18.1072 7.96898 18.1072C7.77107 18.1072 7.57523 18.1252 7.38253 18.1622L4.45336 18.7242L5.03982 15.9072C5.16273 15.3222 5.08773 14.6962 4.82419 14.0972C4.18461 12.6472 4.00961 11.0502 4.3169 9.48017C4.95128 6.23117 7.76169 3.60817 11.1523 3.10117C13.8502 2.69817 16.4888 3.51417 18.3929 5.34217C20.2982 7.17117 21.1492 9.70517 20.7284 12.2942ZM19.8669 3.92817C17.4867 1.64417 14.195 0.625171 10.8315 1.12417C6.58461 1.76017 3.06378 5.04417 2.26898 9.11117C1.88565 11.0692 2.10648 13.0632 2.90544 14.8762C3.00648 15.1072 3.03773 15.3222 2.99815 15.5152L2.1044 19.8032C2.03565 20.1312 2.14294 20.4702 2.38982 20.7062C2.58669 20.8962 2.85232 20.9992 3.12628 20.9992C3.19398 20.9992 3.26169 20.9932 3.33044 20.9802L7.7919 20.1232C8.04815 20.0762 8.29607 20.1452 8.46169 20.2112C10.3523 20.9782 12.4294 21.1892 14.4669 20.8222C18.7044 20.0592 22.1252 16.6792 22.7877 12.6022C23.3107 9.37517 22.2471 6.21317 19.8669 3.92817Z" fill="white"/>
</mask>
<g mask="url(#mask0_6483_19787)">
<rect width="25" height="24" fill="#001C43"/>
</g>
</svg>
