<svg width="42" height="42" viewBox="0 0 42 42" fill="none" xmlns="http://www.w3.org/2000/svg">
<g id="Fill/arrow-right">
<path id="Mask" fill-rule="evenodd" clip-rule="evenodd" d="M8.75 22.75H29.5138L23.156 30.38C22.5365 31.122 22.638 32.2262 23.38 32.844C24.1237 33.4635 25.2262 33.362 25.8458 32.62L34.5958 22.12C34.664 22.0377 34.6973 21.9415 34.748 21.8505C34.79 21.777 34.8407 21.714 34.8722 21.6335C34.951 21.4322 34.9982 21.2205 34.9982 21.007C34.9982 21.0052 35 21.0017 35 21C35 20.9982 34.9982 20.9947 34.9982 20.993C34.9982 20.7795 34.951 20.5677 34.8722 20.3665C34.8407 20.286 34.79 20.223 34.748 20.1495C34.6973 20.0585 34.664 19.9622 34.5958 19.88L25.8458 9.38C25.4975 8.96525 25.0005 8.75 24.5 8.75C24.1045 8.75 23.7072 8.883 23.38 9.156C22.638 9.77375 22.5365 10.878 23.156 11.62L29.5138 19.25H8.75C7.784 19.25 7 20.034 7 21C7 21.966 7.784 22.75 8.75 22.75Z" fill="#515A6A"/>
<mask id="mask0_1868_9073" style="mask-type:luminance" maskUnits="userSpaceOnUse" x="7" y="8" width="28" height="26">
<path id="Mask_2" fill-rule="evenodd" clip-rule="evenodd" d="M8.75 22.75H29.5138L23.156 30.38C22.5365 31.122 22.638 32.2262 23.38 32.844C24.1237 33.4635 25.2262 33.362 25.8458 32.62L34.5958 22.12C34.664 22.0377 34.6973 21.9415 34.748 21.8505C34.79 21.777 34.8407 21.714 34.8722 21.6335C34.951 21.4322 34.9982 21.2205 34.9982 21.007C34.9982 21.0052 35 21.0017 35 21C35 20.9982 34.9982 20.9947 34.9982 20.993C34.9982 20.7795 34.951 20.5677 34.8722 20.3665C34.8407 20.286 34.79 20.223 34.748 20.1495C34.6973 20.0585 34.664 19.9622 34.5958 19.88L25.8458 9.38C25.4975 8.96525 25.0005 8.75 24.5 8.75C24.1045 8.75 23.7072 8.883 23.38 9.156C22.638 9.77375 22.5365 10.878 23.156 11.62L29.5138 19.25H8.75C7.784 19.25 7 20.034 7 21C7 21.966 7.784 22.75 8.75 22.75Z" fill="white"/>
</mask>
<g mask="url(#mask0_1868_9073)">
</g>
</g>
</svg>
