<svg width="34" height="34" viewBox="0 0 34 34" fill="none" xmlns="http://www.w3.org/2000/svg">
<path fill-rule="evenodd" clip-rule="evenodd" d="M22.2151 18.0002L24.0423 19.8288C24.4326 20.2191 24.4326 20.8527 24.0416 21.2437C23.6505 21.6333 23.0177 21.6326 22.628 21.243L22.6273 21.2423L19.1116 17.7223C18.7227 17.3334 18.7213 16.7026 19.1081 16.3116L22.6245 12.7612C23.0127 12.3688 23.6456 12.3653 24.0387 12.7542L24.0423 12.7577C24.4312 13.1466 24.4333 13.7766 24.0458 14.1684L22.2314 15.9998L26.87 15.9998C27.4229 15.9998 27.8705 16.4474 27.8705 17.0003C27.8698 17.5526 27.4229 17.9995 26.8707 18.0002L22.2151 18.0002ZM11.3169 12.7608L14.8326 16.3119C15.2194 16.7029 15.2187 17.333 14.8298 17.7219L11.3148 21.2426C10.9244 21.6329 10.2902 21.6336 9.89984 21.2433C9.50881 20.8522 9.50952 20.2194 9.89913 19.8298L11.7256 18.0005L7.07141 18.0005C6.79494 17.9998 6.54462 17.888 6.36431 17.7077C6.18329 17.5267 6.07156 17.2764 6.07156 17.0006C6.07156 16.4477 6.51916 16.0001 7.07141 16.0008L11.7093 16.0001L9.89631 14.1687C9.5074 13.7755 9.51164 13.1419 9.90338 12.7544C10.2944 12.3662 10.9251 12.3691 11.3141 12.758L11.3169 12.7608Z" fill="#B3261E"/>
<mask id="mask0_905_4826" style="mask-type:luminance" maskUnits="userSpaceOnUse" x="6" y="12" width="22" height="10">
<path fill-rule="evenodd" clip-rule="evenodd" d="M22.2151 18.0002L24.0423 19.8288C24.4326 20.2191 24.4326 20.8527 24.0416 21.2437C23.6505 21.6333 23.0177 21.6326 22.628 21.243L22.6273 21.2423L19.1116 17.7223C18.7227 17.3334 18.7213 16.7026 19.1081 16.3116L22.6245 12.7612C23.0127 12.3688 23.6456 12.3653 24.0387 12.7542L24.0423 12.7577C24.4312 13.1466 24.4333 13.7766 24.0458 14.1684L22.2314 15.9998L26.87 15.9998C27.4229 15.9998 27.8705 16.4474 27.8705 17.0003C27.8698 17.5526 27.4229 17.9995 26.8707 18.0002L22.2151 18.0002ZM11.3169 12.7608L14.8326 16.3119C15.2194 16.7029 15.2187 17.333 14.8298 17.7219L11.3148 21.2426C10.9244 21.6329 10.2902 21.6336 9.89984 21.2433C9.50881 20.8522 9.50952 20.2194 9.89913 19.8298L11.7256 18.0005L7.07141 18.0005C6.79494 17.9998 6.54462 17.888 6.36431 17.7077C6.18329 17.5267 6.07156 17.2764 6.07156 17.0006C6.07156 16.4477 6.51916 16.0001 7.07141 16.0008L11.7093 16.0001L9.89631 14.1687C9.5074 13.7755 9.51164 13.1419 9.90338 12.7544C10.2944 12.3662 10.9251 12.3691 11.3141 12.758L11.3169 12.7608Z" fill="white"/>
</mask>
<g mask="url(#mask0_905_4826)">
<rect x="16.9707" y="0.0294189" width="24" height="24" transform="rotate(45 16.9707 0.0294189)" fill="#B3261E"/>
</g>
</svg>
