<svg width="40" height="37" viewBox="0 0 40 37" fill="none" xmlns="http://www.w3.org/2000/svg">
<path id="Mask" fill-rule="evenodd" clip-rule="evenodd" d="M34 30.5598C34 31.6638 33.104 32.5598 32 32.5598C30.896 32.5598 30 31.6638 30 30.5598C30 29.4558 30.896 28.5598 32 28.5598C33.104 28.5598 34 29.4558 34 30.5598ZM20 24.5598H4L4.032 4.55981H26L25.968 24.5598H20ZM10 30.5598C10 31.6638 9.104 32.5598 8 32.5598C6.896 32.5598 6 31.6638 6 30.5598C6 29.4558 6.896 28.5598 8 28.5598C9.104 28.5598 10 29.4558 10 30.5598ZM36 19.5198V24.5598H30V14.7218L36 19.5198ZM39.25 16.9978L30 9.59781V4.55981C30 2.35381 28.374 0.559814 26.374 0.559814H3.624C1.626 0.559814 0 2.35381 0 4.55981V24.5598C0 26.3058 1.026 27.7778 2.442 28.3238C2.162 29.0158 2 29.7678 2 30.5598C2 33.8678 4.692 36.5598 8 36.5598C11.308 36.5598 14 33.8678 14 30.5598C14 29.8538 13.856 29.1878 13.63 28.5598H20H26.37C26.144 29.1878 26 29.8538 26 30.5598C26 33.8678 28.692 36.5598 32 36.5598C35.308 36.5598 38 33.8678 38 30.5598C38 29.8538 37.856 29.1878 37.63 28.5598H38C39.106 28.5598 40 27.6658 40 26.5598V18.5598C40 17.9518 39.724 17.3778 39.25 16.9978Z" fill="#313133"/>
</svg>
