<svg width="32" height="32" viewBox="0 0 32 32" fill="none" xmlns="http://www.w3.org/2000/svg">
<path fill-rule="evenodd" clip-rule="evenodd" d="M21.3582 14.2389L17.7649 10.6456L20.3622 8.04688L23.9542 11.6389L21.3582 14.2389ZM12.1062 23.5002L8.13687 23.8616L8.48887 19.9202L15.9782 12.4309L19.5729 16.0256L12.1062 23.5002ZM25.8715 9.78422L25.8702 9.78288L22.2195 6.13222C21.2315 5.14688 19.5342 5.10022 18.5982 6.04022L6.60354 18.0349C6.16887 18.4682 5.89954 19.0442 5.84354 19.6536L5.3382 25.2136C5.30354 25.6069 5.44354 25.9962 5.72354 26.2762C5.97554 26.5282 6.31554 26.6669 6.6662 26.6669C6.70754 26.6669 6.74754 26.6656 6.78754 26.6616L12.3475 26.1562C12.9582 26.1002 13.5329 25.8322 13.9662 25.3989L25.9622 13.4029C26.9329 12.4296 26.8915 10.8056 25.8715 9.78422Z" fill="#515A6A"/>
<mask id="mask0_6636_20693" style="mask-type:luminance" maskUnits="userSpaceOnUse" x="5" y="5" width="22" height="22">
<path fill-rule="evenodd" clip-rule="evenodd" d="M21.3582 14.2389L17.7649 10.6456L20.3622 8.04688L23.9542 11.6389L21.3582 14.2389ZM12.1062 23.5002L8.13687 23.8616L8.48887 19.9202L15.9782 12.4309L19.5729 16.0256L12.1062 23.5002ZM25.8715 9.78422L25.8702 9.78288L22.2195 6.13222C21.2315 5.14688 19.5342 5.10022 18.5982 6.04022L6.60354 18.0349C6.16887 18.4682 5.89954 19.0442 5.84354 19.6536L5.3382 25.2136C5.30354 25.6069 5.44354 25.9962 5.72354 26.2762C5.97554 26.5282 6.31554 26.6669 6.6662 26.6669C6.70754 26.6669 6.74754 26.6656 6.78754 26.6616L12.3475 26.1562C12.9582 26.1002 13.5329 25.8322 13.9662 25.3989L25.9622 13.4029C26.9329 12.4296 26.8915 10.8056 25.8715 9.78422Z" fill="white"/>
</mask>
<g mask="url(#mask0_6636_20693)">
<rect width="32" height="32" fill="#4172DC"/>
<rect width="32" height="32" fill="#4172DC"/>
</g>
</svg>
