<svg width="109" height="109" viewBox="0 0 109 109" fill="none" xmlns="http://www.w3.org/2000/svg">
<path fill-rule="evenodd" clip-rule="evenodd" d="M22.7082 18.1667H86.2915L86.3427 18.167C88.8174 18.1946 90.8333 20.2275 90.8333 22.7083V31.7917C90.8333 34.2896 88.7896 36.3333 86.2917 36.3333C83.7937 36.3333 81.75 34.2896 81.75 31.7917V27.25H27.2498V31.7917C27.2498 34.2896 25.2061 36.3333 22.7082 36.3333C20.2103 36.3333 18.1665 34.2896 18.1665 31.7917V22.7083C18.1665 20.2104 20.2103 18.1667 22.7082 18.1667ZM36.3374 63.5833C34.9522 63.5833 33.5942 62.9566 32.6995 61.7667C31.1917 59.7592 31.6004 56.9116 33.6078 55.4083L51.7745 41.7833C53.3459 40.6025 55.5078 40.5707 57.111 41.7016L75.2776 54.4818C77.3305 55.9261 77.8255 58.7601 76.3813 60.8084C74.937 62.8567 72.1075 63.3562 70.0547 61.912L59.0288 54.1557C59.0373 54.2693 59.0417 54.3842 59.0417 54.5V90.8333C59.0417 93.3403 57.0115 95.375 54.5 95.375C51.9885 95.375 49.9583 93.3403 49.9583 90.8333V54.5004L39.0578 62.675C38.2403 63.2881 37.2866 63.5833 36.3374 63.5833Z" fill="#515A6A"/>
<mask id="mask0_173_6155" style="mask-type:luminance" maskUnits="userSpaceOnUse" x="18" y="18" width="73" height="78">
<path fill-rule="evenodd" clip-rule="evenodd" d="M22.7082 18.1667H86.2915L86.3427 18.167C88.8174 18.1946 90.8333 20.2275 90.8333 22.7083V31.7917C90.8333 34.2896 88.7896 36.3333 86.2917 36.3333C83.7937 36.3333 81.75 34.2896 81.75 31.7917V27.25H27.2498V31.7917C27.2498 34.2896 25.2061 36.3333 22.7082 36.3333C20.2103 36.3333 18.1665 34.2896 18.1665 31.7917V22.7083C18.1665 20.2104 20.2103 18.1667 22.7082 18.1667ZM36.3374 63.5833C34.9522 63.5833 33.5942 62.9566 32.6995 61.7667C31.1917 59.7592 31.6004 56.9116 33.6078 55.4083L51.7745 41.7833C53.3459 40.6025 55.5078 40.5707 57.111 41.7016L75.2776 54.4818C77.3305 55.9261 77.8255 58.7601 76.3813 60.8084C74.937 62.8567 72.1075 63.3562 70.0547 61.912L59.0288 54.1557C59.0373 54.2693 59.0417 54.3842 59.0417 54.5V90.8333C59.0417 93.3403 57.0115 95.375 54.5 95.375C51.9885 95.375 49.9583 93.3403 49.9583 90.8333V54.5004L39.0578 62.675C38.2403 63.2881 37.2866 63.5833 36.3374 63.5833Z" fill="white"/>
</mask>
<g mask="url(#mask0_173_6155)">
<rect width="109" height="109" fill="#515A6A"/>
</g>
</svg>
