<svg width="29" height="23" viewBox="0 0 29 23" fill="none" xmlns="http://www.w3.org/2000/svg">
<path fill-rule="evenodd" clip-rule="evenodd" d="M15.8125 2.15625H7.1875C4.40882 2.15625 2.15625 4.40882 2.15625 7.1875V15.8125C2.15625 18.5912 4.40882 20.8438 7.1875 20.8438H15.8125C18.5912 20.8438 20.8438 18.5912 20.8438 15.8125V7.1875C20.8438 4.40882 18.5912 2.15625 15.8125 2.15625ZM7.1875 0C3.21795 0 0 3.21795 0 7.1875V15.8125C0 19.782 3.21795 23 7.1875 23H15.8125C19.782 23 23 19.782 23 15.8125V7.1875C23 3.21795 19.782 0 15.8125 0H7.1875Z" fill="#707070"/>
</svg>
