<svg width="578" height="26" viewBox="0 0 578 26" fill="none" xmlns="http://www.w3.org/2000/svg">
<path fill-rule="evenodd" clip-rule="evenodd" d="M11.6771 13.8208C11.6945 13.172 11.7909 12.5244 11.9657 11.8816C12.0328 11.6586 12.1335 11.4357 12.1603 11.2465L13.8649 11.2059C13.8649 11.5438 14.4085 13.5944 14.4354 14.1856L14.5964 15.3309C14.5964 15.4626 14.5964 15.6045 14.5964 15.7363C14.6769 16.2565 14.7172 16.7498 14.7508 17.3309C14.8112 18.3444 14.9924 19.3883 14.9924 20.4727C14.9924 21.0572 15.0796 21.5132 15.0729 22.0673V23.7396C13.8918 23.7902 13.7307 24.5166 11.912 24.5166C11.3886 24.5166 10.288 24.324 10.288 24.1078V17.1248C10.288 17.0133 12.1603 16.3309 12.3013 16.3106L11.8315 15.1552C11.7183 14.707 11.6578 14.2557 11.6503 13.8039L11.6771 13.8208ZM7.78475 18.0234C8.03977 17.939 8.22768 17.8646 8.48941 17.7667C8.72615 17.6662 8.97739 17.5747 9.24104 17.493V23.7801C8.79953 23.6935 8.31741 23.6735 7.85372 23.7227C7.39004 23.7719 6.96493 23.8881 6.63046 24.0571C6.25654 24.2743 5.74832 24.4219 5.1876 24.476L5.4292 21.9862C5.4292 21.7903 5.49631 21.8004 5.51644 21.6213C5.51644 21.4997 5.51644 21.3713 5.51644 21.2531C5.51644 21.0741 5.57684 21.1045 5.59697 20.9153L5.83186 19.1585C5.91239 18.6281 5.97279 17.8748 6.11372 17.3815L6.39558 16.0302C6.48953 15.564 6.61033 15.1113 6.71771 14.6789C6.77139 14.4356 6.82508 14.2498 6.88548 14.0302C6.97468 13.8074 7.03076 13.5816 7.05326 13.3546H7.13379C7.08702 13.7506 7.08702 14.1477 7.13379 14.5437C7.15399 14.7452 7.15399 14.947 7.13379 15.1485C7.13379 15.4221 7.20761 15.5403 7.21432 15.7633C7.30801 16.5299 7.49854 17.2927 7.78475 18.0471V18.0234ZM15.9722 11.0438C14.7776 11.1857 14.8246 11.0674 14.8984 11.3309C14.9722 11.5945 15.0393 11.8343 15.0863 12.1046C15.1736 12.6181 15.3212 13.1823 15.4017 13.6992C15.4487 13.9897 15.4017 14.2566 15.5024 14.5471C15.5494 14.7633 15.5695 15.1349 15.6299 15.341L15.7306 16.1451C15.7306 16.2903 15.7306 16.4491 15.7306 16.5944C15.7306 16.7397 15.8044 16.7667 15.8178 16.9626C15.9453 19.2092 16.1399 21.4085 16.1399 23.7396C16.4176 23.7494 16.6835 23.7999 16.905 23.8848C17.7908 24.1956 17.7841 24.3645 18.7304 24.476C18.7743 24.169 18.7743 23.8608 18.7304 23.5537C18.6431 23.2565 18.7304 22.9389 18.6633 22.6484C18.5962 22.4085 18.6096 22.0098 18.5425 21.77L18.4418 20.9254C18.4015 20.1991 18.2539 19.7464 18.2002 19.1687C18.0727 17.841 17.5291 15.4829 17.1399 14.1485C16.8446 13.0877 16.4688 12.0269 16.0057 11.0438H15.9722ZM17.0258 10.9627C17.0258 10.8782 17.6432 10.8073 17.8378 10.7972C18.2338 11.2161 19.5424 13.3039 19.7505 13.6721C20.9076 15.7964 21.7621 17.9595 22.3074 20.145C22.6651 21.3223 22.8891 22.5089 22.9784 23.699C22.6565 23.6919 22.3354 23.7203 22.0375 23.7822C21.7396 23.844 21.4721 23.9379 21.2537 24.0571C20.8931 24.2823 20.3786 24.4316 19.8109 24.476L19.737 23.1652C19.737 22.9456 19.6632 22.9254 19.6498 22.7193C19.6095 22.0977 19.5022 21.5166 19.4887 20.922L18.9317 17.4863C18.5789 15.435 18.0054 13.3949 17.2137 11.3749C17.1311 11.2407 17.0771 11.1026 17.0526 10.9627H17.0258ZM4.21451 24.476C4.18077 24.1666 4.18077 23.8564 4.21451 23.547L4.46281 21.3105C4.50797 21.1742 4.53487 21.0365 4.54334 20.8984L5.06009 17.4457C5.22116 16.8849 5.30169 16.2802 5.41577 15.7566C5.65737 14.6721 6.16069 12.7161 6.6506 11.6823C6.78386 11.441 6.89139 11.1963 6.97272 10.9492C6.57007 10.9492 6.40229 10.8715 5.99963 10.8681C5.86982 11.1141 5.69689 11.3537 5.48288 11.5843C5.29498 11.8512 5.14062 12.0471 4.97285 12.3107C4.02272 13.8211 3.26287 15.3601 2.69782 16.9187C2.30858 18.02 1.93948 19.0741 1.65762 20.2362C1.55695 20.6788 0.94625 23.2531 0.94625 23.7125C1.27974 23.7072 1.61189 23.7362 1.92232 23.7978C2.23275 23.8593 2.51492 23.9522 2.75151 24.0706C3.10564 24.2979 3.61986 24.4479 4.18766 24.4895L4.21451 24.476ZM13.1401 10.7161H12.4086C12.5808 10.1913 12.8253 9.67317 13.1401 9.16543C13.8044 9.15617 14.4663 9.12115 15.1199 9.0607C15.791 9.00327 16.2876 8.9053 16.8647 8.83773C17.5064 9.17645 17.8748 9.62321 17.8982 10.0911C17.8244 10.2972 17.4956 10.2938 17.1801 10.3445C15.8808 10.566 14.5244 10.6911 13.1536 10.7161H13.1401ZM11.1872 16.064C10.8383 15.6957 10.7175 14.412 10.6235 13.8579C10.6134 13.7072 10.6382 13.5564 10.6973 13.4086C10.6973 13.2532 10.6973 13.0708 10.6973 12.9188C10.6973 12.7667 10.7577 12.689 10.7779 12.4728C10.8785 11.8878 11.0534 11.3067 11.3013 10.733C11.4154 10.4391 11.5295 10.1857 11.6503 9.93231C11.766 9.67228 11.9139 9.41615 12.0932 9.16543C11.4221 9.16543 11.0731 9.12489 10.4759 9.12489C9.63382 9.75883 9.03096 10.4654 8.69745 11.2093C8.31486 12.086 8.11691 12.9806 8.10688 13.8782C8.07471 14.9563 8.21159 16.0339 8.51625 17.1011C8.75664 17.0272 8.98149 16.9412 9.18735 16.8444L11.1537 16.0809L11.1872 16.064ZM8.02635 10.4999C7.85187 10.4999 6.16069 10.3951 6.16069 10.162C6.16069 9.69921 6.28149 9.14854 7.04655 8.89179C7.46263 8.74652 8.22768 9.02016 9.32157 9.02016C9.2142 9.233 8.3619 9.77015 8.02635 10.4897V10.4999ZM5.6775 5.64183C5.71029 5.34831 5.81396 5.05788 5.98621 4.77698C6.06455 4.6622 6.15414 4.54945 6.25465 4.43914C6.62375 3.99658 6.41571 2.22296 6.6506 2.02363C7.26863 1.85295 7.92104 1.71591 8.59679 1.61486C8.8518 1.61486 9.03971 1.8581 9.74437 2.14188C9.93092 2.22336 10.1079 2.31022 10.2745 2.40201L12.0932 3.14524C12.9556 3.46046 13.8693 3.73847 14.8246 3.97631C15.5982 4.15981 16.4111 4.29809 17.2473 4.38847C17.6835 4.43914 17.7103 4.43914 17.8512 4.65536C18.5223 5.72629 18.2338 6.04385 17.2741 7.02019C16.7825 7.44047 16.4695 7.90751 16.3547 8.39179C15.2576 8.53579 14.1323 8.61849 12.9992 8.63841C11.8646 8.65522 10.7292 8.62698 9.60344 8.55395L7.59014 8.39179C7.42907 7.41208 5.64395 6.44249 5.64395 5.65872L5.6775 5.64183ZM5.59697 1.58783L5.51644 3.14186C5.51644 3.37497 5.4292 3.42564 5.4292 3.66888C5.4292 4.62157 4.70441 4.44928 4.70441 5.71277C4.77517 6.1976 5.10184 6.66411 5.65066 7.06411C5.86044 7.2633 6.04644 7.46862 6.20767 7.67896L6.6506 8.39855C6.125 8.58813 5.71202 8.84626 5.45604 9.14516C5.15861 9.55902 5.06646 10.0032 5.1876 10.4391L4.16753 11.8816C3.15108 13.4277 2.35492 15.0082 1.78512 16.6113C1.39589 17.8106 1.01336 18.7329 0.711366 19.9896C0.583858 20.5504 0.456348 21.1416 0.301995 21.7396C0.174486 22.2294 0 23.2024 0 23.7125C0.0235303 23.8212 0.115799 23.9232 0.263207 24.0035C0.410614 24.0838 0.605362 24.1381 0.818742 24.1585C1.48984 24.2125 1.63748 24.1889 2.04685 24.395C3.10719 24.922 3.63736 24.9794 5.02654 24.9794C7.13379 24.9794 7.26801 23.9119 8.86522 24.2294C9.34171 24.324 9.53633 24.52 9.89201 24.6517C10.5826 24.9063 11.4323 25.0269 12.2854 24.9916C13.1384 24.9562 13.9375 24.7672 14.536 24.4591C14.7373 24.3578 14.791 24.2936 15.0729 24.2362C16.3144 23.9862 16.6701 24.52 17.4889 24.7463C18.1294 24.9404 18.8761 25.0268 19.6207 24.9928C20.3653 24.9587 21.0689 24.8061 21.6295 24.5571C22.0456 24.3814 22.0725 24.2531 22.7503 24.1855C23.059 24.1551 23.6294 24.2058 23.9314 23.8477C24.1462 23.5842 23.7905 22.4558 23.7636 22.0909C23.569 19.8376 21.7906 15.4457 20.6162 13.3444L19.274 11.2161C18.3948 9.97285 18.925 10.8208 18.925 10.0066C18.925 9.52691 18.3479 8.63165 17.3815 8.37152C17.5697 7.94572 17.8699 7.53444 18.274 7.14857C19.576 6.03372 19.5491 5.4121 18.6431 4.22631C18.3613 3.85469 18.4888 3.97293 17.6164 3.88847C15.4487 3.69253 12.6301 2.82768 11.0866 2.07431C10.9439 1.99613 10.7891 1.92382 10.6235 1.8581C10.307 1.73268 10.0149 1.59241 9.75108 1.43918C9.51083 1.27603 9.23131 1.12851 8.91891 1C8.35166 1.08517 7.79386 1.18554 7.24788 1.30067L5.59697 1.58783Z" fill="#0F1111"/>
<path fill-rule="evenodd" clip-rule="evenodd" d="M64.3466 18.4753H66.8763C67.0951 18.4753 67.0237 18.6418 67.0427 18.8083C67.0654 18.9529 67.0781 19.0985 67.0808 19.2443H64.3276V18.4753H64.3466ZM60.4712 18.8162C60.4712 18.9213 60.5213 19.0221 60.6105 19.0965C60.6996 19.1708 60.8206 19.2126 60.9467 19.2126C61.0728 19.2126 61.1938 19.1708 61.2829 19.0965C61.3721 19.0221 61.4222 18.9213 61.4222 18.8162C61.4222 18.2772 60.4712 18.3564 60.4712 18.8162ZM60.4712 15.6454C60.4712 15.7505 60.5213 15.8513 60.6105 15.9256C60.6996 16 60.8206 16.0417 60.9467 16.0417C61.0728 16.0417 61.1938 16 61.2829 15.9256C61.3721 15.8513 61.4222 15.7505 61.4222 15.6454C61.4222 15.5402 61.3721 15.4394 61.2829 15.3651C61.1938 15.2908 61.0728 15.249 60.9467 15.249C60.8206 15.249 60.6996 15.2908 60.6105 15.3651C60.5213 15.4394 60.4712 15.5402 60.4712 15.6454ZM53.1293 18.4753H55.678V19.2443H52.9248C52.9275 19.0985 52.9402 18.9529 52.9629 18.8083C52.9629 18.6418 52.9106 18.4753 53.1293 18.4753ZM69.5487 5.47089C69.6961 5.99012 69.8055 6.63222 69.8958 7.17919C70.2001 8.99846 70.4474 10.786 70.6186 12.6132L70.7708 14.9517C70.7708 15.1816 70.8183 15.2014 70.8278 15.4155C70.8373 15.6295 70.8278 15.7603 70.8278 15.9268C70.8278 16.0932 70.8801 16.1606 70.8801 16.3945C70.8801 18.075 70.98 19.8348 70.98 21.6224H68.4836C68.4053 21.2739 68.3514 20.9218 68.3219 20.5681C68.2743 20.2272 68.2173 19.8824 68.1697 19.5059L67.2425 13.0889C67.1902 12.7678 67.6181 11.5669 67.7465 11.1903C68.2553 9.70398 68.7261 7.87281 69.2301 6.43404L69.5344 5.49864V5.47089H69.5487ZM51.5458 21.6224H49.0494C49.0494 19.8467 49.1445 18.0988 49.1493 16.4341L49.2539 15.0469C49.2539 14.8804 49.2539 14.702 49.2539 14.5395C49.3157 13.9331 49.368 13.2989 49.406 12.6648L49.8292 9.02224C49.9148 8.45545 50.0242 7.83318 50.1146 7.26639C50.2049 6.6996 50.3238 6.07732 50.4759 5.52242C50.4993 5.54731 50.517 5.57551 50.5283 5.60565L52.5682 12.1138C52.7141 12.4286 52.7882 12.7633 52.7869 13.1007C52.4398 15.1856 52.1973 17.4091 51.8692 19.4781C51.8121 19.8467 51.7646 20.2193 51.717 20.5404C51.6695 20.8614 51.6362 21.3331 51.5458 21.6343V21.6224ZM60.4189 11.5906C60.4573 11.3952 60.5162 11.2029 60.5948 11.0159L61.9405 7.05235C62.1973 6.25964 62.4446 5.51449 62.7108 4.76142L63.4812 2.47048L63.581 2.59731C63.8663 3.02141 65.0076 4.9041 65.0076 5.06265C64.6855 5.10165 64.3676 5.16128 64.0565 5.24101C63.0532 5.44711 63.2672 5.72852 63.7094 6.27946L64.1849 6.89381C64.0518 7.09992 63.8806 7.29017 63.7094 7.48835L61.3652 10.4214L60.8896 11.008L60.4617 11.5391C60.4418 11.5654 60.4178 11.5894 60.3904 11.6104L60.4189 11.5906ZM56.5435 2.45066L59.3585 10.8177C59.4637 10.9901 59.4971 11.1867 59.4536 11.3766C59.3157 11.2973 57.8606 9.43445 57.6371 9.14908L55.8302 6.87399C56.339 6.23586 57.0142 5.66511 56.4769 5.35595C56.3271 5.29447 56.1666 5.25301 56.0014 5.23308C55.6753 5.14699 55.3414 5.08336 55.0028 5.04283C55.1994 4.59262 55.4428 4.15761 55.7303 3.74278L56.3247 2.75982L56.4246 2.58938L56.5435 2.4348V2.45066ZM57.8701 3.30282L59.4583 8.0591C59.5487 8.31673 59.6295 8.57833 59.7246 8.85181C59.8347 9.10895 59.9144 9.37445 59.9624 9.64452L61.912 4.09554C62.0151 3.83638 62.0961 3.57149 62.1545 3.30282H57.8701ZM64.9743 3.04519C65.2025 3.40588 65.4165 3.78638 65.6352 4.15103C66.1631 5.03094 66.7146 5.53035 65.6352 5.73645C65.3228 5.81364 65.0052 5.87584 64.6842 5.92274C64.7555 6.13677 65.2976 6.63222 65.2976 6.77094C65.2976 7.13955 65.0932 7.28224 64.8221 7.63896L64.2467 8.3088L63.1721 9.6683H64.9743C65.5544 9.6683 66.2486 9.56525 66.2486 10.0647C66.2486 10.3738 66.0632 10.4927 65.64 10.4927H62.5254L61.037 12.3556C60.8754 12.5577 59.5677 14.1471 59.5677 14.2343V19.8388C59.6802 20.2073 59.8396 20.5647 60.0432 20.905L60.961 23.0295C61.0608 23.2792 61.2938 24.0441 61.4793 24.0441C65.9538 24.0441 67.2472 22.7758 67.6609 22.6846L67.3899 20.7029C67.343 20.488 67.3128 20.2709 67.2995 20.0528H63.8854C63.8113 20.0489 63.7389 20.0325 63.6727 20.0046C63.6065 19.9766 63.5478 19.9377 63.5002 19.8903C63.4526 19.8428 63.4171 19.7878 63.3958 19.7285C63.3746 19.6692 63.368 19.607 63.3766 19.5455V18.1384C63.3667 18.0697 63.3757 17.9999 63.4027 17.9344C63.4298 17.869 63.4742 17.8094 63.5327 17.7603C63.5913 17.7111 63.6623 17.6736 63.7407 17.6505C63.819 17.6275 63.9026 17.6195 63.9852 17.6271H66.8763L66.4008 14.0203C66.2439 12.9501 66.1535 13.1126 66.4008 12.2367L68.9923 3.98059C68.3171 3.8498 67.6419 3.66351 66.9619 3.50497C66.6005 3.42173 65.2168 3.06501 64.9648 3.04519H64.9743ZM53.7903 5.25686C53.9592 4.86439 54.1692 4.48507 54.4179 4.12328C54.6414 3.75467 54.8411 3.39795 55.0646 3.04519C54.7365 3.06897 51.5886 3.87358 51.037 3.98059C51.1115 4.16784 51.1734 4.35838 51.2225 4.55135L51.7408 6.20019C51.8549 6.59654 51.9643 6.91363 52.0879 7.31395L53.4764 11.7254C53.8758 13.0809 53.8568 12.4904 53.6428 14.0599L53.2149 17.0603C53.2149 17.1872 53.134 17.4805 53.1293 17.6271H56.087C56.1696 17.6195 56.2531 17.6275 56.3315 17.6505C56.4098 17.6736 56.4809 17.7111 56.5395 17.7603C56.598 17.8094 56.6424 17.869 56.6695 17.9344C56.6965 17.9999 56.7054 18.0697 56.6956 18.1384V19.5415C56.7042 19.603 56.6976 19.6652 56.6763 19.7245C56.6551 19.7838 56.6196 19.8388 56.572 19.8863C56.5244 19.9338 56.4657 19.9727 56.3995 20.0006C56.3332 20.0286 56.2609 20.045 56.1868 20.0489H52.7727L52.5016 22.0307C52.4567 22.2456 52.4281 22.4627 52.416 22.6807C52.6776 22.7401 54.3181 24.0402 58.1745 24.0402C58.8164 24.0402 58.65 24.0957 58.883 23.5685L59.4774 22.0425C59.4774 21.9038 58.5834 20.2708 58.5834 20.0885V14.0124C58.5834 13.5883 59.1778 12.6053 59.0304 12.3715C58.9496 12.2525 58.7926 12.0861 58.6975 11.9751L57.3661 10.2906C57.1569 10.029 54.7555 7.15144 54.7555 6.89778C54.7555 6.47764 55.2311 6.28342 55.369 5.92274C55.0479 5.87584 54.7304 5.81364 54.4179 5.73645C54.0137 5.65322 53.7855 5.58584 53.7855 5.24101L53.7903 5.25686ZM57.309 1.72929C57.4137 1.97956 57.4995 2.23505 57.5658 2.49426H62.4588C62.5252 2.23505 62.6109 1.97956 62.7156 1.72929H57.309ZM48.4883 22.431H51.446C51.446 22.9462 51.0656 22.974 52.5206 23.7033C52.9739 23.9321 53.4514 24.1259 53.9472 24.282C55.6875 24.8369 56.9572 24.8527 58.8212 24.8527C59.387 24.8527 59.4583 24.6862 59.6058 24.3176C59.7445 24.0223 59.8573 23.7189 59.9434 23.41H60.0432C60.1293 23.7189 60.2421 24.0223 60.3808 24.3176C60.6471 24.9954 60.8801 24.8527 62.3923 24.8527C64.3371 24.8527 67.0428 24.2027 68.4455 23.1444C68.7308 22.9304 68.5644 22.6371 68.5596 22.431C72.4636 22.431 71.969 22.7362 71.9786 20.9843C71.9786 20.6355 71.9215 20.465 71.9262 20.1361L71.893 17.425C71.893 16.9335 71.8454 16.8344 71.8407 16.5768L71.5601 12.2169C71.5126 11.9553 71.503 11.6501 71.484 11.3885C71.4127 10.1756 70.8516 6.73923 70.6091 5.70078C70.4902 5.19741 70.3856 4.69404 70.2334 4.1867C69.9957 3.39399 70.1383 3.41777 69.2253 3.19581L64.9743 2.17717C64.1707 1.98692 64.4179 2.12961 63.8854 1.26159C63.7427 1.0317 63.6381 0.865234 63.2196 0.865234H56.8002C56.2059 0.865234 56.1345 1.26159 55.7826 1.8482C55.6352 2.09394 55.4403 2.07016 55.0836 2.15736L50.804 3.17599C49.8911 3.39795 50.0337 3.38606 49.796 4.16688C49.6438 4.67422 49.5392 5.17759 49.4203 5.68096C49.2396 6.47367 48.9448 8.09873 48.8544 8.85181L48.3314 13.9291C48.3314 14.1154 48.2838 14.1075 48.2791 14.3255L48.1792 16.5411C48.1792 16.7591 48.1364 16.775 48.1269 16.9613L48.0746 19.2165V20.1083C48.0841 20.8019 47.7132 22.431 48.4883 22.431Z" fill="#0F1111"/>
<path fill-rule="evenodd" clip-rule="evenodd" d="M98.4112 7.32615C98.4673 7.4171 98.5033 7.5276 98.515 7.64497C98.5268 7.76234 98.5139 7.88182 98.4777 7.98969C97.7762 8.89452 97.2655 10.0358 96.998 11.2962C96.8729 11.9568 96.8238 12.6396 96.8526 13.3205C96.9046 14.5659 97.2238 15.7638 97.7711 16.7676C98.0039 17.2062 98.2616 17.3974 98.2283 17.8191C98.2219 17.9265 98.1928 18.0292 98.1444 18.1148C98.0961 18.2005 98.0306 18.2656 97.9557 18.3023C97.8808 18.339 97.7997 18.3459 97.7221 18.322C97.6444 18.2982 97.5734 18.2446 97.5176 18.1678C96.9669 17.359 96.5503 16.4004 96.2956 15.3561C96.2665 15.2381 96.2374 15.1425 96.2125 15.03C96.1875 14.9175 96.1751 14.8163 96.1501 14.687C95.9603 13.5784 95.9504 12.4273 96.121 11.313C96.3615 9.78244 96.9415 8.38761 97.7836 7.3149C97.8431 7.23343 97.9195 7.17847 98.0027 7.15737C98.0859 7.13627 98.1718 7.15003 98.2491 7.19681C98.3024 7.23532 98.3538 7.27853 98.4029 7.32615H98.4112ZM107.231 22.9531C107.224 22.8211 107.236 22.6883 107.269 22.5632C107.301 22.4381 107.352 22.3234 107.418 22.2262C107.485 22.129 107.566 22.0515 107.655 21.9985C107.745 21.9455 107.842 21.9181 107.94 21.9181C108.038 21.9181 108.135 21.9455 108.224 21.9985C108.314 22.0515 108.395 22.129 108.461 22.2262C108.528 22.3234 108.579 22.4381 108.611 22.5632C108.643 22.6883 108.656 22.8211 108.648 22.9531C108.635 23.1947 108.554 23.4204 108.423 23.5851C108.291 23.7498 108.119 23.8412 107.94 23.8412C107.761 23.8412 107.588 23.7498 107.457 23.5851C107.325 23.4204 107.245 23.1947 107.231 22.9531ZM103.27 3.8791H112.609V20.7488H103.27V3.8791ZM110.012 2.43955C110.012 2.03468 110.427 2.00655 110.427 2.47891C110.423 2.55348 110.398 2.62292 110.356 2.67196C110.314 2.72099 110.26 2.74561 110.205 2.74039C110.15 2.73517 110.099 2.70054 110.062 2.64412C110.026 2.5877 110.008 2.51412 110.012 2.43955ZM106.437 2.47891C106.437 2.34395 106.487 2.19774 106.583 2.19774H109.305C109.484 2.19774 109.505 2.68134 109.305 2.68134H106.579C106.541 2.67514 106.506 2.65168 106.479 2.61485C106.453 2.57803 106.437 2.53005 106.433 2.47891H106.437ZM102.36 2.87816V23.1218C102.391 23.6059 102.547 24.0597 102.801 24.4032C103.055 24.7468 103.39 24.9581 103.748 25H112.136C112.494 24.9583 112.83 24.7472 113.084 24.4037C113.339 24.0602 113.496 23.6064 113.528 23.1218V2.87816C113.497 2.39322 113.34 1.93876 113.085 1.59508C112.831 1.2514 112.494 1.04062 112.136 1H103.744C103.389 1.04395 103.054 1.24108 102.788 1.56232C102.548 1.91781 102.402 2.37054 102.372 2.85004L102.36 2.87816ZM115.328 16.194C115.933 15.3036 116.253 14.1254 116.218 12.9169C116.183 11.7083 115.795 10.5677 115.141 9.74415C115.07 9.62633 114.968 9.55125 114.856 9.53543C114.745 9.51961 114.633 9.56434 114.546 9.65979C114.459 9.75524 114.404 9.89358 114.392 10.0444C114.38 10.1952 114.413 10.3461 114.484 10.4639C114.746 10.7812 114.96 11.1657 115.112 11.5952C115.264 12.0247 115.351 12.4907 115.369 12.9663C115.398 13.6861 115.252 14.399 114.954 14.9963C114.866 15.1762 114.746 15.328 114.663 15.5023C114.397 16.0647 115.004 16.6832 115.34 16.194H115.328ZM115.976 8.52389C116.016 8.46518 116.064 8.41771 116.117 8.3842C116.17 8.35069 116.228 8.33182 116.287 8.32868C116.346 8.32554 116.404 8.3382 116.459 8.36592C116.514 8.39364 116.565 8.43586 116.608 8.49016C117.497 9.62289 118.021 11.1842 118.065 12.8358C118.11 14.4873 117.671 16.096 116.845 17.313C116.818 17.3776 116.781 17.4343 116.738 17.4799C116.694 17.5255 116.644 17.559 116.591 17.5786C116.538 17.5982 116.483 17.6034 116.428 17.594C116.374 17.5847 116.321 17.5608 116.273 17.5239C116.226 17.487 116.184 17.4377 116.15 17.3788C116.116 17.32 116.091 17.2528 116.077 17.181C116.063 17.1092 116.059 17.0342 116.066 16.9604C116.073 16.8866 116.09 16.8153 116.117 16.7507C116.196 16.5441 116.297 16.3545 116.417 16.1884C116.712 15.6895 116.931 15.116 117.061 14.5014L117.161 13.9391C117.214 13.5783 117.232 13.2097 117.215 12.8425C117.203 12.3743 117.143 11.9106 117.036 11.4649C116.968 11.1903 116.885 10.9234 116.787 10.6664C116.586 10.1657 116.331 9.70882 116.03 9.31115C115.986 9.2638 115.95 9.20489 115.923 9.13799C115.897 9.07109 115.88 8.99758 115.875 8.9219C115.87 8.84622 115.876 8.76995 115.894 8.69767C115.911 8.6254 115.939 8.55863 115.976 8.5014V8.52389ZM117.589 7.39925C117.533 7.4902 117.497 7.60071 117.485 7.71808C117.473 7.83544 117.486 7.95492 117.522 8.06279C118.223 8.96624 118.734 10.1054 119.002 11.3636C119.127 12.0262 119.176 12.7109 119.147 13.3936C119.095 14.6388 118.776 15.8364 118.229 16.8407C117.996 17.2793 117.738 17.4705 117.768 17.8922C117.773 18.0008 117.802 18.1048 117.851 18.1916C117.899 18.2784 117.965 18.3442 118.041 18.3811C118.117 18.418 118.199 18.4244 118.277 18.3995C118.355 18.3746 118.427 18.3195 118.482 18.2409C119.033 17.4321 119.45 16.4735 119.704 15.4292C119.734 15.3111 119.763 15.2156 119.788 15.1031C119.812 14.9906 119.825 14.8894 119.85 14.7601C120.04 13.6515 120.05 12.5004 119.879 11.3861C119.64 9.85491 119.06 8.45959 118.216 7.388C118.158 7.30676 118.082 7.25145 118 7.22937C117.918 7.20729 117.832 7.21946 117.755 7.26429C117.734 7.26429 117.614 7.38238 117.601 7.39925H117.589ZM100.672 16.104C100.067 15.2128 99.7482 14.0335 99.7848 12.8245C99.8214 11.6155 100.211 10.4754 100.868 9.65417C100.938 9.53635 101.04 9.46127 101.152 9.44545C101.263 9.42964 101.375 9.47437 101.462 9.56982C101.549 9.66527 101.605 9.80361 101.616 9.95442C101.628 10.1052 101.595 10.2561 101.524 10.3739C101.262 10.6913 101.049 11.0758 100.897 11.5053C100.745 11.9348 100.657 12.4007 100.639 12.8763C100.61 13.5962 100.756 14.309 101.055 14.9063C101.142 15.0862 101.262 15.238 101.346 15.4124C101.612 15.9747 101.005 16.5933 100.668 16.104H100.672ZM100.036 8.43393C99.9967 8.37522 99.9488 8.32773 99.8955 8.29422C99.8421 8.26071 99.7844 8.24185 99.7257 8.23871C99.6669 8.23557 99.6083 8.24823 99.5532 8.27595C99.4981 8.30366 99.4476 8.34589 99.4046 8.40018C98.5151 9.53291 97.9915 11.0943 97.9471 12.7458C97.9028 14.3973 98.3413 16.006 99.1677 17.2231C99.2228 17.3535 99.314 17.4491 99.4211 17.4886C99.4742 17.5082 99.5296 17.5135 99.5842 17.5041C99.6387 17.4947 99.6914 17.4708 99.7392 17.4339C99.7869 17.397 99.8288 17.3477 99.8625 17.2889C99.8962 17.23 99.921 17.1628 99.9355 17.091C99.9499 17.0192 99.9538 16.9443 99.9469 16.8704C99.9399 16.7966 99.9223 16.7253 99.895 16.6607C99.8142 16.4561 99.7136 16.267 99.5958 16.0984C99.3004 15.5995 99.0814 15.0261 98.9515 14.4114L98.8518 13.8491C98.7985 13.4883 98.7804 13.1197 98.7977 12.7526C98.8099 12.2844 98.87 11.8207 98.9765 11.3749C99.0441 11.1004 99.1275 10.8334 99.2259 10.5764C99.4262 10.0757 99.6812 9.61884 99.9823 9.22118C100.066 9.12599 100.119 8.98995 100.129 8.84257C100.139 8.69519 100.106 8.54836 100.036 8.43393Z" fill="#0F1111"/>
<path fill-rule="evenodd" clip-rule="evenodd" d="M144.701 23.8412V23.2352H167.31C167.31 23.8364 167.384 24.0885 167.03 24.0885H145.015C144.869 24.0885 144.731 24.0303 144.731 23.8412H144.701ZM148.078 8.43318V15.4972H163.922V3.803H148.078V8.43318ZM147.373 10.8574V3.56059C147.378 3.4636 147.397 3.36884 147.431 3.28204C147.465 3.19525 147.512 3.11824 147.569 3.05568C147.626 2.99311 147.692 2.9463 147.764 2.91808C147.836 2.88986 147.911 2.88083 147.985 2.89151H164.03C164.104 2.88152 164.179 2.89109 164.25 2.91963C164.321 2.94816 164.387 2.99509 164.444 3.05759C164.501 3.12008 164.547 3.19686 164.58 3.2833C164.614 3.36974 164.633 3.46405 164.638 3.56059V15.8027C164.638 16.2875 164.265 16.4717 163.892 16.4717H148.123C147.75 16.4717 147.377 16.2681 147.377 15.8027V10.8719L147.373 10.8574ZM168 23.0316C168 22.217 167.881 22.3916 167.216 20.6559C167.019 20.1371 166.097 17.936 166.075 17.4511V1.68428C166.038 1.48362 165.948 1.30583 165.822 1.18118C165.695 1.05653 165.539 0.992738 165.381 1.00066H146.623C145.701 1.00066 145.922 2.36789 145.922 3.19696V17.3299C145.909 17.7527 145.8 18.161 145.608 18.5032C145.414 18.988 144 22.5273 144 22.7455V24.0885C144.028 24.338 144.123 24.5664 144.269 24.7333C144.414 24.9002 144.601 24.9946 144.795 25H167.201C167.396 24.9948 167.583 24.9005 167.729 24.7337C167.875 24.5669 167.971 24.3384 168 24.0885V23.0316ZM153.701 20.7965H158.295C158.321 21.1892 158.571 21.9067 158.578 22.3189H153.422C153.422 21.9116 153.675 21.1989 153.701 20.7965ZM152.623 22.3189H144.922L146.299 18.8087C146.358 18.6438 146.414 18.3626 146.563 18.3626H165.407C165.563 18.3626 165.731 18.9687 165.858 19.2935C165.985 19.6183 166.116 19.9723 166.231 20.3116C166.302 20.491 166.354 20.5735 166.433 20.7965L166.638 21.3249C166.772 21.6789 166.892 22.0037 167.011 22.3383H159.325C158.951 21.3104 159.243 19.8414 158.011 19.8414H153.937C153.366 19.8414 153.119 20.0741 152.981 20.6704L152.608 22.3383L152.623 22.3189ZM146.623 1.917H165.373V17.3881H146.623V1.917Z" fill="#0F1111"/>
<path fill-rule="evenodd" clip-rule="evenodd" d="M205.617 9.43778H215.14V23.3251H205.617V9.43778ZM196.809 11.8254H197.602V11.0164H196.792V11.8254H196.809ZM193.62 11.8254H194.43V11.0164H193.62V11.8254ZM201.573 2.77501V3.45477H202.422V2.65142H201.702C201.601 2.65142 201.573 2.65142 201.573 2.77501ZM195.195 11.8254H196.044V11.0164H195.195V11.8254ZM201.573 4.34801C201.573 5.24125 201.393 5.07271 202.422 5.07271C202.422 4.04464 202.597 4.22442 201.702 4.22442C201.601 4.22442 201.573 4.25251 201.573 4.34801ZM201.832 6.68504C201.832 6.47156 201.832 6.47156 202.04 6.47156C202.248 6.47156 202.225 6.81424 202.04 6.81424C201.854 6.81424 201.832 6.81425 201.832 6.68504ZM201.404 6.55582C201.381 6.71375 201.422 6.8744 201.517 7.0024C201.613 7.13041 201.755 7.2153 201.913 7.23839C202.071 7.26149 202.232 7.2209 202.36 7.12555C202.489 7.0302 202.574 6.88791 202.597 6.72997C202.62 6.57204 202.579 6.4114 202.484 6.2834C202.388 6.15539 202.246 6.0705 202.088 6.0474C201.93 6.02431 201.769 6.0649 201.641 6.16025C201.512 6.2556 201.427 6.39789 201.404 6.55582ZM199.998 11.8254H202.422V11.0164H199.998V11.8254ZM206.748 7.83107H207.597V3.83678H206.748V7.83107ZM206.748 15.8197H207.597V10.2018H206.748V15.8197ZM194.413 3.46039H198.35V6.20752H194.413V3.44354V3.46039ZM193.603 3.03905V6.65132C193.607 6.71323 193.624 6.77366 193.652 6.82887C193.68 6.88408 193.72 6.93291 193.768 6.97237C193.816 7.01184 193.871 7.04109 193.931 7.05834C193.991 7.07558 194.053 7.08046 194.115 7.07266H198.727C198.796 7.07985 198.865 7.07153 198.93 7.0483C198.995 7.02507 199.054 6.98753 199.103 6.93845C199.152 6.88937 199.189 6.83 199.211 6.76475C199.234 6.69949 199.241 6.63001 199.233 6.56144V3.07837C199.234 3.02283 199.224 2.9677 199.203 2.91624C199.182 2.86478 199.151 2.81803 199.111 2.77876C199.072 2.73948 199.025 2.70847 198.974 2.68756C198.922 2.66666 198.867 2.65628 198.811 2.65703H194.002C193.901 2.65703 193.804 2.69728 193.732 2.76892C193.66 2.84056 193.62 2.93773 193.62 3.03905H193.603ZM200.836 20.4151C200.383 20.0312 199.969 19.6041 199.599 19.1398V17.2241C199.955 16.7762 200.355 16.3642 200.791 15.9938C201.257 16.5597 201.526 17.2618 201.556 17.9938C201.619 18.6913 201.455 19.3906 201.089 19.9881C200.954 20.2353 200.876 20.2634 200.836 20.4151ZM198.794 16.9713V19.4769C198.794 19.6342 198.997 19.7072 199.048 19.9038C198.581 20.0106 198.806 20.1566 197.816 20.1566C197.354 20.1219 196.92 19.9232 196.592 19.5966C196.264 19.27 196.063 18.837 196.027 18.3758C195.991 18.0049 196.059 17.6314 196.224 17.2972C196.324 17.0955 196.464 16.9159 196.635 16.7691C196.948 16.4603 197.357 16.2663 197.795 16.2183C198.233 16.1704 198.674 16.2714 199.048 16.505C198.986 16.741 198.794 16.6848 198.794 16.9713ZM195.195 18.005C195.223 17.4968 195.388 17.0057 195.674 16.5842C195.96 16.1627 196.355 15.8267 196.817 15.6121C197.279 15.3975 197.791 15.3123 198.298 15.3657C198.805 15.4191 199.287 15.609 199.694 15.9152L200.212 15.3534C199.952 15.1296 199.655 14.9528 199.334 14.8309C198.673 14.5712 197.95 14.5136 197.255 14.6657C196.561 14.8177 195.928 15.1725 195.437 15.6848C192.922 18.1848 195.437 22.797 199.261 21.4993C199.434 21.4415 199.599 21.3662 199.756 21.2746C199.897 21.1671 200.05 21.0766 200.212 21.0049C200.065 20.7719 199.874 20.5696 199.649 20.4094C199.22 20.7227 198.71 20.9078 198.179 20.9431C197.648 20.9785 197.118 20.8626 196.65 20.6091C196.182 20.3555 195.796 19.9747 195.537 19.5107C195.277 19.0468 195.155 18.5188 195.183 17.9881L195.195 18.005ZM193.62 18.0499C193.599 18.7682 193.755 19.4807 194.075 20.1244C194.394 20.7681 194.868 21.3233 195.453 21.7409C195.55 21.8172 195.654 21.8849 195.763 21.9431C196.276 22.2685 196.85 22.4842 197.451 22.5767C198.051 22.6692 198.664 22.6365 199.251 22.4806C199.839 22.3247 200.387 22.049 200.862 21.6709C201.337 21.2928 201.729 20.8204 202.012 20.2837C202.295 19.7469 202.464 19.1574 202.508 18.5521C202.552 17.9469 202.47 17.3392 202.267 16.7673C202.064 16.1954 201.745 15.6716 201.329 15.2291C200.913 14.7866 200.41 14.4348 199.852 14.1961C199.292 13.9318 198.683 13.7901 198.064 13.7804C197.445 13.7707 196.831 13.8933 196.263 14.1399C195.489 14.4724 194.827 15.0196 194.354 15.7165C193.882 16.4134 193.619 17.231 193.597 18.0724L193.62 18.0499ZM200.808 1.86492H203.193V7.80861H200.808V1.87615V1.86492ZM192.855 1.86492V7.80861H199.998V1.87615L192.855 1.86492ZM192.006 1.56718C191.994 1.49078 192.001 1.41277 192.025 1.33942C192.049 1.26607 192.09 1.19941 192.145 1.14479C192.2 1.09017 192.267 1.04912 192.34 1.02491C192.413 1.0007 192.492 0.994015 192.568 1.00539H203.497C203.616 1.00504 203.734 1.03397 203.84 1.08965C203.926 1.15215 203.986 1.24415 204.009 1.34808V8.22994C204.009 8.33126 203.968 8.42842 203.896 8.50006C203.825 8.5717 203.727 8.61195 203.626 8.61195H192.427C192.112 8.61195 192.006 8.33668 192.006 8.01646V1.5784V1.56718ZM192.855 13.4152V23.3139H203.193V13.4265L192.855 13.4152ZM192.855 10.2299H203.193V12.5669H192.855V10.2299ZM192.006 9.93215C191.995 9.86398 191.999 9.79438 192.018 9.72795C192.036 9.66151 192.069 9.59973 192.113 9.54667C192.157 9.49361 192.212 9.45047 192.274 9.42009C192.336 9.3897 192.403 9.37276 192.472 9.37037H203.485C203.755 9.37037 203.997 9.48272 203.997 9.75238V23.797C203.997 24.2296 203.48 24.179 203.232 24.179C203.232 24.7015 203.311 24.9824 203.103 24.9824C202.22 24.9824 202.383 25.1565 202.383 24.179H193.665C193.665 24.7015 193.738 24.9824 193.535 24.9824C192.647 24.9824 192.81 25.1565 192.81 24.179C192.433 24.179 192.006 24.2296 192.006 23.6172V9.94338V9.93215ZM205.617 1.86492H215.14V8.60634H205.617V1.86492ZM204.762 1.56718V23.6228C204.762 24.2296 205.195 24.1846 205.572 24.1846C205.572 25.1621 205.409 24.988 206.298 24.988C206.5 24.988 206.421 24.7071 206.421 24.1846H214.335C214.335 25.1621 214.167 24.988 215.055 24.988C215.258 24.988 215.185 24.7071 215.185 24.1846C215.562 24.1846 215.995 24.2352 215.995 23.6228V1.5784C216.006 1.50201 215.999 1.42401 215.975 1.35066C215.951 1.27731 215.91 1.21065 215.855 1.15603C215.8 1.10141 215.734 1.06035 215.66 1.03614C215.587 1.01193 215.509 1.00524 215.432 1.01662H205.308C205.233 1.00812 205.156 1.01695 205.085 1.04244C205.014 1.06793 204.95 1.10939 204.897 1.16365C204.844 1.2179 204.805 1.2835 204.781 1.3554C204.758 1.4273 204.751 1.50359 204.762 1.5784V1.56718Z" fill="#0F1111"/>
<path fill-rule="evenodd" clip-rule="evenodd" d="M248.98 23.8507H254.927C255.183 23.8419 255.438 23.8915 255.666 23.9949C255.861 24.0796 256.023 24.2148 256.13 24.3825H247.879C247.978 24.2236 248.129 24.0948 248.312 24.0129C248.513 23.9038 248.745 23.8475 248.98 23.8507ZM251.09 21.3628C251.319 21.3628 251.294 21.4078 251.543 21.4078H252.45C252.7 21.4078 252.675 21.3673 252.899 21.3628V23.2738H251.09V21.3628ZM252.109 17.0089C251.452 17.0089 251.09 16.779 251.09 16.1075C251.09 15.3773 251.905 14.228 252.649 15.3052C253.036 15.8686 253.036 16.9954 252.099 16.9954L252.109 17.0089ZM250.499 13.0111C250.489 12.9439 250.494 12.8756 250.513 12.8102C250.533 12.7447 250.567 12.6833 250.614 12.6296C250.661 12.5758 250.719 12.5306 250.785 12.4967C250.851 12.4628 250.925 12.4408 251.001 12.4319C251.077 12.423 251.154 12.4275 251.228 12.445C251.302 12.4625 251.371 12.4927 251.432 12.5339C251.493 12.5752 251.544 12.6266 251.582 12.6853C251.621 12.7439 251.645 12.8087 251.655 12.8759C251.655 13.8134 250.499 13.5655 250.499 13.0111ZM252.858 12.4297C252.939 12.421 253.021 12.4268 253.099 12.4468C253.178 12.4668 253.251 12.5006 253.314 12.5461C253.377 12.5916 253.429 12.6479 253.467 12.7116C253.505 12.7753 253.528 12.8452 253.535 12.917C253.542 12.9888 253.533 13.0611 253.507 13.1296C253.482 13.1981 253.441 13.2613 253.387 13.3155C253.334 13.3698 253.268 13.4138 253.195 13.4452C253.121 13.4765 253.041 13.4944 252.96 13.4979C252.803 13.5045 252.65 13.4571 252.531 13.3656C252.413 13.2741 252.34 13.1456 252.327 13.0072C252.314 12.8688 252.362 12.7313 252.461 12.6236C252.56 12.5159 252.702 12.4464 252.858 12.4297ZM254.168 12.4297C254.161 12.3598 254.171 12.2896 254.195 12.2229C254.219 12.1562 254.258 12.0944 254.31 12.0411C254.361 11.9877 254.424 11.9438 254.494 11.9119C254.565 11.88 254.642 11.8606 254.721 11.855C254.8 11.8494 254.879 11.8576 254.955 11.8791C255.03 11.9006 255.1 11.9351 255.16 11.9805C255.22 12.0259 255.27 12.0814 255.306 12.1438C255.342 12.2061 255.364 12.2742 255.37 12.344C255.383 12.4851 255.332 12.6249 255.229 12.7326C255.125 12.8404 254.977 12.9073 254.818 12.9187C254.658 12.93 254.5 12.8849 254.378 12.7932C254.256 12.7015 254.181 12.5707 254.168 12.4297ZM249.245 12.9209C249.161 12.9239 249.078 12.9114 249 12.8843C248.922 12.8573 248.851 12.8162 248.792 12.7637C248.733 12.7112 248.686 12.6485 248.656 12.5794C248.626 12.5103 248.612 12.4364 248.615 12.3624C248.619 12.2884 248.64 12.2158 248.677 12.1492C248.713 12.0826 248.765 12.0235 248.829 11.9757C248.893 11.9278 248.968 11.8921 249.048 11.871C249.128 11.8498 249.213 11.8436 249.296 11.8528C250.05 11.8528 249.958 12.9209 249.245 12.9209ZM255.676 11.4561C255.676 11.3516 255.71 11.2491 255.773 11.161C255.837 11.0729 255.928 11.0028 256.035 10.9591C256.143 10.9154 256.262 10.8999 256.379 10.9145C256.496 10.9292 256.606 10.9732 256.695 11.0415C256.92 11.2308 257.118 11.9429 256.186 11.9429C255.834 11.9429 255.676 11.5868 255.676 11.4561ZM247.839 11.9429C247.985 11.9303 248.12 11.8677 248.215 11.7684C248.31 11.6691 248.358 11.5409 248.348 11.4111C248.348 11.27 248.285 11.1347 248.172 11.035C248.059 10.9353 247.906 10.8792 247.747 10.8792C247.587 10.8792 247.434 10.9353 247.322 11.035C247.209 11.1347 247.146 11.27 247.146 11.4111C247.146 11.8618 247.482 11.9429 247.849 11.9429H247.839ZM257.072 10.2708C257.062 10.3774 257.089 10.4843 257.148 10.5775C257.208 10.6707 257.298 10.7458 257.406 10.793C257.515 10.8403 257.637 10.8575 257.757 10.8423C257.877 10.8272 257.988 10.7804 258.078 10.7082C258.167 10.6359 258.229 10.5415 258.257 10.4373C258.285 10.3331 258.276 10.2239 258.233 10.1241C258.189 10.0243 258.112 9.9384 258.013 9.87772C257.913 9.81704 257.795 9.78438 257.674 9.78399C257.598 9.78036 257.522 9.79013 257.451 9.81274C257.379 9.83535 257.314 9.87035 257.258 9.91567C257.202 9.961 257.156 10.0158 257.125 10.0767C257.093 10.1377 257.075 10.2037 257.072 10.2708ZM246.371 9.78399C246.522 9.79322 246.664 9.85359 246.766 9.95259C246.869 10.0516 246.924 10.1817 246.921 10.3158C246.92 10.4569 246.856 10.592 246.744 10.6922C246.632 10.7924 246.479 10.8498 246.32 10.8522C246.236 10.8551 246.153 10.8426 246.075 10.8156C245.997 10.7885 245.926 10.7474 245.867 10.695C245.808 10.6425 245.761 10.5797 245.731 10.5106C245.701 10.4416 245.687 10.3677 245.69 10.2936C245.694 10.2196 245.715 10.147 245.751 10.0804C245.788 10.0139 245.84 9.95478 245.904 9.90689C245.968 9.859 246.043 9.82336 246.123 9.80221C246.203 9.78106 246.288 9.77485 246.371 9.78399ZM244.964 9.42793C244.886 9.42527 244.809 9.40899 244.738 9.38003C244.667 9.35107 244.603 9.30999 244.55 9.25914C244.496 9.20829 244.455 9.14866 244.428 9.08366C244.401 9.01867 244.388 8.94957 244.391 8.88032C244.394 8.81107 244.413 8.74302 244.445 8.68006C244.478 8.6171 244.524 8.56046 244.582 8.51338C244.639 8.46629 244.707 8.42969 244.78 8.40565C244.854 8.38161 244.932 8.3706 245.01 8.37327C245.168 8.37864 245.318 8.43936 245.425 8.54206C245.533 8.64476 245.59 8.78103 245.584 8.92088C245.578 9.06074 245.509 9.19273 245.393 9.28782C245.277 9.38291 245.123 9.43331 244.964 9.42793ZM259.029 9.42793C258.52 9.42793 258.428 9.17103 258.428 8.85103C258.428 8.40031 259.147 8.25609 259.447 8.52651C259.528 8.6008 259.583 8.69441 259.606 8.7959C259.628 8.8974 259.616 9.00238 259.571 9.098C259.527 9.19363 259.452 9.27575 259.356 9.33435C259.26 9.39294 259.146 9.42546 259.029 9.42793ZM244.913 10.0048C244.712 9.99394 244.517 9.93981 244.344 9.84715C244.171 9.75448 244.027 9.62606 243.923 9.47297C243.819 9.31989 243.759 9.14674 243.748 8.96849C243.737 8.79024 243.775 8.61225 243.859 8.44989C243.678 8.41115 243.51 8.33438 243.37 8.2261C243.23 8.11782 243.121 7.98122 243.053 7.82791C242.6 7.92256 241.076 8.68426 240.694 8.76088C240.707 8.96583 240.748 9.16863 240.816 9.36484C241.314 11.265 242.065 13.1062 243.053 14.85L243.879 16.13C244.364 16.826 244.917 17.4835 245.53 18.0951C246.267 18.8192 247.127 19.438 248.078 19.9295C248.409 20.0875 248.749 20.2289 249.097 20.3532C250.962 20.9794 253.022 20.9794 254.886 20.3532C258.423 19.0912 260.528 15.9362 261.893 12.9119C262.174 12.299 263.295 9.42793 263.295 8.72933C262.913 8.65271 261.389 7.89101 260.935 7.79636C260.868 7.94967 260.759 8.08626 260.619 8.19455C260.479 8.30283 260.311 8.3796 260.13 8.41834C260.268 8.6482 260.232 8.65722 260.232 8.99525C260.215 9.13855 260.167 9.27756 260.09 9.40431C260.012 9.53106 259.907 9.64307 259.781 9.73392C259.655 9.82477 259.509 9.89268 259.353 9.93375C259.197 9.97483 259.033 9.98826 258.871 9.97329C258.871 10.1806 258.922 10.122 258.922 10.2843C258.914 10.4394 258.871 10.5916 258.795 10.7318C258.72 10.8721 258.613 10.9976 258.482 11.1012C258.352 11.2048 258.199 11.2844 258.033 11.3352C257.867 11.3861 257.691 11.4073 257.516 11.3975C257.521 11.5387 257.493 11.6792 257.436 11.8108C257.378 11.9424 257.291 12.0624 257.18 12.1637C257.025 12.3103 256.83 12.4202 256.615 12.4832C256.399 12.5462 256.17 12.5603 255.946 12.5243C255.946 13.2409 254.927 13.7097 254.086 13.3266C253.993 13.5362 253.834 13.7177 253.628 13.8494C252.94 14.2415 252.685 14.0297 252.277 13.9486V14.3272C252.665 14.46 252.986 14.7131 253.179 15.0393C253.974 16.2472 253.312 17.5723 252.078 17.5723C250.356 17.5723 250.091 16.0759 250.774 15.0393C250.877 14.8785 250.998 14.7275 251.136 14.5886C251.302 14.4765 251.484 14.3826 251.676 14.3091V13.9125C251.465 13.9786 251.246 14.0225 251.024 14.0432C250.771 14.0251 250.529 13.9451 250.324 13.8122C250.12 13.6793 249.962 13.4986 249.867 13.2905C249.714 13.3752 249.537 13.4205 249.357 13.4212C248.185 13.4212 248.155 12.8578 247.951 12.4883C247.095 12.4883 246.422 12.1953 246.422 11.3795C246.217 11.3925 246.011 11.3625 245.822 11.2919C245.633 11.2213 245.465 11.1121 245.332 10.9733C245.2 10.8345 245.106 10.6699 245.059 10.493C245.012 10.3161 245.013 10.1318 245.061 9.95527L244.913 10.0048ZM259.182 7.42678C259.176 7.28572 259.234 7.14831 259.342 7.04477C259.451 6.94123 259.601 6.88003 259.761 6.87465C259.92 6.86927 260.075 6.92015 260.193 7.01608C260.31 7.11202 260.379 7.24516 260.385 7.38621C260.388 7.45606 260.375 7.52574 260.348 7.59128C260.32 7.65683 260.279 7.71695 260.225 7.76822C260.171 7.81949 260.107 7.8609 260.035 7.89009C259.963 7.91928 259.885 7.93567 259.806 7.93833C259.728 7.94099 259.649 7.92988 259.575 7.90561C259.501 7.88134 259.433 7.8444 259.375 7.7969C259.317 7.7494 259.27 7.69226 259.237 7.62876C259.204 7.56525 259.185 7.49662 259.182 7.42678ZM243.609 7.47184C243.603 7.402 243.612 7.33174 243.636 7.26506C243.66 7.19839 243.699 7.1366 243.751 7.08324C243.802 7.02988 243.865 6.98598 243.935 6.95406C244.006 6.92214 244.083 6.90281 244.162 6.89719C244.241 6.89157 244.32 6.89976 244.396 6.92129C244.471 6.94282 244.541 6.97728 244.601 7.02269C244.662 7.0681 244.711 7.12357 244.747 7.18595C244.783 7.24832 244.805 7.31637 244.812 7.38621C244.824 7.52727 244.773 7.66705 244.67 7.77482C244.566 7.88259 244.418 7.94951 244.259 7.96087C244.099 7.97222 243.941 7.92708 243.819 7.83537C243.697 7.74366 243.622 7.6129 243.609 7.47184ZM258.525 7.38621C258.564 7.17241 258.633 6.96359 258.729 6.76423C258.219 6.63803 257.623 5.48421 257.445 5.10111L256.736 3.63629C256.65 3.48366 256.576 3.32546 256.517 3.16305C254.581 4.31236 249.413 4.31236 247.477 3.16305L246.993 4.15912C246.83 4.50166 246.702 4.79012 246.534 5.13266C245.759 6.72367 245.591 6.40817 245.265 6.80479C245.306 6.94902 245.331 6.91297 245.398 7.08874C245.556 7.53945 245.398 7.58452 245.367 7.87298C245.521 7.91402 245.664 7.98181 245.788 8.07237C245.912 8.16293 246.014 8.27443 246.088 8.40036C246.163 8.52628 246.208 8.66409 246.222 8.80571C246.235 8.94733 246.217 9.08991 246.167 9.22511C246.351 9.21314 246.536 9.23368 246.711 9.28553C246.886 9.33737 247.048 9.41949 247.186 9.52709C247.301 9.63731 247.397 9.76182 247.472 9.89667C247.541 10.05 247.578 10.2137 247.579 10.3789H247.833C248.121 10.3949 248.392 10.5031 248.595 10.6831C248.799 10.8632 248.921 11.1028 248.939 11.357C249.239 11.2854 249.558 11.3198 249.829 11.4527C250.1 11.5856 250.302 11.8067 250.392 12.0691C250.573 11.968 250.781 11.9096 250.995 11.8994C251.209 11.8891 251.422 11.9274 251.615 12.0105C251.752 12.0779 251.881 12.1564 252.002 12.2449C252.512 11.9519 252.833 11.704 253.607 12.0691C253.697 11.8057 253.9 11.5838 254.172 11.4508C254.444 11.3178 254.765 11.2841 255.065 11.357C255.083 11.1028 255.205 10.8632 255.409 10.6831C255.612 10.5031 255.883 10.3949 256.171 10.3789H256.42C256.424 10.2009 256.466 10.0252 256.543 9.86061C256.661 9.6535 256.846 9.48232 257.075 9.36908C257.304 9.25584 257.565 9.2057 257.827 9.22511C257.734 8.95137 257.766 8.65635 257.917 8.40348C258.067 8.15062 258.324 7.96013 258.632 7.87298C258.579 7.71428 258.545 7.55115 258.53 7.38621H258.525ZM247.726 2.54107C247.726 1.78388 251.182 1.56302 251.997 1.56302C252.816 1.55916 253.633 1.62557 254.438 1.76133C258.591 2.5005 254.657 3.42897 252.598 3.42897C251.5 3.48048 250.399 3.40931 249.321 3.21714C248.955 3.14052 247.726 2.82952 247.726 2.54107ZM244.761 6.40816C244.516 6.40816 244.603 6.31802 244.159 6.31802C243.953 6.3331 243.753 6.39067 243.576 6.48614C243.399 6.58161 243.25 6.71234 243.14 6.86789C242.962 7.16085 243.247 7.15635 242.223 7.52593L240.516 8.23355C239.817 8.48144 239.935 8.49045 240.246 9.65779C240.55 10.7266 240.921 11.7799 241.356 12.8128C241.778 13.7848 242.266 14.7331 242.819 15.6523C243.361 16.5234 243.991 17.35 244.699 18.1222C245.165 18.6199 245.676 19.0827 246.228 19.5058C246.361 19.612 246.5 19.7114 246.646 19.8033L248.088 20.6146L249.184 21.0247C249.587 21.1575 250.006 21.2483 250.432 21.2952V23.2963C249.271 23.2963 247.991 23.1341 247.319 24.0986C247.135 24.369 246.809 25 247.472 25H256.512C257.46 25 256.644 23.3143 254.856 23.3143H253.551V21.3132C254.402 21.3132 256.018 20.6146 256.833 20.1323C257.143 19.9505 257.44 19.7533 257.725 19.5419C258.423 19.02 259.057 18.4337 259.615 17.7931L259.957 17.3875C261.055 15.9913 261.948 14.4767 262.612 12.8804C262.913 12.1908 263.121 11.5282 263.402 10.8251C263.519 10.4961 263.646 10.077 263.738 9.74343C263.789 9.55413 263.83 9.39639 263.876 9.20258C264.029 8.5806 264.146 8.49046 263.56 8.27412L261.267 7.32312C260.849 7.14734 261.068 7.24199 260.879 6.91297C260.746 6.68652 260.527 6.50894 260.26 6.41162C259.994 6.3143 259.697 6.30349 259.422 6.38112C259.233 6.42169 259.233 6.47127 258.912 6.18732C258.552 5.84201 258.277 5.43354 258.107 4.98843L256.965 2.60867C256.962 2.4597 256.92 2.3134 256.842 2.18124C256.765 2.04909 256.653 1.93467 256.517 1.84697C255.707 1.31513 254.219 1.10781 253.169 1.03118C252.879 1.03118 252.659 1.03119 252.349 1.00414C251.551 0.986137 250.753 1.02684 249.964 1.12584C249.057 1.23851 247.263 1.57654 247.105 2.3743C247.016 2.76025 246.864 3.13242 246.651 3.47854C246.289 4.3676 245.818 5.21859 245.245 6.01605C245.103 6.15958 244.94 6.28543 244.761 6.39014V6.40816Z" fill="#0F1111" stroke="#0F1111" stroke-width="0.5" stroke-miterlimit="10"/>
<path fill-rule="evenodd" clip-rule="evenodd" d="M293.687 17.2793H306.267V22.5926H293.687V17.2793ZM293.687 13.8306H306.267V16.3793H293.687V13.8306ZM290.681 7.96297C290.974 7.92692 291.268 7.98622 291.546 8.13724C291.824 8.28827 292.079 8.52785 292.297 8.84133L292.365 8.94212L292.455 9.07171C292.858 9.71537 293.092 10.5768 293.112 11.4836V23.3485C293.112 24.2917 292.279 24.0685 291.505 24.0685C290.971 24.0685 291.115 22.8014 291.115 21.6494C291.115 18.7696 291.188 16.7105 289.689 14.8098C289.499 14.6131 289.32 14.389 289.155 14.1402C288.848 13.6381 288.639 13.0059 288.552 12.3194C288.465 11.6329 288.505 10.9212 288.666 10.2694C288.827 9.61761 289.102 9.05343 289.46 8.64439C289.817 8.23534 290.241 7.99876 290.681 7.96297ZM308.467 24.0397C307.666 24.0397 306.82 24.2989 306.82 23.3197V11.4836C306.846 10.5634 307.088 9.69221 307.497 9.04088C307.907 8.38955 308.455 8.0051 309.033 7.96297C309.373 7.92126 309.715 8.01789 310.025 8.24376C310.238 8.38866 310.436 8.58808 310.609 8.83413C310.995 9.35897 311.26 10.0755 311.359 10.8682C311.458 11.661 311.387 12.4838 311.157 13.2043C310.704 14.7234 310.002 14.6442 309.346 16.3577C308.689 18.0712 308.798 19.4391 308.798 21.5558C308.798 22.427 308.947 24.0397 308.449 24.0397H308.467ZM306.254 11.6852C306.257 10.7413 306.442 9.82162 306.784 9.04954C307.125 8.27745 307.607 7.68982 308.164 7.36541C308.164 5.5583 308.237 4.60075 307.748 3.47042C307.543 2.98871 307.27 2.59039 306.951 2.30771C306.632 2.02502 306.275 1.86593 305.91 1.84331H301.147C300.891 1.87999 300.654 2.07285 300.485 2.38151C300.316 2.69017 300.229 3.09069 300.242 3.49922V12.9523H306.272V11.7068L306.254 11.6852ZM294.031 1.82171C293.665 1.84659 293.309 2.00659 292.989 2.28903C292.669 2.57147 292.395 2.96857 292.188 3.44882C291.699 4.57916 291.776 5.53671 291.776 7.34381C292.324 7.65822 292.797 8.23093 293.134 8.98532C293.718 10.238 293.691 11.3972 293.691 12.9307H299.735V3.46322C299.749 3.05425 299.662 2.65274 299.493 2.34368C299.324 2.03461 299.086 1.84225 298.829 1.80731L294.031 1.82171ZM291.211 7.13502C290.715 6.99916 290.206 7.10196 289.748 7.4302C289.251 7.7569 288.823 8.30238 288.515 9.00254C288.206 9.7027 288.029 10.5285 288.005 11.3828C287.975 12.1731 288.075 12.9623 288.295 13.6723C288.748 15.1842 289.449 15.2418 290.07 16.7249C291.02 18.9928 290.296 22.7366 290.649 24.0037C291.002 25.2708 291.822 24.9684 292.605 24.9684C292.842 24.9867 293.076 24.872 293.265 24.6444C293.455 24.4168 293.588 24.0907 293.642 23.7229C293.682 23.5717 293.642 23.5213 293.773 23.5213H306.181C306.417 23.5213 306.181 23.8885 306.602 24.5077C307.023 25.1268 307.68 24.9684 308.413 24.9684C308.599 24.9622 308.78 24.8784 308.939 24.7255C309.098 24.5726 309.229 24.356 309.319 24.0973C309.649 23.1469 309.165 19.5327 309.649 17.6176C309.984 16.2641 310.36 15.9113 311.007 15.0834C311.341 14.6528 311.605 14.1011 311.776 13.4747C311.948 12.8482 312.023 12.1654 311.994 11.4836C311.994 8.73333 310.183 6.69584 308.78 7.20701C308.78 5.44311 308.821 4.14719 308.137 2.77926C307.857 2.21704 307.499 1.76441 307.092 1.45614C306.685 1.14787 306.239 0.992153 305.787 1.00096H301.319C300.826 1.00096 300.156 1.47613 300.061 2.0305H299.975C299.884 1.47613 299.214 1.00096 298.716 1.00096H294.248C293.579 0.979302 292.925 1.32555 292.397 1.98131C291.869 2.63707 291.5 3.56222 291.351 4.60076C291.247 5.43495 291.201 6.28489 291.215 7.13502H291.211Z" fill="#0F1111" stroke="#0F1111" stroke-width="0.5" stroke-miterlimit="10"/>
<path fill-rule="evenodd" clip-rule="evenodd" d="M350.582 3.21564C351.025 3.70239 351.409 4.24238 351.728 4.82406C352.056 5.45198 352.336 6.10534 352.566 6.77826C353.223 8.82677 353.041 9.74362 353.041 11.8759H351.678C351.713 10.3028 351.667 8.72885 351.541 7.16072C351.389 5.8118 351.073 4.48815 350.602 3.22088L350.582 3.21564ZM346.129 8.81105H350.91C350.898 8.03779 350.826 7.26682 350.693 6.50583C350.584 5.81391 350.427 5.13105 350.224 4.46256C350.047 3.85021 349.792 3.26519 349.466 2.72317C348.583 1.36099 347.25 1.50768 346.437 2.88034L345.997 3.78671C345.405 5.39051 345.1 7.09338 345.099 8.81105H346.129ZM345.119 9.54453C345.119 10.1104 345.119 10.6814 345.119 11.2473C345.119 11.8131 345.255 12.6094 344.745 12.6094H342.609C342.559 12.6126 342.509 12.6045 342.462 12.5858C342.415 12.5671 342.372 12.5381 342.337 12.5009C342.301 12.4637 342.274 12.4191 342.257 12.37C342.239 12.321 342.232 12.2686 342.236 12.2165V9.54453H337.187C336.848 9.54453 336.717 9.68075 336.717 10.0318V14.0188C336.717 14.878 336.767 15.5905 336.762 16.4026L336.838 17.5447C336.889 17.9062 336.884 18.252 336.929 18.5925C336.974 18.9331 337.005 19.2946 337.06 19.677L337.449 21.6574C337.732 22.8467 337.777 22.5271 337.308 23.5173C337.101 23.9522 337.247 24.2141 337.606 24.2141H358.413C358.493 24.2205 358.572 24.2006 358.64 24.1573C358.708 24.114 358.761 24.0496 358.792 23.9731C358.938 23.6221 358.363 23.1715 358.363 22.611C358.363 22.3752 358.747 20.8925 358.822 20.4577C358.898 20.0228 358.928 19.7294 358.989 19.3155C359.12 18.3882 359.267 16.1301 359.297 14.878V11.9807C359.297 11.3416 359.297 10.4981 359.297 10.2728C359.297 9.79601 359.297 9.56025 358.832 9.53929H355.939H353.778C353.778 10.2675 353.778 11.0429 353.778 12.1589C353.778 12.447 353.682 12.6461 353.405 12.6461H351.284C351.234 12.6492 351.183 12.6412 351.136 12.6225C351.089 12.6037 351.047 12.5748 351.011 12.5376C350.976 12.5004 350.948 12.4558 350.931 12.4067C350.914 12.3576 350.907 12.3053 350.91 12.2532V9.5812H345.104L345.119 9.54453ZM354.818 8.81105H353.748C353.662 8.0034 353.493 7.20769 353.243 6.43772C352.68 4.5902 351.611 2.95215 350.168 1.72249C350.01 1.59332 349.841 1.47934 349.663 1.38194C349.171 1.13686 348.633 1.00658 348.087 1.00024C347.541 0.993907 347 1.11167 346.502 1.34527C345.834 1.754 345.243 2.28676 344.76 2.91701C343.614 4.25299 342.332 7.10833 342.332 8.81629H336.985C336.721 8.82312 336.471 8.93653 336.287 9.1323C336.103 9.32807 336 9.5907 336 9.86412V15.3652C336.01 17.2404 336.179 19.111 336.505 20.9554C336.555 21.2435 336.621 21.5107 336.687 21.7884C336.939 22.8362 336.964 22.5166 336.636 23.1977C336.131 24.2456 336.767 25 337.439 25H358.55C359.216 25 359.842 24.256 359.368 23.2292C359.034 22.5114 359.039 22.8677 359.302 21.7884C359.786 19.5374 360.019 17.2365 359.999 14.9304V9.83268C359.999 9.55478 359.892 9.28826 359.703 9.09176C359.514 8.89525 359.257 8.78485 358.989 8.78485H354.803L354.818 8.81105ZM344.361 9.49214V11.8759H342.998C342.998 9.39784 342.811 8.10376 343.862 5.76187C344.094 5.23795 345.033 3.48284 345.487 3.1423C345.121 4.08478 344.843 5.06214 344.659 6.0605C344.463 7.1931 344.364 8.34141 344.361 9.49214Z" fill="#0F1111" stroke="#0F1111" stroke-width="0.5" stroke-miterlimit="10"/>
<path fill-rule="evenodd" clip-rule="evenodd" d="M393.284 21.3014C393.27 20.7042 393.401 20.1155 393.661 19.6094C393.921 19.1034 394.298 18.7028 394.745 18.4581C395.191 18.2135 395.687 18.1357 396.169 18.2348C396.652 18.3339 397.1 18.6052 397.456 19.0147C399.102 20.9858 397.864 24.2082 395.873 24.2082H395.624C395.007 24.1686 394.424 23.8481 393.991 23.3101C393.558 22.772 393.305 22.0554 393.284 21.3014ZM401.184 6.80042C401.283 6.79531 401.377 6.74514 401.448 6.65974C401.519 6.57433 401.561 6.45983 401.566 6.33864C401.571 6.21745 401.539 6.09829 401.476 6.00449C401.413 5.91069 401.323 5.84899 401.225 5.83147C401.125 5.83658 401.031 5.88675 400.961 5.97216C400.89 6.05757 400.848 6.17207 400.843 6.29326C400.838 6.41445 400.87 6.5336 400.933 6.6274C400.996 6.7212 401.086 6.7829 401.184 6.80042ZM397.923 6.80042C398.022 6.79531 398.117 6.74514 398.187 6.65974C398.258 6.57433 398.3 6.45983 398.305 6.33864C398.31 6.21745 398.278 6.09829 398.215 6.00449C398.152 5.91069 398.062 5.84899 397.964 5.83147C397.865 5.83658 397.77 5.88675 397.7 5.97216C397.629 6.05757 397.587 6.17207 397.582 6.29326C397.577 6.41445 397.609 6.5336 397.672 6.6274C397.735 6.7212 397.825 6.7829 397.923 6.80042ZM401.855 21.1962C401.858 21.2894 401.89 21.3779 401.943 21.4444C401.997 21.5109 402.069 21.5507 402.145 21.5561C402.712 21.5561 402.145 20.3657 403.216 20.0556C403.488 19.9781 403.692 20.0556 403.692 19.668C403.692 18.8098 401.855 19.5241 401.855 21.1962ZM394.204 21.1464C394.194 21.228 394.207 21.3115 394.241 21.3829C394.275 21.4543 394.328 21.5092 394.391 21.5384C394.455 21.5676 394.524 21.5693 394.588 21.5433C394.653 21.5173 394.707 21.4651 394.744 21.3955C394.826 21.2183 394.744 20.2882 395.529 20.0611C395.796 19.9836 396.041 20.0611 396.041 19.6127C396.041 18.9095 394.204 19.4521 394.204 21.1464ZM388.39 20.3823C388.495 20.3757 388.6 20.3964 388.698 20.443C388.796 20.4896 388.885 20.5611 388.959 20.6526C389.032 20.7442 389.089 20.8538 389.126 20.9742C389.162 21.0946 389.177 21.2231 389.17 21.3512C389.165 21.5333 389.116 21.7095 389.03 21.8582C388.943 22.0068 388.824 22.1216 388.685 22.1882C388.546 22.2549 388.394 22.2706 388.248 22.2335C388.102 22.1963 387.968 22.1079 387.862 21.979C387.757 21.8502 387.684 21.6866 387.654 21.5082C387.623 21.3299 387.636 21.1445 387.691 20.975C387.745 20.8054 387.839 20.659 387.961 20.5538C388.083 20.4485 388.227 20.3889 388.376 20.3823H388.39ZM387.052 21.3014C387.064 21.7325 387.208 22.1425 387.456 22.4501C387.704 22.7576 388.037 22.9405 388.39 22.9624C388.74 22.9629 389.077 22.7986 389.33 22.5037C389.584 22.2087 389.734 21.8059 389.751 21.3789C389.767 21.1407 389.739 20.9011 389.669 20.6778C389.599 20.4544 389.489 20.2532 389.347 20.0888C389.188 19.9061 388.995 19.7729 388.784 19.7005C388.574 19.6281 388.352 19.6187 388.138 19.673C387.924 19.7273 387.724 19.8438 387.555 20.0125C387.386 20.1813 387.252 20.3974 387.166 20.6425C387.1 20.8548 387.056 21.0761 387.034 21.3014H387.052ZM386.971 14.1035L387.424 14.9174C387.586 15.1898 387.726 15.4809 387.841 15.7867H386.086L386.739 14.5409C386.83 14.3803 386.884 14.253 386.966 14.1035H386.971ZM385.256 16.0912C385.256 16.3404 385.311 16.501 385.547 16.501H388.476C388.594 16.501 388.726 16.2906 388.726 16.1411C388.726 15.9916 388.027 14.7569 387.918 14.5243L387.297 13.3228C387.229 13.1899 387.166 13.0515 387.007 13.0349C386.735 13.0349 386.485 13.655 386.281 14.0592C386.204 14.2142 386.145 14.3028 386.068 14.4579L385.256 16.0912ZM387.556 7.23229H389.311V9.32522H387.556V7.23229ZM386.971 6.87794V9.68511C386.964 9.73337 386.968 9.78274 386.98 9.82919C386.992 9.87564 387.014 9.91786 387.042 9.9524C387.07 9.98694 387.105 10.0128 387.143 10.028C387.181 10.0431 387.221 10.047 387.261 10.0395H389.646C389.782 10.0395 389.896 9.818 389.896 9.62974V6.95545C389.896 6.62878 389.778 6.44606 389.519 6.44606H387.388C387.138 6.44606 386.971 6.55126 386.971 6.85579V6.87794ZM400.349 8.45593C399.85 8.67717 399.303 8.67717 398.803 8.45593C398.818 8.21805 398.906 7.99582 399.049 7.83369C399.193 7.67156 399.381 7.58148 399.576 7.58148C399.772 7.58148 399.96 7.67156 400.103 7.83369C400.247 7.99582 400.334 8.21805 400.349 8.45593ZM399.302 9.32522C398.826 9.32522 398.227 8.99301 398.236 8.47254C398.233 8.18569 398.291 7.90283 398.405 7.65151C398.518 7.40018 398.683 7.18897 398.883 7.03843C399.083 6.8879 399.311 6.80317 399.546 6.79251C399.781 6.78185 400.014 6.84562 400.222 6.9776C400.458 7.12268 400.653 7.35169 400.78 7.6344C400.907 7.91711 400.961 8.24024 400.934 8.56113C400.934 9.02623 400.295 9.32522 399.887 9.32522C399.887 9.93427 399.832 10.1724 400.309 10.0395C400.354 9.78477 400.354 9.5633 400.554 9.48579C400.939 9.31414 401.116 10.0395 400.694 10.5322C400.541 10.7038 400.345 10.8062 400.138 10.8223C399.931 10.8385 399.725 10.7673 399.556 10.6208C399.39 10.7741 399.184 10.8471 398.977 10.8256C398.77 10.8042 398.577 10.6898 398.436 10.5046C397.982 9.88998 398.358 9.1868 398.708 9.55223C398.871 9.72387 398.758 10.1059 399.052 10.1059C399.347 10.1059 399.302 9.64635 399.302 9.34183V9.32522ZM390.685 24.2304C390.875 24.2304 390.812 23.8705 390.812 23.6158V18.461C390.358 18.3392 386.907 18.4112 386.172 18.4112C386.073 18.4112 386.045 18.4499 386.045 18.5662V24.2304H390.685ZM384.585 17.4201C384.587 17.5076 384.603 17.5939 384.63 17.6748H389.352V12.0106C389.352 11.8888 389.324 11.8556 389.229 11.8556H384.753C384.731 11.8548 384.709 11.8596 384.688 11.8696C384.667 11.8796 384.649 11.8947 384.633 11.9139C384.617 11.933 384.605 11.9559 384.597 11.9811C384.588 12.0063 384.584 12.0333 384.585 12.0604V17.4201ZM390.689 11.1413C390.88 11.1413 390.816 10.7814 390.816 10.5267V5.37192C390.75 5.34001 390.679 5.32313 390.608 5.32209C389.878 5.32209 386.494 5.25011 386.073 5.37192V11.1413H390.689ZM385.465 5.32209V11.1413C384.83 11.1413 384 10.9863 384 12.1102V17.5197C384 18.5883 384.907 18.389 385.465 18.389V24.1584C385.456 24.3474 385.506 24.5334 385.604 24.6799C385.703 24.8264 385.842 24.9228 385.995 24.9502H390.803C390.965 24.9246 391.113 24.8278 391.221 24.678C391.329 24.5282 391.388 24.3356 391.388 24.1363V18.5994C391.388 17.564 390.481 17.7301 389.923 17.7301V11.8556C390.476 11.8556 391.388 12.0493 391.388 11.0416V5.5048C391.389 5.38175 391.368 5.25993 391.327 5.1474C391.286 5.03487 391.226 4.93419 391.151 4.85201C391.076 4.76984 390.988 4.70805 390.892 4.67073C390.796 4.63341 390.694 4.62141 390.594 4.63552H386.245C385.855 4.63552 385.451 4.90682 385.451 5.34977L385.465 5.32209ZM400.934 21.1962C400.939 20.6116 401.081 20.041 401.345 19.5532C401.609 19.0654 401.983 18.6812 402.421 18.4471C402.86 18.2129 403.345 18.1388 403.818 18.2336C404.29 18.3284 404.73 18.5882 405.084 18.9815C405.329 19.256 405.526 19.5885 405.663 19.9587C405.799 20.329 405.873 20.7293 405.879 21.1353C405.885 21.5413 405.823 21.9445 405.697 22.3205C405.572 22.6965 405.385 23.0373 405.148 23.3223C404.959 23.5784 404.729 23.7839 404.472 23.9259C404.094 24.1414 403.678 24.2375 403.262 24.205C402.845 24.1726 402.442 24.0128 402.09 23.7403C401.738 23.4679 401.447 23.0915 401.245 22.6459C401.043 22.2004 400.936 21.6999 400.934 21.1907V21.1962ZM403.901 13.7436C403.991 13.9042 404.322 14.397 404.322 14.6129C404.318 14.69 404.293 14.7634 404.253 14.8226C404.212 14.8817 404.157 14.9235 404.095 14.9419C404.034 14.9604 403.969 14.9546 403.91 14.9253C403.852 14.896 403.802 14.8448 403.769 14.779L403.157 13.7381C402.862 13.3161 402.532 12.932 402.173 12.592C401.565 12.0383 401.683 12.2321 401.22 12.4646C400.284 12.959 399.23 13.0123 398.263 12.6141C397.461 12.304 397.624 12.0604 397.229 12.3871C396.933 12.6307 396.658 12.9109 396.408 13.2231C395.909 13.8322 395.674 14.5298 395.306 13.8267L394.689 12.7193C394.498 12.3892 394.227 12.1396 393.915 12.0048C393.602 11.87 393.263 11.8565 392.944 11.9663C392.625 12.0761 392.342 12.3038 392.133 12.618C391.924 12.9323 391.8 13.3177 391.778 13.7215C391.778 14.9673 392.231 15.2939 393.039 15.9362L394.036 16.7612C394.036 16.5397 394.517 14.8233 394.789 14.8233C394.916 14.8233 395.089 14.8233 395.143 15.1057C395.197 15.3881 394.472 16.7169 394.454 17.7855C394.903 17.525 395.397 17.4024 395.894 17.4286C396.39 17.4548 396.874 17.6289 397.303 17.9358C397.732 18.2426 398.093 18.6729 398.354 19.1891C398.616 19.7053 398.77 20.2917 398.803 20.8972C398.803 23.2171 397.946 23.4774 397.841 23.9591C398.032 23.9591 398.368 24.0698 398.563 24.0975C398.988 24.1608 399.417 24.183 399.846 24.1639C400.535 24.1639 401.057 23.9591 401.352 23.9591L400.975 23.4054C400.85 23.2096 400.742 22.998 400.653 22.7742C400.381 22.0808 400.291 21.3015 400.396 20.5433C400.501 19.7852 400.796 19.0851 401.239 18.5393C401.683 17.9935 402.254 17.6286 402.874 17.4946C403.494 17.3606 404.133 17.4642 404.703 17.791C404.635 17.0602 404.549 17.3204 405.275 16.6837L405.919 16.13C406.375 15.8035 406.787 15.3947 407.143 14.9174C407.298 14.6056 407.383 14.2492 407.388 13.8845C407.394 13.5198 407.32 13.1598 407.175 12.8411C407.033 12.5497 406.832 12.3082 406.59 12.1406C406.349 11.9729 406.076 11.8847 405.798 11.8847C405.521 11.8847 405.248 11.9729 405.007 12.1406C404.765 12.3082 404.564 12.5497 404.422 12.8411C404.349 12.974 404.318 13.0072 404.245 13.1346L403.901 13.7381V13.7436ZM402.776 5.47712C402.776 5.79272 403.683 7.28212 402.912 9.52454C402.539 10.5002 401.897 11.2843 401.098 11.7393C400.336 12.159 399.479 12.2473 398.67 11.9894C397.862 11.7315 397.15 11.1429 396.653 10.3218C395.152 7.87457 396.499 5.42728 396.499 5.30547C396.499 4.99541 396.363 4.95112 396.204 4.95112C396.046 4.95112 395.946 5.18366 395.551 4.51924C395.442 4.31245 395.369 4.08022 395.337 3.83726C395.305 3.59431 395.315 3.34592 395.366 3.10783C395.417 2.86973 395.508 2.64712 395.633 2.45408C395.758 2.26104 395.914 2.10179 396.092 1.9864C396.27 1.87101 396.466 1.802 396.667 1.78374C396.868 1.76548 397.07 1.79836 397.26 1.88032C397.45 1.96227 397.624 2.0915 397.771 2.25982C397.918 2.42815 398.034 2.63191 398.114 2.85819C398.114 2.89695 398.209 3.45063 398.381 3.45063C398.573 3.43209 398.763 3.3913 398.948 3.32882C399.349 3.23198 399.762 3.23198 400.163 3.32882C400.817 3.43956 400.844 3.73855 401.043 2.94125C401.123 2.65133 401.261 2.39103 401.446 2.18519C401.631 1.97934 401.856 1.83481 402.1 1.7654C402.344 1.69599 402.598 1.70402 402.839 1.7887C403.079 1.87338 403.298 2.03191 403.474 2.24914C403.597 2.39681 403.695 2.57155 403.764 2.76407C403.882 3.07698 403.921 3.42534 403.877 3.76526C403.832 4.10518 403.706 4.42146 403.515 4.67427C403.411 4.82336 403.287 4.94895 403.148 5.04524C403.007 5.13937 402.776 5.19474 402.776 5.45497V5.47712ZM394.703 3.35651C394.665 3.82505 394.74 4.29693 394.919 4.71405C395.098 5.13117 395.373 5.47532 395.71 5.70413C395.462 6.42048 395.349 7.1951 395.377 7.97178C395.405 8.74847 395.575 9.50774 395.873 10.1945C396.295 11.1801 396.694 11.3683 396.921 11.778L396.25 12.4369C396.023 12.6529 395.864 12.9574 395.624 13.1567C395.048 12.1047 394.553 11.2133 393.324 11.2133C392.771 11.2334 392.245 11.5073 391.85 11.9804C391.454 12.4534 391.22 13.091 391.193 13.7658C391.193 15.6649 392.2 16.1521 393.46 17.2374L393.878 17.5973C393.878 18.6382 393.619 18.4388 393.193 19.2085C392.837 19.8888 392.669 20.691 392.715 21.4965C392.76 22.3021 393.017 23.0684 393.447 23.6822C395.098 25.9468 397.075 24.5349 397.243 24.5626C397.411 24.5903 397.592 24.6899 397.733 24.7287C397.873 24.7675 398.077 24.8173 398.295 24.8616L399.524 25L400.726 24.8837C401.102 24.827 401.474 24.7326 401.837 24.6014C402.073 24.5183 402.055 24.6013 402.291 24.6955C402.714 24.9105 403.173 25.0033 403.63 24.9668C404.088 24.9303 404.533 24.7655 404.93 24.4851C405.366 24.1827 405.735 23.7547 406.005 23.2384C406.274 22.7221 406.436 22.1332 406.477 21.5229C406.551 20.6914 406.371 19.8558 405.973 19.1752C405.433 18.1731 405.388 18.7987 405.306 17.5973C405.805 17.182 406.272 16.7556 406.785 16.3404C407.336 15.9703 407.745 15.3494 407.923 14.6129C408.06 13.9972 408.013 13.342 407.789 12.7652C407.566 12.1884 407.182 11.7278 406.705 11.4662C406.228 11.2046 405.691 11.1592 405.189 11.3382C404.688 11.5171 404.255 11.9087 403.969 12.4425L403.592 13.1567C403.438 13.1013 403.374 12.9629 403.266 12.8356C402.977 12.4328 402.635 12.0922 402.254 11.8279C402.309 11.5732 402.399 11.6507 402.662 11.3074C403.062 10.7926 403.369 10.1825 403.566 9.51546C403.763 8.84844 403.844 8.13895 403.805 7.43162C403.789 6.83365 403.673 6.246 403.465 5.70413C403.743 5.497 403.974 5.20753 404.136 4.86253C404.4 4.36456 404.511 3.76828 404.448 3.18005C404.386 2.59181 404.154 2.04986 403.794 1.65084C403.435 1.25182 402.971 1.02168 402.485 1.00146C402 0.981233 401.524 1.17224 401.143 1.54043C400.846 1.82548 400.624 2.21041 400.504 2.64779C400.168 2.64779 399.143 2.40417 398.662 2.69762C398.542 2.24696 398.315 1.85004 398.009 1.55704C397.618 1.16923 397.123 0.973109 396.62 1.00689C396.117 1.04067 395.642 1.30193 395.288 1.73975C394.926 2.16296 394.715 2.74432 394.703 3.35651Z" fill="#0F1111" stroke="#0F1111" stroke-width="0.5" stroke-miterlimit="10"/>
<path fill-rule="evenodd" clip-rule="evenodd" d="M444.69 23.8142H444.524C444.566 22.4758 444.867 21.1582 445.41 19.9342C445.651 19.3968 446.757 17.4085 447.294 17.0538L451.293 21.0305C450.655 21.5823 449.964 22.0701 449.231 22.4869C447.849 23.2945 446.29 23.7503 444.69 23.8142ZM443.418 23.8142C443.499 22.3323 443.843 20.8765 444.433 19.5151C444.839 18.6328 445.34 17.7968 445.925 17.0216C446.129 16.769 446.349 16.5325 446.531 16.2692L443.971 13.7327C443.719 13.8993 438.952 18.7251 438.501 19.1765L436.735 20.9768C437.124 21.3899 437.564 21.7511 438.045 22.0516C439.647 23.1092 441.502 23.7179 443.418 23.8142ZM452.055 20.2674C452.302 19.8966 452.822 19.3592 453.128 18.881C453.983 17.5689 454.545 16.0879 454.776 14.5388C454.797 14.1907 454.84 13.8442 454.905 13.5016C453.548 13.5339 452.211 13.8353 450.971 14.3884C450.391 14.6517 448.475 15.7265 448.077 16.2907L452.076 20.2674H452.055ZM435.898 20.2674C435.678 19.945 435.27 19.4936 434.91 18.9562C434.086 17.7294 433.526 16.3438 433.268 14.8881C433.214 14.6033 433.182 14.168 433.118 13.8725C435.865 13.8214 438.514 12.8401 440.632 11.0888C440.761 10.9761 440.895 10.8703 441.035 10.7717L443.209 12.9213L435.898 20.2728V20.2674ZM447.294 15.4846L444.733 12.9481L452.044 5.60198C452.216 5.85455 452.393 6.02114 452.581 6.26297C453.954 8.0146 454.743 10.1538 454.835 12.3785C452.691 12.4834 450.612 13.1566 448.813 14.3292C448.195 14.7215 447.675 15.2374 447.304 15.4846H447.294ZM433.058 12.7654C435.418 12.7551 437.709 11.9697 439.58 10.5299C439.833 10.3472 440.015 10.1591 440.273 9.99247L435.882 5.62347C435.699 5.90291 435.522 6.06413 435.345 6.3382C434.161 7.88403 433.419 9.72297 433.198 11.6584C433.196 12.0332 433.161 12.4071 433.096 12.7762L433.058 12.7654ZM443.982 12.1689L451.282 4.84425C451.056 4.68841 450.858 4.51107 450.632 4.30686C449.735 3.62007 448.738 3.07626 447.675 2.69468C446.783 2.37436 445.854 2.16851 444.91 2.08205C444.891 3.64409 444.559 5.18633 443.934 6.61765C443.539 7.55571 443.023 8.4375 442.398 9.24013L441.797 9.99785L443.982 12.1474V12.1689ZM441.03 9.22401L436.639 4.855C436.902 4.67766 437.084 4.48957 437.337 4.31761L438.448 3.54913C438.598 3.45778 438.695 3.42554 438.85 3.34493C438.977 3.26402 439.107 3.19045 439.242 3.1246C440.498 2.52572 441.858 2.17364 443.246 2.08743C443.552 2.08743 443.611 2.03369 443.853 2.02832C443.816 3.44372 443.521 4.84047 442.983 6.15012C442.574 7.13737 442.017 8.05618 441.33 8.8747C441.212 9.03054 441.121 9.10578 441.03 9.24013V9.22401ZM432.001 12.9374C431.988 13.9067 432.103 14.8736 432.345 15.8124C432.614 16.9066 433.035 17.9576 433.595 18.9347C433.771 19.2514 433.965 19.5582 434.175 19.8536C435.809 22.2055 438.23 23.8942 441 24.6145C443.77 25.3349 446.706 25.0393 449.277 23.7812C451.848 22.5231 453.885 20.3855 455.019 17.7549C456.153 15.1244 456.309 12.1744 455.46 9.43846C454.611 6.70248 452.811 4.36103 450.388 2.83743C447.964 1.31384 445.076 0.708664 442.246 1.13132C439.415 1.55397 436.829 2.97655 434.955 5.14188C433.081 7.3072 432.043 10.0723 432.028 12.9374H432.001Z" fill="#0F1111"/>
<path fill-rule="evenodd" clip-rule="evenodd" d="M489.664 19.1832C489.8 19.1832 490.444 19.4305 490.826 19.5081C493.048 19.9493 494.215 19.222 494.675 19.1832C494.749 19.2926 494.828 19.3978 494.913 19.4984C495.009 19.6196 495.106 19.6729 495.145 19.8232C494.918 19.881 494.696 19.9572 494.482 20.0511C493.216 20.4625 491.864 20.5277 490.565 20.2402C490.337 20.1917 490.105 20.1238 489.858 20.0511C489.611 19.9784 489.446 19.8814 489.195 19.8232C489.233 19.6729 489.335 19.6196 489.427 19.4984C489.512 19.3978 489.591 19.2926 489.664 19.1832ZM493.019 14.6744C493.074 14.7969 493.146 14.9111 493.232 15.0138C493.31 15.1253 493.412 15.2417 493.489 15.3532C493.697 15.2126 493.91 15.0284 494.123 14.8684C494.051 14.5969 493.77 14.4563 493.697 14.1848C493.446 14.3205 493.252 14.4999 493.019 14.6696V14.6744ZM489.408 12.3522C489.408 12.4491 489.935 12.5364 490.173 12.6528C490.197 12.3619 490.381 12.1679 490.386 11.8431C490.139 11.7462 489.882 11.6747 489.621 11.6298C489.534 11.8655 489.462 12.1069 489.408 12.3522ZM493.954 11.8431C493.954 12.1485 494.143 12.3619 494.167 12.6528C494.385 12.5461 494.932 12.4443 494.932 12.3522C494.877 12.1069 494.806 11.8655 494.719 11.6298C494.457 11.6747 494.201 11.7462 493.954 11.8431ZM490.216 14.8635C490.302 14.9766 490.409 15.072 490.531 15.1447C490.639 15.2398 490.761 15.3168 490.894 15.3726C490.967 15.1059 491.247 14.9653 491.32 14.6938C491.122 14.5308 490.908 14.3879 490.681 14.2672C490.498 14.447 490.335 14.647 490.197 14.8635H490.216ZM491.746 10.8638H492.593V10.0541H491.746V10.8638ZM491.785 12.837C491.785 12.7354 491.825 12.638 491.897 12.5662C491.969 12.4943 492.066 12.454 492.167 12.454C492.269 12.454 492.366 12.4943 492.438 12.5662C492.51 12.638 492.55 12.7354 492.55 12.837C492.55 12.9386 492.51 13.036 492.438 13.1078C492.366 13.1796 492.269 13.22 492.167 13.22C492.066 13.22 491.969 13.1796 491.897 13.1078C491.825 13.036 491.785 12.9386 491.785 12.837ZM490.976 12.7061V12.963C490.999 13.2369 491.118 13.4938 491.313 13.6881C491.507 13.8824 491.763 14.0017 492.037 14.0248H492.293C492.566 14.0008 492.822 13.8812 493.016 13.687C493.21 13.4929 493.33 13.2366 493.354 12.963V12.7061C493.33 12.4322 493.211 12.1754 493.017 11.981C492.823 11.7867 492.567 11.6674 492.293 11.6443H492.037C491.763 11.6674 491.507 11.7867 491.313 11.981C491.118 12.1754 490.999 12.4322 490.976 12.7061ZM488.764 2.2001C488.817 2.5928 489.059 2.97096 489.146 3.34911C488.865 3.41214 488.662 3.53819 488.381 3.60122C488.217 3.28124 488.129 2.81582 487.96 2.49584C487.829 2.55886 487.703 2.6025 487.577 2.66553C487.003 2.93784 486.447 3.24715 485.912 3.59152C485.699 3.73697 485.525 3.89211 485.326 4.02786C485.539 4.34784 485.873 4.64358 486.091 4.96355C485.859 5.08476 485.704 5.36595 485.452 5.44837C485.152 5.2496 484.968 4.79387 484.687 4.5951C484.372 4.80842 482.857 6.47134 482.75 6.93676C483.077 7.14485 483.419 7.32954 483.772 7.48946C483.709 7.72217 483.448 7.97428 483.389 8.21184C483.015 8.05285 482.66 7.85285 482.329 7.61551C482.105 8.05813 481.907 8.51295 481.734 8.97784C481.515 9.46405 481.371 9.98058 481.308 10.5099L482.455 10.7232C482.455 10.985 482.334 11.2565 482.329 11.5328C482.131 11.4843 481.937 11.465 481.714 11.4213C481.492 11.3777 481.317 11.3341 481.138 11.3195C481.138 11.5037 481.109 11.7413 481.09 11.9498C481.041 12.5613 481.041 13.1757 481.09 13.7872C481.09 14.0151 481.138 14.1799 481.138 14.3836L482.329 14.1702C482.329 14.4466 482.45 14.7132 482.455 14.975C482.266 15.0187 482.102 15.0526 481.884 15.0865C481.666 15.1205 481.482 15.1738 481.308 15.1884C481.389 15.7029 481.527 16.207 481.719 16.6913L482.286 18.0391C482.397 18.0339 482.504 17.9931 482.591 17.9227C482.836 17.7411 483.104 17.5943 483.389 17.4864C483.448 17.7046 483.709 17.9712 483.772 18.2088C483.419 18.3687 483.077 18.5534 482.75 18.7615C482.852 19.1445 483.811 20.2159 484.164 20.5844C484.329 20.7732 484.51 20.9468 484.706 21.1031C484.832 21.0207 484.823 20.9965 484.915 20.885L485.471 20.2111C485.675 20.3925 485.888 20.5624 486.11 20.7201C485.888 21.0498 485.563 21.3261 485.345 21.6558C485.853 22.0392 486.387 22.3859 486.943 22.6933L487.979 23.1781C488.149 22.8582 488.236 22.3927 488.401 22.0728C488.686 22.1406 488.885 22.2618 489.166 22.3297C489.109 22.5205 489.043 22.7083 488.967 22.8921C488.881 23.079 488.819 23.2762 488.783 23.4787C489.753 23.7572 490.752 23.9199 491.761 23.9635V22.7709H492.608V23.9878C493.616 23.9441 494.616 23.7814 495.586 23.503C495.484 23.1119 495.356 22.7281 495.203 22.354C495.484 22.2861 495.687 22.1649 495.968 22.097C496.133 22.417 496.22 22.8824 496.389 23.2024C496.515 23.1394 496.646 23.0957 496.772 23.0327C496.898 22.9697 496.98 22.9406 497.125 22.8776C497.792 22.5315 498.427 22.1275 499.023 21.6704C498.81 21.3504 498.476 21.0595 498.258 20.7347C498.48 20.577 498.694 20.407 498.897 20.2256C499.12 20.5495 499.376 20.8486 499.662 21.1177C500.435 20.4524 501.09 19.6606 501.599 18.776C501.272 18.5679 500.93 18.3832 500.577 18.2233C500.64 17.9954 500.902 17.7385 500.96 17.5009C501.334 17.6628 501.691 17.8627 502.025 18.0973C502.078 17.8888 503.022 16.1192 503.042 15.1884C502.867 15.1884 502.674 15.1205 502.465 15.0865C502.257 15.0526 502.083 15.0187 501.894 14.975C501.894 14.7132 502.015 14.4466 502.025 14.1702L503.211 14.3836C503.211 14.1993 503.24 13.9569 503.259 13.7484L503.298 12.551C503.298 12.0952 503.211 11.7365 503.211 11.3195C503.022 11.3195 502.8 11.3922 502.601 11.4262C502.403 11.4601 502.209 11.4892 502.025 11.5328C502.025 11.2565 501.899 10.985 501.894 10.7232C502.083 10.6796 502.248 10.6505 502.465 10.6117C502.683 10.5729 502.867 10.5244 503.042 10.5099C503.042 9.79718 502.349 8.24092 502.025 7.60096C501.846 7.72217 501.686 7.79974 501.487 7.9161C501.323 8.02944 501.146 8.12376 500.96 8.19729C500.902 7.97912 500.64 7.71247 500.577 7.47491C500.762 7.40236 500.938 7.30796 501.1 7.19372C501.284 7.09191 501.42 7.01434 501.584 6.92222C501.473 6.50528 500.064 4.87629 499.648 4.58055C499.363 4.85128 499.107 5.15015 498.883 5.47261C498.679 5.29121 498.466 5.12127 498.244 4.96355C498.461 4.64358 498.796 4.34784 499.009 4.02786L497.769 3.18428C497.285 2.89823 496.835 2.73825 496.375 2.49584C496.205 2.81582 496.118 3.28124 495.953 3.60122C495.668 3.53819 495.469 3.41214 495.188 3.34911C495.341 2.97475 495.468 2.59095 495.571 2.2001C494.602 1.91183 493.603 1.73933 492.593 1.68619V2.87885H491.746V1.68619C490.737 1.73933 489.737 1.91183 488.768 2.2001H488.764ZM480.184 12.4103V13.2588C480.254 15.2323 480.815 17.1572 481.816 18.8584C482.162 19.4591 482.564 20.0256 483.017 20.5504L483.699 21.3116C484.44 22.0335 485.262 22.6664 486.149 23.1975C486.474 23.3915 486.75 23.5272 487.093 23.6824C488.549 24.3731 490.131 24.7591 491.741 24.8168C493.645 24.9041 495.541 24.5247 497.266 23.7114C497.587 23.5661 497.9 23.4043 498.205 23.2266C498.653 22.9605 499.087 22.6692 499.502 22.354L499.904 22.0291C499.977 21.971 500.006 21.9322 500.079 21.8691C500.154 21.8166 500.225 21.7582 500.292 21.6946C500.791 21.2277 501.252 20.7219 501.671 20.182C501.788 20.0365 501.865 19.9105 501.972 19.765C502.189 19.4741 502.349 19.2026 502.543 18.8875C502.728 18.5765 502.89 18.2525 503.027 17.9179C503.1 17.7336 503.172 17.6027 503.245 17.4331C503.918 15.8498 504.223 14.1338 504.136 12.4152C504.066 10.4418 503.505 8.51712 502.504 6.81556C502.072 6.06726 501.554 5.37243 500.96 4.74539C500.819 4.60479 500.761 4.50298 500.621 4.36239C500.48 4.22179 500.379 4.16846 500.238 4.02302C498.142 2.0872 495.428 0.960019 492.579 0.842608C490.676 0.750543 488.78 1.13024 487.059 1.94799C486.727 2.0896 486.404 2.25151 486.091 2.43281C484.601 3.30018 483.313 4.47722 482.315 5.88471C480.97 7.79486 480.217 10.0596 480.15 12.3958L480.184 12.4103ZM492.124 16.1531H492.206C492.245 16.2937 492.332 16.3374 492.419 16.4537C492.506 16.5701 492.559 16.6137 492.651 16.7301C492.816 16.9434 492.961 17.1082 493.136 17.3167L494.104 18.4948C493.395 18.7376 492.644 18.8381 491.896 18.7905C491.348 18.7634 490.806 18.6639 490.284 18.4948L491.688 16.7543C491.775 16.6428 491.833 16.5895 491.92 16.478C492.008 16.3665 492.114 16.3034 492.153 16.1531H492.124ZM496.922 16.4101C496.617 15.8283 495.59 14.3884 495.31 13.8551C495.523 13.7533 495.794 13.6757 496.012 13.5836L496.709 13.3024L498.113 12.7497C498.134 13.7633 497.894 14.7651 497.416 15.6586C497.285 15.9246 497.122 16.1737 496.931 16.4004L496.922 16.4101ZM486.217 12.7497L489.02 13.8551L487.427 16.4198C487.05 15.9518 486.76 15.4197 486.57 14.849C486.326 14.1803 486.213 13.4709 486.236 12.7594L486.217 12.7497ZM498.921 12.454C499.167 12.3314 499.423 12.2308 499.686 12.1534C499.686 12.3958 499.73 12.4491 499.73 12.7061C499.755 14.1547 499.36 15.5794 498.592 16.8076C498.383 17.1775 498.122 17.5154 497.818 17.8112C497.188 16.6283 497.333 17.6755 498.302 15.7701C498.761 14.7856 498.994 13.7104 498.984 12.6237L498.941 12.454H498.921ZM486.512 17.8112C486.012 17.2936 485.607 16.6912 485.316 16.0319C484.816 14.9722 484.571 13.8099 484.6 12.6382C484.6 12.4007 484.643 12.3861 484.643 12.1534C484.892 12.2268 485.133 12.3225 485.365 12.4394C485.408 12.5025 485.365 12.6625 485.365 12.8806C485.391 13.6387 485.53 14.3886 485.776 15.1059C485.946 15.5992 486.175 16.0697 486.459 16.5071C487.021 17.4767 487.03 16.8367 486.512 17.8112ZM485.283 9.72931C485.041 10.2285 484.87 10.7588 484.774 11.305L486.144 11.8431C486.512 11.9934 489.756 13.2248 489.882 13.3315C490.177 13.5788 490.003 13.8454 489.882 14.0345L487.069 18.4512C487.243 18.4997 487.999 19.2705 488.43 19.3869L490.7 16.6428C490.875 16.4149 491.896 15.0914 492.085 15.0914C492.497 15.0914 492.414 15.1835 492.777 15.5762C493.14 15.9689 495.765 19.2754 495.91 19.3723C496.341 19.256 497.096 18.4851 497.27 18.4366C497.154 18.2185 497.009 18.0439 496.888 17.8403C496.767 17.6367 496.646 17.4525 496.51 17.2391L495 14.8781C494.859 14.6696 494.758 14.4951 494.617 14.2866C494.414 13.9763 494.08 13.5836 494.477 13.317L498.897 11.5765C499.12 11.4892 499.381 11.4019 499.565 11.3098C499.466 10.764 499.293 10.234 499.052 9.73416L496.35 10.4323L495 10.7814C494.148 10.9947 493.354 11.431 493.315 10.6262L493.232 9.0942C493.232 8.89058 493.199 8.90028 493.189 8.7112C493.179 8.52212 493.189 8.45424 493.189 8.32819C493.189 8.20214 493.15 8.15365 493.145 7.95003C493.121 7.01918 493.019 6.15136 493.019 5.30778C492.695 5.30778 492.535 5.26899 492.211 5.26899L491.32 5.30778L491.276 6.50042C491.276 6.68466 491.243 6.65557 491.233 6.8398C491.223 7.02403 491.233 7.12584 491.233 7.26644C491.233 7.40703 491.199 7.41189 491.189 7.60581C491.199 7.74625 491.199 7.88717 491.189 8.0276L491.03 10.6699C491.03 10.8929 490.889 11.0965 490.647 11.0965C490.405 11.0965 487.151 10.2044 486.619 10.0638L485.292 9.73416L485.283 9.72931ZM493.949 7.13554C494.133 7.22281 494.491 7.31977 494.883 7.51854C495.168 7.65606 495.44 7.81828 495.697 8.00336C495.973 8.20214 496.927 9.06027 497.009 9.37055L494.104 10.1366C494.082 10.0245 494.068 9.91113 494.06 9.79718C494.036 8.82755 493.935 8.01791 493.935 7.11615L493.949 7.13554ZM490.211 10.156L488.759 9.77779C488.522 9.70507 488.304 9.65659 488.052 9.59356C487.907 9.55478 487.442 9.44812 487.321 9.38994C487.382 9.24779 487.473 9.12046 487.587 9.01663C488.195 8.26245 488.987 7.67803 489.887 7.31977C490.056 7.2422 490.231 7.20826 490.371 7.13554C490.371 7.86277 490.269 9.35115 490.202 10.156H490.211ZM493.823 5.47261C494.574 5.47261 496.128 6.35499 496.665 6.75738C497.06 7.04443 497.427 7.36916 497.759 7.72702C498.1 8.09362 498.39 8.50456 498.621 8.94875C498.373 9.04176 498.117 9.11314 497.856 9.16207C497.827 9.04087 497.774 9.00693 497.696 8.89542C497.285 8.30936 496.781 7.79368 496.205 7.36825C495.721 6.99979 494.443 6.28226 493.867 6.26771L493.823 5.45807V5.47261ZM490.463 5.95743V6.2968C489.877 6.2968 488.618 7.03373 488.12 7.39734C487.639 7.76301 487.205 8.18635 486.827 8.65787L486.474 9.19116C486.213 9.14222 485.957 9.07085 485.709 8.97784C485.935 8.54317 486.219 8.1405 486.551 7.78035C487.403 6.84487 488.473 6.13389 489.664 5.71018C489.936 5.60362 490.218 5.52878 490.507 5.48716C490.507 5.70533 490.463 5.71987 490.463 5.97198V5.95743ZM483.796 12.5946C483.743 13.899 484.007 15.1968 484.566 16.3762C484.772 16.8302 485.024 17.2623 485.316 17.6658C485.589 18.0669 485.902 18.4389 486.251 18.776C487.751 20.2935 489.779 21.1724 491.911 21.2292C493.213 21.2827 494.509 21.0182 495.687 20.4583C496.467 20.0795 497.188 19.5896 497.827 19.0039L498.549 18.2379C498.712 18.0579 498.862 17.8668 498.999 17.6658C500.062 16.1856 500.603 14.3925 500.534 12.5703C500.523 11.9765 500.443 11.3859 500.296 10.8105C499.81 8.85221 498.641 7.1326 496.999 5.96229C495.521 4.89693 493.73 4.35605 491.911 4.42541C490.492 4.47359 489.108 4.87964 487.888 5.60595C486.667 6.33226 485.65 7.35531 484.929 8.5803L484.445 9.60326C484.392 9.72931 484.353 9.84082 484.305 9.97172C483.996 10.8112 483.826 11.6955 483.801 12.5897L483.796 12.5946Z" fill="#0F1111"/>
<path fill-rule="evenodd" clip-rule="evenodd" d="M540.301 18.8997C540.813 18.9484 541.309 19.0708 541.762 19.2606C541.973 19.3408 542.17 19.4408 542.349 19.5583L542.655 19.7657C544.122 20.8527 543.911 22.0706 543.911 23.5365H540.254V18.8997H540.301ZM549.499 24.0371C549.192 24.0343 548.897 23.9458 548.67 23.7881C548.442 23.6304 548.296 23.4142 548.261 23.1801C548.245 23.0605 548.261 22.9398 548.307 22.825C548.354 22.7102 548.429 22.6036 548.53 22.5116C548.631 22.4196 548.754 22.3439 548.893 22.2891C549.033 22.2343 549.185 22.2014 549.341 22.1923C549.531 22.1696 549.725 22.1841 549.906 22.2345C550.086 22.285 550.247 22.3698 550.374 22.481C550.573 22.6657 550.677 22.8999 550.667 23.1395C550.653 23.3752 550.525 23.5984 550.308 23.7652C550.09 23.9321 549.8 24.0306 549.493 24.0416L549.499 24.0371ZM529.271 21.2181H535.387V22.1202H529.271V21.2181ZM531.73 19.7342C531.73 19.2831 532.088 19.3327 532.511 19.3327C533.098 19.3327 532.934 19.7838 532.934 20.2348H531.76V19.7161L531.73 19.7342ZM547.668 15.1155H548.871V16.9602H547.668V15.1155ZM546.417 14.5923C546.417 14.4726 546.479 14.3579 546.589 14.2733C546.699 14.1887 546.849 14.1412 547.004 14.1412H548.889V13.2391H545.02C543.778 13.2462 542.589 13.6286 541.71 14.3038C540.831 14.979 540.333 15.8927 540.324 16.8475V17.93C541.35 17.9978 542.329 18.2923 543.142 18.7779C543.88 19.2323 544.46 19.8195 544.832 20.4874C545.343 21.3895 545.237 22.5306 545.237 23.55H547.116C546.822 23.0989 547.175 22.269 547.603 21.8766C547.943 21.5767 548.393 21.3629 548.895 21.2632V17.93H546.963C546.812 17.9174 546.672 17.86 546.575 17.77C546.477 17.6799 546.429 17.5642 546.441 17.4474V14.5968L546.417 14.5923ZM547.668 10.8982H548.842V12.2513H547.668V10.8982ZM531.73 18.4171C531.378 18.5479 531.102 18.584 530.862 18.8321C530.392 19.3192 530.474 19.6394 530.474 20.2619H528.649C528.208 20.2619 528.021 20.5731 528.021 20.9069C528.021 21.3579 527.921 22.6705 528.161 22.923C528.222 22.9783 528.296 23.0236 528.38 23.0562C528.463 23.0888 528.555 23.1079 528.649 23.1125H535.963C536.053 23.1171 536.144 23.1068 536.229 23.0824C536.314 23.0581 536.391 23.0201 536.455 22.971C536.52 22.922 536.57 22.863 536.602 22.798C536.635 22.7329 536.649 22.6633 536.644 22.5938V20.767C536.631 20.6422 536.561 20.5248 536.446 20.4362C536.331 20.3477 536.178 20.2938 536.016 20.2844H534.184C534.184 19.6845 534.284 19.2696 533.779 18.8321C533.675 18.737 533.552 18.6548 533.415 18.5885C533.335 18.5549 533.253 18.5247 533.169 18.4983C533.045 18.4577 532.987 18.4983 532.987 18.3585V11.1463C533.041 10.5785 533.317 10.0364 533.779 9.5913C534.241 9.14617 534.867 8.81875 535.575 8.65201C536.444 8.45806 536.785 8.65201 538.123 8.36334C538.808 8.18766 539.435 7.89988 539.961 7.51987C540.487 7.13985 540.899 6.67665 541.169 6.16225C541.845 4.80912 541.169 3.86643 542.085 2.93277C542.293 2.71933 542.542 2.53214 542.825 2.37799C542.973 2.29903 543.13 2.23107 543.294 2.17502C543.756 2.01106 544.263 1.9388 544.771 1.96485C545.278 1.9909 545.768 2.11443 546.197 2.32411C546.626 2.53379 546.98 2.82289 547.225 3.16488C547.471 3.50687 547.601 3.89079 547.603 4.28139V9.94199C546.136 9.94199 546.429 9.86081 546.429 12.2739H545.067C544.277 12.2709 543.493 12.3883 542.762 12.6194C542.031 12.8504 541.367 13.1905 540.808 13.62C540.249 14.0495 539.807 14.5598 539.506 15.1216C539.205 15.6833 539.052 16.2852 539.056 16.8926V23.9965C539.056 24.6911 539.995 24.5197 541.305 24.5197H547.175C548.214 24.5197 547.627 24.4837 548.349 24.7633C548.9 24.9979 549.547 25.061 550.157 24.9396C550.767 24.8181 551.294 24.5214 551.627 24.1105C551.961 23.6997 552.076 23.2062 551.95 22.7317C551.824 22.2573 551.466 21.8382 550.949 21.5609C550.706 21.4444 550.448 21.3462 550.18 21.2677V15.4041C550.18 14.4524 550.221 13.397 550.127 12.5129C550.074 11.9897 550.174 10.587 550.127 10.3073C550.051 9.85629 549.393 9.94199 548.953 9.94199V4.2002C548.93 3.65897 548.734 3.13043 548.383 2.66092C548.031 2.19141 547.536 1.79526 546.939 1.50721C546.342 1.21916 545.662 1.04799 544.959 1.00872C544.257 0.969445 543.552 1.06327 542.907 1.28195C542.18 1.54712 541.555 1.95275 541.093 2.45918C539.643 4.10098 541.252 5.42253 539.091 6.90196C538.672 7.17405 538.178 7.37122 537.647 7.47929C536.344 7.73188 534.789 7.32143 532.899 8.97225C532.118 9.69268 531.729 10.6169 531.813 11.5522L531.73 18.4171Z" fill="#0F1111"/>
</svg>
