<svg width="32" height="32" viewBox="0 0 32 32" fill="none" xmlns="http://www.w3.org/2000/svg">
<path fill-rule="evenodd" clip-rule="evenodd" d="M17.3333 25.3333H23.3333V20H17.3333V25.3333ZM8.66667 25.3333H14.6667V20H8.66667V25.3333ZM6.66667 12.2667C6.66667 12.156 6.684 12.0667 6.70133 12H10.8573H14.6667V17.3333H6.70133C6.684 17.2667 6.66667 17.1773 6.66667 17.0667V12.2667ZM9.33333 8C9.33333 7.264 10.0173 6.66667 10.8573 6.66667C12.5333 6.66667 13.56 8.12 14.1253 9.33333H10.8573C10.0173 9.33333 9.33333 8.736 9.33333 8ZM21.1427 6.66667C21.9827 6.66667 22.6667 7.264 22.6667 8C22.6667 8.736 21.9827 9.33333 21.1427 9.33333H17.8667C18.4267 8.12 19.4507 6.66667 21.1427 6.66667ZM25.3333 12.2667V17.0667C25.3333 17.1773 25.316 17.2667 25.2987 17.3333H17.3333V12H21.1427H25.2987C25.316 12.0667 25.3333 12.156 25.3333 12.2667ZM25.6 9.33333H25.076C25.2333 8.91467 25.3333 8.47067 25.3333 8C25.3333 5.79467 23.4533 4 21.1427 4C18.58 4 16.972 5.59867 16 7.196C15.028 5.59867 13.42 4 10.8573 4C8.54667 4 6.66667 5.79467 6.66667 8C6.66667 8.47067 6.768 8.91467 6.924 9.33333H6.4C5.05467 9.33333 4 10.6227 4 12.2667V17.0667C4 18.5427 4.85333 19.724 6 19.952V25.7773C6 27.0027 7.084 28 8.416 28H23.5827C24.916 28 26 27.0027 26 25.7773V19.952C27.1467 19.724 28 18.5427 28 17.0667V12.2667C28 10.6227 26.9453 9.33333 25.6 9.33333Z" fill="white"/>
<mask id="mask0_6636_20409" style="mask-type:luminance" maskUnits="userSpaceOnUse" x="4" y="4" width="24" height="24">
<path fill-rule="evenodd" clip-rule="evenodd" d="M17.3333 25.3333H23.3333V20H17.3333V25.3333ZM8.66667 25.3333H14.6667V20H8.66667V25.3333ZM6.66667 12.2667C6.66667 12.156 6.684 12.0667 6.70133 12H10.8573H14.6667V17.3333H6.70133C6.684 17.2667 6.66667 17.1773 6.66667 17.0667V12.2667ZM9.33333 8C9.33333 7.264 10.0173 6.66667 10.8573 6.66667C12.5333 6.66667 13.56 8.12 14.1253 9.33333H10.8573C10.0173 9.33333 9.33333 8.736 9.33333 8ZM21.1427 6.66667C21.9827 6.66667 22.6667 7.264 22.6667 8C22.6667 8.736 21.9827 9.33333 21.1427 9.33333H17.8667C18.4267 8.12 19.4507 6.66667 21.1427 6.66667ZM25.3333 12.2667V17.0667C25.3333 17.1773 25.316 17.2667 25.2987 17.3333H17.3333V12H21.1427H25.2987C25.316 12.0667 25.3333 12.156 25.3333 12.2667ZM25.6 9.33333H25.076C25.2333 8.91467 25.3333 8.47067 25.3333 8C25.3333 5.79467 23.4533 4 21.1427 4C18.58 4 16.972 5.59867 16 7.196C15.028 5.59867 13.42 4 10.8573 4C8.54667 4 6.66667 5.79467 6.66667 8C6.66667 8.47067 6.768 8.91467 6.924 9.33333H6.4C5.05467 9.33333 4 10.6227 4 12.2667V17.0667C4 18.5427 4.85333 19.724 6 19.952V25.7773C6 27.0027 7.084 28 8.416 28H23.5827C24.916 28 26 27.0027 26 25.7773V19.952C27.1467 19.724 28 18.5427 28 17.0667V12.2667C28 10.6227 26.9453 9.33333 25.6 9.33333Z" fill="white"/>
</mask>
<g mask="url(#mask0_6636_20409)">
<rect width="32" height="32" fill="white"/>
</g>
</svg>
