<svg width="23" height="22" viewBox="0 0 23 22" fill="none" xmlns="http://www.w3.org/2000/svg">
<path d="M21.1261 11.2139C21.1261 10.4225 21.0605 9.84497 20.9187 9.24609H11.6975V12.818H17.1102C17.0011 13.7057 16.4118 15.0425 15.1022 15.9408L15.0839 16.0603L17.9995 18.2738L18.2015 18.2936C20.0566 16.6145 21.1261 14.1441 21.1261 11.2139Z" fill="#4285F4"/>
<path d="M11.6969 20.625C14.3486 20.625 16.5748 19.7694 18.2008 18.2936L15.1016 15.9408C14.2723 16.5076 13.1592 16.9033 11.6969 16.9033C9.0997 16.9033 6.89536 15.2243 6.10957 12.9036L5.9944 12.9131L2.96274 15.2125L2.9231 15.3205C4.53815 18.4647 7.85561 20.625 11.6969 20.625Z" fill="#34A853"/>
<path d="M6.11006 12.9036C5.90272 12.3047 5.78273 11.663 5.78273 11C5.78273 10.3369 5.90272 9.69524 6.09915 9.09636L6.09366 8.96881L3.024 6.63257L2.92357 6.67938C2.25792 7.98412 1.87598 9.44929 1.87598 11C1.87598 12.5507 2.25792 14.0158 2.92357 15.3205L6.11006 12.9036Z" fill="#FBBC05"/>
<path d="M11.6969 5.09664C13.5412 5.09664 14.7852 5.87733 15.4945 6.52974L18.2664 3.8775C16.564 2.32681 14.3487 1.375 11.6969 1.375C7.85564 1.375 4.53816 3.53526 2.9231 6.6794L6.09868 9.09638C6.89538 6.77569 9.09974 5.09664 11.6969 5.09664Z" fill="#EB4335"/>
</svg>
