<svg width="67" height="71" viewBox="0 0 67 71" fill="none" xmlns="http://www.w3.org/2000/svg">
<path fill-rule="evenodd" clip-rule="evenodd" d="M45.6187 25.6318C45.6187 29.0308 44.337 32.2906 42.0557 34.694C39.7743 37.0975 36.6802 38.4477 33.4539 38.4477C30.2276 38.4477 27.1334 37.0975 24.8521 34.694C22.5707 32.2906 21.2891 29.0308 21.2891 25.6318C21.2891 22.2328 22.5707 18.973 24.8521 16.5696C27.1334 14.1662 30.2276 12.8159 33.4539 12.8159C36.6802 12.8159 39.7743 14.1662 42.0557 16.5696C44.337 18.973 45.6187 22.2328 45.6187 25.6318ZM39.5363 25.6318C39.5363 27.3313 38.8954 28.9612 37.7548 30.1629C36.6141 31.3646 35.067 32.0397 33.4539 32.0397C31.8407 32.0397 30.2936 31.3646 29.153 30.1629C28.0123 28.9612 27.3715 27.3313 27.3715 25.6318C27.3715 23.9323 28.0123 22.3024 29.153 21.1007C30.2936 19.899 31.8407 19.2239 33.4539 19.2239C35.067 19.2239 36.6141 19.899 37.7548 21.1007C38.8954 22.3024 39.5363 23.9323 39.5363 25.6318Z" fill="#313133"/>
<path fill-rule="evenodd" clip-rule="evenodd" d="M33.4532 0C14.9779 0 0 15.7796 0 35.2437C0 54.7078 14.9779 70.4874 33.4532 70.4874C51.9285 70.4874 66.9064 54.7078 66.9064 35.2437C66.9064 15.7796 51.9285 0 33.4532 0ZM6.0824 35.2437C6.0824 41.94 8.25078 48.1044 11.885 53.0001C14.4373 49.469 17.7299 46.6074 21.5056 44.6387C25.2814 42.6701 29.438 41.6478 33.6509 41.6516C37.8092 41.6475 41.9136 42.6433 45.6513 44.5633C49.3889 46.4834 52.6613 49.2768 55.2191 52.731C57.8541 49.09 59.6283 44.8403 60.3949 40.3335C61.1614 35.8267 60.8983 31.1924 59.6273 26.814C58.3563 22.4356 56.1139 18.439 53.0856 15.1549C50.0574 11.8708 46.3304 9.3936 42.213 7.92826C38.0956 6.46292 33.7062 6.05157 29.408 6.72825C25.1097 7.40494 21.0262 9.1502 17.4953 11.8196C13.9644 14.4891 11.0876 18.0059 9.10301 22.0792C7.11838 26.1525 6.08295 30.6651 6.0824 35.2437ZM33.4532 64.0794C27.1699 64.0894 21.0763 61.8121 16.2035 57.633C18.1649 54.6749 20.7755 52.2597 23.8132 50.5929C26.8509 48.9261 30.2259 48.057 33.6509 48.0596C37.0332 48.0567 40.3673 48.9041 43.3764 50.5312C46.3855 52.1583 48.9827 54.5183 50.9523 57.4152C46.0417 61.73 39.8476 64.0889 33.4532 64.0794Z" fill="#313133"/>
</svg>
