<svg width="48" height="48" viewBox="0 0 48 48" fill="none" xmlns="http://www.w3.org/2000/svg">
<path fill-rule="evenodd" clip-rule="evenodd" d="M8.08664 23.9771C9.22451 27.2658 13.6674 34 24.0006 34C34.4855 34 38.8572 27.6712 39.9284 24.0202C38.8369 20.5655 34.4212 14 24.0006 14C13.6232 14 9.20106 20.5112 8.08664 23.9771ZM4.06036 23.5149C5.23814 18.8038 10.9103 10 24.0006 10C37.091 10 42.7631 18.8038 43.9409 23.5149L44.0575 23.9813L43.9494 24.4497C42.7678 29.5703 37.05 38 24.0006 38C10.8414 38 5.24168 28.8183 4.07112 24.5262L3.93359 24.022L4.06036 23.5149Z" fill="#313133"/>
<path fill-rule="evenodd" clip-rule="evenodd" d="M24.0006 22C22.8961 22 22.0006 22.8954 22.0006 24C22.0006 25.1046 22.8961 26 24.0006 26C25.1052 26 26.0006 25.1046 26.0006 24C26.0006 22.8954 25.1052 22 24.0006 22ZM18.0006 24C18.0006 20.6863 20.6869 18 24.0006 18C27.3144 18 30.0006 20.6863 30.0006 24C30.0006 27.3137 27.3144 30 24.0006 30C20.6869 30 18.0006 27.3137 18.0006 24Z" fill="#313133"/>
</svg>
