<svg width="32" height="32" viewBox="0 0 32 32" fill="none" xmlns="http://www.w3.org/2000/svg">
<path d="M22.6052 12.4977V9.93305V9.54968L22.2219 9.55098L19.6572 9.56008L19.667 12.5074L22.6052 12.4977Z" fill="white"/>
<path d="M15.9205 19.3047C17.6086 19.3047 18.9828 17.9318 18.9828 16.2437C18.9828 15.5776 18.7658 14.9604 18.4026 14.4581C17.847 13.6874 16.9419 13.1813 15.9205 13.1813C14.899 13.1813 13.9952 13.6874 13.4383 14.4581C13.0751 14.9604 12.8594 15.5776 12.8594 16.2437C12.8594 17.9318 14.2323 19.3047 15.9205 19.3047Z" fill="white"/>
<path d="M16.0007 0C7.16374 0 0 7.16244 0 15.9994C0 24.8363 7.16374 32 16.0007 32C24.8363 32 32 24.8363 32 15.9994C32 7.16244 24.8356 0 16.0007 0ZM24.6186 14.4581V21.5802C24.6186 23.4334 23.1098 24.9409 21.2567 24.9409H10.5841C8.73034 24.9409 7.22287 23.4334 7.22287 21.5802V14.4581V10.9077C7.22287 9.05393 8.73034 7.54646 10.5841 7.54646H21.2567C23.1098 7.54646 24.6186 9.05393 24.6186 10.9077V14.4581Z" fill="white"/>
<path d="M20.6769 16.2437C20.6769 18.8655 18.5437 21 15.9206 21C13.2974 21 11.1655 18.8655 11.1655 16.2437C11.1655 15.6115 11.2909 15.0104 11.5145 14.4581H8.91797V21.5803C8.91797 22.4991 9.66521 23.2463 10.584 23.2463H21.2565C22.1753 23.2463 22.9225 22.4991 22.9225 21.5803V14.4581H20.3247C20.5502 15.0104 20.6769 15.6121 20.6769 16.2437Z" fill="white"/>
</svg>
