<svg width="60" height="60" viewBox="0 0 60 60" fill="none" xmlns="http://www.w3.org/2000/svg">
<path d="M30.1526 56.9436C44.5448 56.9436 56.2119 44.7568 56.2119 29.7237C56.2119 14.6906 44.5448 2.50391 30.1526 2.50391C15.7604 2.50391 4.09326 14.6906 4.09326 29.7237C4.09326 44.7568 15.7604 56.9436 30.1526 56.9436Z" fill="url(#paint0_linear_6636_20302)"/>
<path fill-rule="evenodd" clip-rule="evenodd" d="M30.1529 3.0963C16.1118 3.0963 4.68566 14.9934 4.68566 29.724C4.68566 44.4547 16.1118 56.3518 30.1529 56.3518C44.194 56.3518 55.6201 44.4547 55.6201 29.724C55.6201 14.9934 44.194 3.0963 30.1529 3.0963ZM3.50146 29.724C3.50146 14.3885 15.4097 1.91211 30.1529 1.91211C44.8961 1.91211 56.8043 14.3885 56.8043 29.724C56.8043 45.0596 44.8961 57.536 30.1529 57.536C15.4097 57.536 3.50146 45.0596 3.50146 29.724Z" fill="#EEC643"/>
<path d="M43.489 11.8877C41.914 10.758 38.7901 11.8664 36.7344 12.873L44.3108 20.0089C45.4263 14.313 44.3108 12.4775 43.489 11.8877Z" fill="#09618E"/>
<path d="M59.7789 26.3894C57.7847 9.94334 42.8355 -1.77306 26.3894 0.221121C9.94334 2.2153 -1.77306 17.1645 0.221121 33.6106C2.2153 50.0567 17.1645 61.7731 33.6106 59.7789C50.0567 57.7847 61.7731 42.8355 59.7789 26.3894ZM35.8227 48.3988L34.9629 47.4088L52.0082 29.0515L50.8548 28.2675L30.3541 46.658L30.3138 46.5917L31.1996 42.9894L29.8093 41.4713L30.2783 37.1798L30.6241 36.9713L30.752 34.0653L31.3843 33.1796L34.9724 33.6343L31.7846 32.263L31.9219 31.7088L35.034 31.0054L31.6425 30.4654L31.4885 30.1338L34.1909 27.2728L30.598 29.3404L29.9775 28.8786L30.2404 25.4184L28.8691 28.6062L27.692 28.6109L25.6031 25.1578L26.3799 29.1675L26.0341 29.3759L24.5089 28.412L25.5913 21.6266L26.8323 20.17L26.6191 18.6495L26.8915 17.5411L26.5694 17.463L26.7494 16.9206L27.6446 15.6725L28.052 15.7719L28.0591 15.1869L28.6133 15.3243L28.817 14.493L28.4523 14.403L28.6086 14.1472L27.2941 13.8228L27.4954 12.6978L26.0578 12.3449L25.8376 13.4651L24.4521 13.1241L24.3834 13.4012L24.1063 13.3325L23.9381 14.0122L24.1773 14.2325L24.04 14.7867L24.8713 14.9904L24.9471 17.0651L24.3929 16.9277L24.1205 18.0361L23.571 19.0758L23.6468 21.1505L20.7787 31.6093L18.2303 34.8019L18.2114 41.4973L6.23682 27.9312L28.6157 5.22789L34.5485 10.8149C36.6445 9.64729 41.8313 7.21733 45.1375 9.58334C47.7901 11.4804 48.3064 15.6346 46.7196 22.2779L53.3345 28.5067L35.825 48.4012L35.8227 48.3988Z" fill="#09618E"/>
<path fill-rule="evenodd" clip-rule="evenodd" d="M30.001 3.38732C15.9599 3.38732 4.5338 15.2844 4.5338 30.0151C4.5338 44.7457 15.9599 56.6428 30.001 56.6428C44.0422 56.6428 55.4683 44.7457 55.4683 30.0151C55.4683 15.2844 44.0422 3.38732 30.001 3.38732ZM3.34961 30.0151C3.34961 14.6795 15.2578 2.20312 30.001 2.20312C44.7443 2.20312 56.6525 14.6795 56.6525 30.0151C56.6525 45.3506 44.7443 57.827 30.001 57.827C15.2578 57.827 3.34961 45.3506 3.34961 30.0151Z" fill="#EEC643"/>
<defs>
<linearGradient id="paint0_linear_6636_20302" x1="30.2308" y1="2.50391" x2="30.0721" y2="56.946" gradientUnits="userSpaceOnUse">
<stop stop-color="#F2D994"/>
<stop offset="0.08" stop-color="#F0D277"/>
<stop offset="0.17" stop-color="#EFCC60"/>
<stop offset="0.26" stop-color="#EEC94F"/>
<stop offset="0.36" stop-color="#EEC646"/>
<stop offset="0.5" stop-color="#EEC643"/>
</linearGradient>
</defs>
</svg>
