<svg width="36" height="40" viewBox="0 0 36 40" fill="none" xmlns="http://www.w3.org/2000/svg">
<g id="material-symbols:arrow-back-ios-rounded">
<path id="Vector" d="M22.3123 35.1666L34.9498 21.1666C35.0998 20.9999 35.2063 20.8194 35.2693 20.6249C35.3323 20.4305 35.3633 20.2221 35.3623 19.9999C35.3623 19.7777 35.3308 19.5694 35.2678 19.3749C35.2048 19.1805 35.0988 18.9999 34.9498 18.8333L22.3123 4.79159C21.9623 4.4027 21.5248 4.20825 20.9998 4.20825C20.4748 4.20825 20.0248 4.41659 19.6498 4.83325C19.2748 5.24992 19.0873 5.73603 19.0873 6.29159C19.0873 6.84714 19.2748 7.33325 19.6498 7.74992L30.6748 19.9999L19.6498 32.2499C19.2998 32.6388 19.1248 33.1182 19.1248 33.6883C19.1248 34.2583 19.3123 34.751 19.6873 35.1666C20.0623 35.5833 20.4998 35.7916 20.9998 35.7916C21.4998 35.7916 21.9373 35.5833 22.3123 35.1666Z" fill="#0F1111"/>
</g>
</svg>
