<svg width="46" height="48" viewBox="0 0 46 48" fill="none" xmlns="http://www.w3.org/2000/svg">
<path d="M30.7871 13.6404H14.3551C14.3551 13.6404 14.3551 13.6404 14.3415 13.6404H11.8522C10.1247 13.6404 8.72363 15.1095 8.72363 16.9209V28.8306C8.72363 30.642 10.1247 32.1111 11.8522 32.1111H14.3415H30.7871H33.2764C35.004 32.1111 36.405 30.642 36.405 28.8306V16.9209C36.405 15.1095 35.004 13.6404 33.2764 13.6404H30.7871ZM34.3646 20.1871V25.5501C32.0114 25.6642 30.0934 27.5469 29.7941 29.9574H15.3345C15.0353 27.5469 13.1173 25.6642 10.764 25.5501V20.1871C13.1173 20.073 15.0353 18.1903 15.3345 15.7798H29.7941C30.0934 18.1903 32.0114 20.073 34.3646 20.1871ZM11.8522 15.7798H13.2669C12.9949 17.0065 11.9883 17.9336 10.764 18.0477V16.9209C10.764 16.2933 11.2537 15.7798 11.8522 15.7798ZM10.764 28.8163V27.6895C11.9883 27.7894 12.9949 28.7307 13.2669 29.9574H11.8522C11.2537 29.9574 10.764 29.4439 10.764 28.8163ZM33.29 29.9574H31.8753C32.1474 28.7307 33.154 27.8036 34.3782 27.6895V28.8163C34.3646 29.4439 33.8885 29.9574 33.29 29.9574ZM34.3646 16.9066V18.0334C33.1404 17.9336 32.1338 16.9922 31.8617 15.7656H33.2764C33.8885 15.7798 34.3646 16.2933 34.3646 16.9066Z" fill="black"/>
<path d="M22.5711 27.5326C25.0196 27.5326 27.0192 25.436 27.0192 22.8686C27.0192 20.3013 25.0196 18.2046 22.5711 18.2046C20.1226 18.2046 18.123 20.3013 18.123 22.8686C18.123 25.436 20.109 27.5326 22.5711 27.5326ZM22.5711 20.3441C23.9042 20.3441 24.9788 21.4708 24.9788 22.8686C24.9788 24.2664 23.9042 25.3932 22.5711 25.3932C21.2381 25.3932 20.1634 24.2664 20.1634 22.8686C20.1634 21.4708 21.2381 20.3441 22.5711 20.3441Z" fill="black"/>
<path d="M23.0203 48C29.1279 48 34.8682 45.504 39.1938 40.9683C43.2066 36.7607 45.5735 31.1696 45.8591 25.2219C45.8863 24.6371 45.4511 24.1236 44.8933 24.0951C44.3356 24.0665 43.8459 24.523 43.8187 25.1078C43.5603 30.5135 41.3975 35.6054 37.7384 39.4422C33.8072 43.5642 28.5702 45.8463 23.0067 45.8463C17.4432 45.8463 12.2062 43.5784 8.27501 39.4422C0.154226 30.9271 0.154226 17.0634 8.27501 8.54831C15.1988 1.2884 25.9721 0.0760376 34.1609 5.5388L31.862 8.49126L38.4593 7.79237L37.7928 0.874771L35.4667 3.87002C26.4482 -2.29163 14.4914 -0.993694 6.83313 7.03642C-2.09021 16.393 -2.09021 31.5975 6.83313 40.954C11.1724 45.504 16.9127 48 23.0203 48Z" fill="black"/>
</svg>
