<svg width="24" height="28" viewBox="0 0 24 28" fill="none" xmlns="http://www.w3.org/2000/svg">
<g id="material-symbols:arrow-back-ios-rounded">
<path id="Vector" d="M14.8752 24.6167L23.3002 14.8167C23.4002 14.7 23.4712 14.5736 23.5132 14.4375C23.5552 14.3014 23.5758 14.1556 23.5752 14C23.5752 13.8444 23.5542 13.6986 23.5122 13.5625C23.4702 13.4264 23.3995 13.3 23.3002 13.1833L14.8752 3.35416C14.6418 3.08194 14.3502 2.94583 14.0002 2.94583C13.6502 2.94583 13.3502 3.09166 13.1002 3.38333C12.8502 3.675 12.7252 4.01528 12.7252 4.40416C12.7252 4.79305 12.8502 5.13333 13.1002 5.425L20.4502 14L13.1002 22.575C12.8668 22.8472 12.7502 23.1828 12.7502 23.5818C12.7502 23.9808 12.8752 24.3258 13.1252 24.6167C13.3752 24.9083 13.6668 25.0542 14.0002 25.0542C14.3335 25.0542 14.6252 24.9083 14.8752 24.6167Z" fill="#7A7A7A"/>
</g>
</svg>
