<svg width="181" height="181" viewBox="0 0 181 181" fill="none" xmlns="http://www.w3.org/2000/svg">
<path id="Mask" fill-rule="evenodd" clip-rule="evenodd" d="M114.954 57.9004L80.7403 102.828L65.9753 83.9676C62.9011 80.0254 57.2049 79.3382 53.2808 82.4214C49.3477 85.4956 48.6515 91.1828 51.7347 95.1069L73.715 123.199C75.4329 125.387 78.055 126.662 80.8398 126.662H80.9031C83.697 126.653 86.3371 125.333 88.0279 123.1L129.339 68.8499C132.368 64.8716 131.6 59.2115 127.621 56.1825C123.634 53.1536 117.974 53.9311 114.954 57.9004ZM90.4999 162.833C50.6171 162.833 18.1666 130.383 18.1666 90.5002C18.1666 50.6174 50.6171 18.1668 90.4999 18.1668C130.383 18.1668 162.833 50.6174 162.833 90.5002C162.833 130.383 130.383 162.833 90.4999 162.833ZM90.4999 0.0834961C40.5628 0.0834961 0.083252 40.5721 0.083252 90.5002C0.083252 140.428 40.5628 180.917 90.4999 180.917C140.437 180.917 180.917 140.428 180.917 90.5002C180.917 40.5721 140.437 0.0834961 90.4999 0.0834961Z" fill="#2284B6"/>
</svg>
