<svg width="48" height="48" viewBox="0 0 48 48" fill="none" xmlns="http://www.w3.org/2000/svg">
<path d="M24 48L20.52 44.5995C16.48 40.6322 13.14 37.2098 10.5 34.3324C7.86 31.455 5.76 28.8715 4.2 26.5818C2.64 24.2938 1.5504 22.1907 0.9312 20.2725C0.312 18.3542 0.0016 16.3924 0 14.3869C0 10.2888 1.26 6.86648 3.78 4.11989C6.3 1.3733 9.44 0 13.2 0C15.28 0 17.26 0.479564 19.14 1.43869C21.02 2.39782 22.64 3.74932 24 5.49319C25.36 3.74932 26.98 2.39782 28.86 1.43869C30.74 0.479564 32.72 0 34.8 0C38.56 0 41.7 1.3733 44.22 4.11989C46.74 6.86648 48 10.2888 48 14.3869C48 16.3924 47.6896 18.3542 47.0688 20.2725C46.448 22.1907 45.3584 24.2938 43.8 26.5818C42.24 28.8715 40.14 31.455 37.5 34.3324C34.86 37.2098 31.52 40.6322 27.48 44.5995L24 48ZM24 40.9373C27.84 37.188 31 33.9723 33.48 31.2902C35.96 28.6082 37.92 26.2766 39.36 24.2956C40.8 22.3111 41.8 20.5445 42.36 18.996C42.92 17.4474 43.2 15.9111 43.2 14.3869C43.2 11.7711 42.4 9.59128 40.8 7.84741C39.2 6.10354 37.2 5.23161 34.8 5.23161C32.92 5.23161 31.18 5.80883 29.58 6.96327C27.98 8.11771 26.88 9.58954 26.28 11.3787H21.72C21.12 9.59128 20.02 8.11945 18.42 6.96327C16.82 5.80708 15.08 5.22986 13.2 5.23161C10.8 5.23161 8.8 6.10354 7.2 7.84741C5.6 9.59128 4.8 11.7711 4.8 14.3869C4.8 15.9128 5.08 17.45 5.64 18.9986C6.2 20.5471 7.2 22.3128 8.64 24.2956C10.08 26.2784 12.04 28.6108 14.52 31.2929C17 33.9749 20.16 37.1898 24 40.9373Z" fill="#313133"/>
</svg>
