<svg width="64" height="284" viewBox="0 0 64 284" fill="none" xmlns="http://www.w3.org/2000/svg">
<g filter="url(#filter0_d_2509_8370)">
<g filter="url(#filter1_dd_2509_8370)">
<circle cx="32" cy="250" r="17" fill="white"/>
</g>
<path d="M30.0391 256.538H37.8852" stroke="white" stroke-width="1.5" stroke-linecap="round" stroke-linejoin="round"/>
<path d="M26.0571 253.648L28.3522 255.943C29.1172 256.708 30.366 256.708 31.1245 255.943L37.9441 249.124C38.7091 248.359 38.7091 247.11 37.9441 246.351L35.6491 244.056C34.8841 243.291 33.6353 243.291 32.8768 244.056L26.0571 250.876C25.2921 251.634 25.2921 252.883 26.0571 253.648Z" stroke="white" stroke-width="1.5" stroke-linecap="round" stroke-linejoin="round"/>
<path d="M28.8096 248.124L33.8769 253.191" stroke="white" stroke-width="1.5" stroke-linecap="round" stroke-linejoin="round"/>
<path d="M26.4561 253.701L30.1503 250" stroke="white" stroke-width="1.5" stroke-linecap="round" stroke-linejoin="round"/>
<path d="M28.2998 255.551L32.0006 251.85" stroke="white" stroke-width="1.5" stroke-linecap="round" stroke-linejoin="round"/>
<g filter="url(#filter2_dd_2509_8370)">
<circle cx="32" cy="250" r="17" fill="white"/>
</g>
<path d="M38.1928 254.577V245.423C38.1928 244.115 37.5389 243.461 36.2312 243.461H33.6158C32.3081 243.461 31.6543 244.115 31.6543 245.423V254.577C31.6543 255.885 32.3081 256.538 33.6158 256.538H36.2312C37.5389 256.538 38.1928 255.885 38.1928 254.577Z" stroke="white" stroke-width="1.5" stroke-linecap="round"/>
<path d="M31.6543 246.077H34.9235" stroke="white" stroke-width="1.5" stroke-linecap="round"/>
<path d="M31.6543 253.923H34.2697" stroke="white" stroke-width="1.5" stroke-linecap="round"/>
<path d="M31.6543 251.275L34.9235 251.308" stroke="white" stroke-width="1.5" stroke-linecap="round"/>
<path d="M31.6543 248.692H33.6158" stroke="white" stroke-width="1.5" stroke-linecap="round"/>
<path d="M27.744 243.461C26.6782 243.461 25.8086 244.331 25.8086 245.39V253.864C25.8086 254.158 25.9328 254.603 26.0832 254.858L26.6194 255.747C27.234 256.774 28.2474 256.774 28.8621 255.747L29.3982 254.858C29.5486 254.603 29.6728 254.158 29.6728 253.864V245.39C29.6728 244.331 28.8032 243.461 27.744 243.461Z" stroke="white" stroke-width="1.5" stroke-linecap="round"/>
<path d="M29.6728 246.731H25.8086" stroke="white" stroke-width="1.5" stroke-linecap="round"/>
<g filter="url(#filter3_dd_2509_8370)">
<circle cx="32" cy="250" r="17" fill="white"/>
</g>
<path d="M38.0095 247.411L35.9303 245.331C35.1456 244.547 34.0668 244.586 33.5372 245.429L32.3799 247.26L36.0872 250.968L37.918 249.81C38.7091 249.307 38.7549 248.149 38.0095 247.411Z" stroke="white" stroke-width="1.5" stroke-linecap="round" stroke-linejoin="round"/>
<path d="M36.0873 250.961L36.2442 253.655C36.3946 255.159 35.8715 255.682 34.4462 255.852L28.7446 256.525C27.5415 256.662 26.6785 255.799 26.8223 254.603L27.4631 249.189" stroke="white" stroke-width="1.5" stroke-linecap="round" stroke-linejoin="round"/>
<path d="M32.3796 247.26L31.2354 247.188" stroke="white" stroke-width="1.5" stroke-linecap="round" stroke-linejoin="round"/>
<path d="M27.6064 255.741L29.6857 253.655" stroke="white" stroke-width="1.5" stroke-linecap="round" stroke-linejoin="round"/>
<path d="M31.3465 246.404C31.3465 246.672 31.3073 246.94 31.2354 247.188C31.1635 247.45 31.0588 247.692 30.9215 247.921C30.7646 248.182 30.5685 248.418 30.3396 248.614C29.8231 249.071 29.1496 249.346 28.4042 249.346C28.0708 249.346 27.7569 249.294 27.4627 249.189C26.7958 248.967 26.24 248.509 25.8869 247.921C25.6188 247.476 25.4619 246.953 25.4619 246.404C25.4619 245.475 25.8869 244.645 26.5669 244.109C27.0704 243.703 27.7111 243.461 28.4042 243.461C30.0323 243.461 31.3465 244.776 31.3465 246.404Z" stroke="white" stroke-width="1.5" stroke-miterlimit="10" stroke-linecap="round" stroke-linejoin="round"/>
<path d="M29.189 247.175L27.6328 245.619" stroke="white" stroke-width="1.5" stroke-miterlimit="10" stroke-linecap="round" stroke-linejoin="round"/>
<path d="M29.1763 245.632L27.6201 247.188" stroke="white" stroke-width="1.5" stroke-miterlimit="10" stroke-linecap="round" stroke-linejoin="round"/>
<g filter="url(#filter4_d_2509_8370)">
<circle cx="32.5" cy="251.5" r="33.5" fill="#EEC643"/>
</g>
<path fill-rule="evenodd" clip-rule="evenodd" d="M25.209 250.041C25.209 249.236 25.8623 248.582 26.6673 248.582C27.4723 248.582 28.1256 249.236 28.1256 250.041C28.1256 250.846 27.4723 251.499 26.6673 251.499C25.8623 251.499 25.209 250.846 25.209 250.041ZM32.5006 248.582C31.6956 248.582 31.0423 249.236 31.0423 250.041C31.0423 250.846 31.6956 251.499 32.5006 251.499C33.3056 251.499 33.959 250.846 33.959 250.041C33.959 249.236 33.3056 248.582 32.5006 248.582ZM38.3339 248.582C37.5289 248.582 36.8756 249.236 36.8756 250.041C36.8756 250.846 37.5289 251.499 38.3339 251.499C39.1389 251.499 39.7923 250.846 39.7923 250.041C39.7923 249.236 39.1389 248.582 38.3339 248.582ZM44.0191 251.929C43.2797 256.674 39.4545 260.61 34.7164 261.499C32.4283 261.93 30.0979 261.684 27.9833 260.788C27.3839 260.535 26.7641 260.406 26.156 260.406C25.8789 260.406 25.6047 260.432 25.335 260.486L21.2341 261.306L22.0552 257.198C22.2272 256.345 22.1222 255.432 21.7533 254.558C20.8579 252.444 20.6129 250.115 21.0431 247.825C21.9312 243.087 25.8658 239.262 30.6127 238.522C34.3897 237.935 38.0837 239.125 40.7495 241.791C43.4168 244.458 44.6083 248.153 44.0191 251.929ZM42.8131 239.729C39.4808 236.398 34.8725 234.912 30.1635 235.639C24.2179 236.567 19.2887 241.356 18.176 247.287C17.6393 250.142 17.9485 253.05 19.067 255.694C19.2085 256.031 19.2522 256.345 19.1968 256.626L17.9456 262.88C17.8493 263.358 17.9995 263.852 18.3452 264.196C18.6208 264.473 18.9927 264.624 19.3762 264.624C19.471 264.624 19.5658 264.615 19.662 264.596L25.9081 263.346C26.2668 263.278 26.6139 263.378 26.8458 263.475C29.4927 264.593 32.4006 264.901 35.2531 264.366C41.1856 263.253 45.9747 258.324 46.9022 252.378C47.6343 247.672 46.1454 243.061 42.8131 239.729Z" fill="#515A6A"/>
<mask id="mask0_2509_8370" style="mask-type:luminance" maskUnits="userSpaceOnUse" x="17" y="235" width="31" height="30">
<path fill-rule="evenodd" clip-rule="evenodd" d="M25.209 250.041C25.209 249.236 25.8623 248.582 26.6673 248.582C27.4723 248.582 28.1256 249.236 28.1256 250.041C28.1256 250.846 27.4723 251.499 26.6673 251.499C25.8623 251.499 25.209 250.846 25.209 250.041ZM32.5006 248.582C31.6956 248.582 31.0423 249.236 31.0423 250.041C31.0423 250.846 31.6956 251.499 32.5006 251.499C33.3056 251.499 33.959 250.846 33.959 250.041C33.959 249.236 33.3056 248.582 32.5006 248.582ZM38.3339 248.582C37.5289 248.582 36.8756 249.236 36.8756 250.041C36.8756 250.846 37.5289 251.499 38.3339 251.499C39.1389 251.499 39.7923 250.846 39.7923 250.041C39.7923 249.236 39.1389 248.582 38.3339 248.582ZM44.0191 251.929C43.2797 256.674 39.4545 260.61 34.7164 261.499C32.4283 261.93 30.0979 261.684 27.9833 260.788C27.3839 260.535 26.7641 260.406 26.156 260.406C25.8789 260.406 25.6047 260.432 25.335 260.486L21.2341 261.306L22.0552 257.198C22.2272 256.345 22.1222 255.432 21.7533 254.558C20.8579 252.444 20.6129 250.115 21.0431 247.825C21.9312 243.087 25.8658 239.262 30.6127 238.522C34.3897 237.935 38.0837 239.125 40.7495 241.791C43.4168 244.458 44.6083 248.153 44.0191 251.929ZM42.8131 239.729C39.4808 236.398 34.8725 234.912 30.1635 235.639C24.2179 236.567 19.2887 241.356 18.176 247.287C17.6393 250.142 17.9485 253.05 19.067 255.694C19.2085 256.031 19.2522 256.345 19.1968 256.626L17.9456 262.88C17.8493 263.358 17.9995 263.852 18.3452 264.196C18.6208 264.473 18.9927 264.624 19.3762 264.624C19.471 264.624 19.5658 264.615 19.662 264.596L25.9081 263.346C26.2668 263.278 26.6139 263.378 26.8458 263.475C29.4927 264.593 32.4006 264.901 35.2531 264.366C41.1856 263.253 45.9747 258.324 46.9022 252.378C47.6343 247.672 46.1454 243.061 42.8131 239.729Z" fill="white"/>
</mask>
<g mask="url(#mask0_2509_8370)">
<rect x="15" y="234" width="35" height="35" fill="#515A6A"/>
</g>
</g>
<defs>
<filter id="filter0_d_2509_8370" x="-5" y="0" width="75" height="293" filterUnits="userSpaceOnUse" color-interpolation-filters="sRGB">
<feFlood flood-opacity="0" result="BackgroundImageFix"/>
<feColorMatrix in="SourceAlpha" type="matrix" values="0 0 0 0 0 0 0 0 0 0 0 0 0 0 0 0 0 0 127 0" result="hardAlpha"/>
<feOffset dy="4"/>
<feGaussianBlur stdDeviation="2"/>
<feComposite in2="hardAlpha" operator="out"/>
<feColorMatrix type="matrix" values="0 0 0 0 0 0 0 0 0 0 0 0 0 0 0 0 0 0 0.25 0"/>
<feBlend mode="normal" in2="BackgroundImageFix" result="effect1_dropShadow_2509_8370"/>
<feBlend mode="normal" in="SourceGraphic" in2="effect1_dropShadow_2509_8370" result="shape"/>
</filter>
<filter id="filter1_dd_2509_8370" x="5" y="223" width="74" height="74" filterUnits="userSpaceOnUse" color-interpolation-filters="sRGB">
<feFlood flood-opacity="0" result="BackgroundImageFix"/>
<feColorMatrix in="SourceAlpha" type="matrix" values="0 0 0 0 0 0 0 0 0 0 0 0 0 0 0 0 0 0 127 0" result="hardAlpha"/>
<feOffset dx="10" dy="10"/>
<feGaussianBlur stdDeviation="10"/>
<feComposite in2="hardAlpha" operator="out"/>
<feColorMatrix type="matrix" values="0 0 0 0 0.596078 0 0 0 0 0.678431 0 0 0 0 0.85098 0 0 0 0.25 0"/>
<feBlend mode="normal" in2="BackgroundImageFix" result="effect1_dropShadow_2509_8370"/>
<feColorMatrix in="SourceAlpha" type="matrix" values="0 0 0 0 0 0 0 0 0 0 0 0 0 0 0 0 0 0 127 0" result="hardAlpha"/>
<feOffset dy="4"/>
<feGaussianBlur stdDeviation="2"/>
<feComposite in2="hardAlpha" operator="out"/>
<feColorMatrix type="matrix" values="0 0 0 0 0 0 0 0 0 0 0 0 0 0 0 0 0 0 0.25 0"/>
<feBlend mode="normal" in2="effect1_dropShadow_2509_8370" result="effect2_dropShadow_2509_8370"/>
<feBlend mode="normal" in="SourceGraphic" in2="effect2_dropShadow_2509_8370" result="shape"/>
</filter>
<filter id="filter2_dd_2509_8370" x="5" y="223" width="74" height="74" filterUnits="userSpaceOnUse" color-interpolation-filters="sRGB">
<feFlood flood-opacity="0" result="BackgroundImageFix"/>
<feColorMatrix in="SourceAlpha" type="matrix" values="0 0 0 0 0 0 0 0 0 0 0 0 0 0 0 0 0 0 127 0" result="hardAlpha"/>
<feOffset dx="10" dy="10"/>
<feGaussianBlur stdDeviation="10"/>
<feComposite in2="hardAlpha" operator="out"/>
<feColorMatrix type="matrix" values="0 0 0 0 0.596078 0 0 0 0 0.678431 0 0 0 0 0.85098 0 0 0 0.25 0"/>
<feBlend mode="normal" in2="BackgroundImageFix" result="effect1_dropShadow_2509_8370"/>
<feColorMatrix in="SourceAlpha" type="matrix" values="0 0 0 0 0 0 0 0 0 0 0 0 0 0 0 0 0 0 127 0" result="hardAlpha"/>
<feOffset dy="4"/>
<feGaussianBlur stdDeviation="2"/>
<feComposite in2="hardAlpha" operator="out"/>
<feColorMatrix type="matrix" values="0 0 0 0 0 0 0 0 0 0 0 0 0 0 0 0 0 0 0.25 0"/>
<feBlend mode="normal" in2="effect1_dropShadow_2509_8370" result="effect2_dropShadow_2509_8370"/>
<feBlend mode="normal" in="SourceGraphic" in2="effect2_dropShadow_2509_8370" result="shape"/>
</filter>
<filter id="filter3_dd_2509_8370" x="5" y="223" width="74" height="74" filterUnits="userSpaceOnUse" color-interpolation-filters="sRGB">
<feFlood flood-opacity="0" result="BackgroundImageFix"/>
<feColorMatrix in="SourceAlpha" type="matrix" values="0 0 0 0 0 0 0 0 0 0 0 0 0 0 0 0 0 0 127 0" result="hardAlpha"/>
<feOffset dx="10" dy="10"/>
<feGaussianBlur stdDeviation="10"/>
<feComposite in2="hardAlpha" operator="out"/>
<feColorMatrix type="matrix" values="0 0 0 0 0.596078 0 0 0 0 0.678431 0 0 0 0 0.85098 0 0 0 0.25 0"/>
<feBlend mode="normal" in2="BackgroundImageFix" result="effect1_dropShadow_2509_8370"/>
<feColorMatrix in="SourceAlpha" type="matrix" values="0 0 0 0 0 0 0 0 0 0 0 0 0 0 0 0 0 0 127 0" result="hardAlpha"/>
<feOffset dy="4"/>
<feGaussianBlur stdDeviation="2"/>
<feComposite in2="hardAlpha" operator="out"/>
<feColorMatrix type="matrix" values="0 0 0 0 0 0 0 0 0 0 0 0 0 0 0 0 0 0 0.25 0"/>
<feBlend mode="normal" in2="effect1_dropShadow_2509_8370" result="effect2_dropShadow_2509_8370"/>
<feBlend mode="normal" in="SourceGraphic" in2="effect2_dropShadow_2509_8370" result="shape"/>
</filter>
<filter id="filter4_d_2509_8370" x="-11" y="208" width="107" height="107" filterUnits="userSpaceOnUse" color-interpolation-filters="sRGB">
<feFlood flood-opacity="0" result="BackgroundImageFix"/>
<feColorMatrix in="SourceAlpha" type="matrix" values="0 0 0 0 0 0 0 0 0 0 0 0 0 0 0 0 0 0 127 0" result="hardAlpha"/>
<feOffset dx="10" dy="10"/>
<feGaussianBlur stdDeviation="10"/>
<feComposite in2="hardAlpha" operator="out"/>
<feColorMatrix type="matrix" values="0 0 0 0 0.896499 0 0 0 0 0.286302 0 0 0 0 0.995833 0 0 0 0.15 0"/>
<feBlend mode="normal" in2="BackgroundImageFix" result="effect1_dropShadow_2509_8370"/>
<feBlend mode="normal" in="SourceGraphic" in2="effect1_dropShadow_2509_8370" result="shape"/>
</filter>
</defs>
</svg>
