<svg width="48" height="48" viewBox="0 0 48 48" fill="none" xmlns="http://www.w3.org/2000/svg">
<path fill-rule="evenodd" clip-rule="evenodd" d="M29.414 18.586C28.632 17.804 27.368 17.804 26.586 18.586L24 21.172L21.414 18.586C20.632 17.804 19.368 17.804 18.586 18.586C17.804 19.368 17.804 20.632 18.586 21.414L21.172 24L18.586 26.586C17.804 27.368 17.804 28.632 18.586 29.414C18.976 29.804 19.488 30 20 30C20.512 30 21.024 29.804 21.414 29.414L24 26.828L26.586 29.414C26.976 29.804 27.488 30 28 30C28.512 30 29.024 29.804 29.414 29.414C30.196 28.632 30.196 27.368 29.414 26.586L26.828 24L29.414 21.414C30.196 20.632 30.196 19.368 29.414 18.586ZM24 40C15.178 40 8 32.822 8 24C8 15.178 15.178 8 24 8C32.822 8 40 15.178 40 24C40 32.822 32.822 40 24 40ZM24 4C12.972 4 4 12.972 4 24C4 35.028 12.972 44 24 44C35.028 44 44 35.028 44 24C44 12.972 35.028 4 24 4Z" fill="#313133"/>
<mask id="mask0_1924_7947" style="mask-type:luminance" maskUnits="userSpaceOnUse" x="4" y="4" width="40" height="40">
<path fill-rule="evenodd" clip-rule="evenodd" d="M29.414 18.586C28.632 17.804 27.368 17.804 26.586 18.586L24 21.172L21.414 18.586C20.632 17.804 19.368 17.804 18.586 18.586C17.804 19.368 17.804 20.632 18.586 21.414L21.172 24L18.586 26.586C17.804 27.368 17.804 28.632 18.586 29.414C18.976 29.804 19.488 30 20 30C20.512 30 21.024 29.804 21.414 29.414L24 26.828L26.586 29.414C26.976 29.804 27.488 30 28 30C28.512 30 29.024 29.804 29.414 29.414C30.196 28.632 30.196 27.368 29.414 26.586L26.828 24L29.414 21.414C30.196 20.632 30.196 19.368 29.414 18.586ZM24 40C15.178 40 8 32.822 8 24C8 15.178 15.178 8 24 8C32.822 8 40 15.178 40 24C40 32.822 32.822 40 24 40ZM24 4C12.972 4 4 12.972 4 24C4 35.028 12.972 44 24 44C35.028 44 44 35.028 44 24C44 12.972 35.028 4 24 4Z" fill="white"/>
</mask>
<g mask="url(#mask0_1924_7947)">
<rect width="48" height="48" fill="#313133"/>
</g>
</svg>
