<svg width="48" height="48" viewBox="0 0 48 48" fill="none" xmlns="http://www.w3.org/2000/svg">
<path fill-rule="evenodd" clip-rule="evenodd" d="M37.3802 31.9256L26.0002 37.2136V23.7816L38.0002 18.2076V31.0776C38.0002 31.4256 37.7642 31.7496 37.3802 31.9256ZM10.6062 31.9276C10.2282 31.7516 9.99617 31.4276 10.0002 31.0636V18.2076L22.0002 23.7816V37.2176L10.6062 31.9276ZM23.4142 10.1276C23.5962 10.0416 23.7982 9.99958 24.0002 9.99958C24.2002 9.99958 24.4022 10.0416 24.5842 10.1276L35.2422 15.0756L24.0002 20.2996L12.7562 15.0756L23.4142 10.1276ZM41.3122 14.5176C41.3062 14.5016 41.3082 14.4836 41.3002 14.4676C41.2942 14.4516 41.2782 14.4416 41.2682 14.4256C41.1762 14.2736 41.0642 14.1396 40.9582 13.9996C40.8962 13.9316 40.8462 13.8556 40.7782 13.7976C40.3082 13.2456 39.7542 12.7596 39.0662 12.4416L26.2662 6.49558C26.2642 6.49558 26.2622 6.49558 26.2622 6.49358C24.8242 5.82958 23.1742 5.83158 21.7322 6.49558L8.93817 12.4396C8.25017 12.7576 7.69417 13.2416 7.22417 13.7936C7.15017 13.8556 7.09617 13.9396 7.03017 14.0136C6.92617 14.1476 6.82017 14.2776 6.73217 14.4216C6.72217 14.4396 6.70617 14.4516 6.69817 14.4676C6.69017 14.4856 6.69217 14.5036 6.68417 14.5216C6.26217 15.2456 6.00017 16.0596 6.00017 16.9156V31.0496C5.98417 32.9496 7.12817 34.7176 8.91617 35.5536L21.7142 41.4976C22.4382 41.8356 23.2142 42.0036 23.9922 42.0036C24.7682 42.0036 25.5442 41.8356 26.2662 41.4996L39.0602 35.5556C40.8442 34.7316 41.9982 32.9756 42.0002 31.0796V16.9136C41.9982 16.0576 41.7362 15.2436 41.3122 14.5176Z" fill="#313133"/>
<mask id="mask0_1924_7932" style="mask-type:luminance" maskUnits="userSpaceOnUse" x="6" y="5" width="36" height="38">
<path fill-rule="evenodd" clip-rule="evenodd" d="M37.3802 31.9256L26.0002 37.2136V23.7816L38.0002 18.2076V31.0776C38.0002 31.4256 37.7642 31.7496 37.3802 31.9256ZM10.6062 31.9276C10.2282 31.7516 9.99617 31.4276 10.0002 31.0636V18.2076L22.0002 23.7816V37.2176L10.6062 31.9276ZM23.4142 10.1276C23.5962 10.0416 23.7982 9.99958 24.0002 9.99958C24.2002 9.99958 24.4022 10.0416 24.5842 10.1276L35.2422 15.0756L24.0002 20.2996L12.7562 15.0756L23.4142 10.1276ZM41.3122 14.5176C41.3062 14.5016 41.3082 14.4836 41.3002 14.4676C41.2942 14.4516 41.2782 14.4416 41.2682 14.4256C41.1762 14.2736 41.0642 14.1396 40.9582 13.9996C40.8962 13.9316 40.8462 13.8556 40.7782 13.7976C40.3082 13.2456 39.7542 12.7596 39.0662 12.4416L26.2662 6.49558C26.2642 6.49558 26.2622 6.49558 26.2622 6.49358C24.8242 5.82958 23.1742 5.83158 21.7322 6.49558L8.93817 12.4396C8.25017 12.7576 7.69417 13.2416 7.22417 13.7936C7.15017 13.8556 7.09617 13.9396 7.03017 14.0136C6.92617 14.1476 6.82017 14.2776 6.73217 14.4216C6.72217 14.4396 6.70617 14.4516 6.69817 14.4676C6.69017 14.4856 6.69217 14.5036 6.68417 14.5216C6.26217 15.2456 6.00017 16.0596 6.00017 16.9156V31.0496C5.98417 32.9496 7.12817 34.7176 8.91617 35.5536L21.7142 41.4976C22.4382 41.8356 23.2142 42.0036 23.9922 42.0036C24.7682 42.0036 25.5442 41.8356 26.2662 41.4996L39.0602 35.5556C40.8442 34.7316 41.9982 32.9756 42.0002 31.0796V16.9136C41.9982 16.0576 41.7362 15.2436 41.3122 14.5176Z" fill="white"/>
</mask>
<g mask="url(#mask0_1924_7932)">
<rect width="48" height="48" fill="#313133"/>
</g>
</svg>
