<svg width="48" height="48" viewBox="0 0 48 48" fill="none" xmlns="http://www.w3.org/2000/svg">
<path fill-rule="evenodd" clip-rule="evenodd" d="M23.9994 28H17.9994C16.8954 28 15.9994 27.104 15.9994 26C15.9994 24.896 16.8954 24 17.9994 24H23.9994C25.1034 24 25.9994 24.896 25.9994 26C25.9994 27.104 25.1034 28 23.9994 28ZM15.9994 34C15.9994 32.896 16.8954 32 17.9994 32H29.9994C31.1054 32 31.9994 32.896 31.9994 34C31.9994 35.104 31.1054 36 29.9994 36H17.9994C16.8954 36 15.9994 35.104 15.9994 34ZM34.888 40H13.11C12.498 40 12 39.552 12 39V9C12 8.448 12.498 8 13.11 8H24V14.3C24 17.444 26.434 20 29.428 20H36V39C36 39.552 35.502 40 34.888 40ZM28 9.956L33.484 16H29.428C28.64 16 28 15.238 28 14.3V9.956ZM39.48 16.656L28.592 4.656C28.212 4.238 27.676 4 27.11 4H13.11C10.292 4 8 6.244 8 9V39C8 41.756 10.292 44 13.11 44H34.888C37.706 44 40 41.756 40 39V18C40 17.502 39.814 17.024 39.48 16.656Z" fill="#313133"/>
<mask id="mask0_1924_7959" style="mask-type:luminance" maskUnits="userSpaceOnUse" x="8" y="4" width="32" height="40">
<path fill-rule="evenodd" clip-rule="evenodd" d="M23.9994 28H17.9994C16.8954 28 15.9994 27.104 15.9994 26C15.9994 24.896 16.8954 24 17.9994 24H23.9994C25.1034 24 25.9994 24.896 25.9994 26C25.9994 27.104 25.1034 28 23.9994 28ZM15.9994 34C15.9994 32.896 16.8954 32 17.9994 32H29.9994C31.1054 32 31.9994 32.896 31.9994 34C31.9994 35.104 31.1054 36 29.9994 36H17.9994C16.8954 36 15.9994 35.104 15.9994 34ZM34.888 40H13.11C12.498 40 12 39.552 12 39V9C12 8.448 12.498 8 13.11 8H24V14.3C24 17.444 26.434 20 29.428 20H36V39C36 39.552 35.502 40 34.888 40ZM28 9.956L33.484 16H29.428C28.64 16 28 15.238 28 14.3V9.956ZM39.48 16.656L28.592 4.656C28.212 4.238 27.676 4 27.11 4H13.11C10.292 4 8 6.244 8 9V39C8 41.756 10.292 44 13.11 44H34.888C37.706 44 40 41.756 40 39V18C40 17.502 39.814 17.024 39.48 16.656Z" fill="white"/>
</mask>
<g mask="url(#mask0_1924_7959)">
<rect width="48" height="48" fill="#313133"/>
</g>
</svg>
