<svg width="16" height="20" viewBox="0 0 16 20" fill="none" xmlns="http://www.w3.org/2000/svg">
<path id="Mask" fill-rule="evenodd" clip-rule="evenodd" d="M5.5 4H10.5C11.053 4 11.5 4.447 11.5 5C11.5 5.553 11.053 6 10.5 6H5.5C4.947 6 4.5 5.553 4.5 5C4.5 4.447 4.947 4 5.5 4ZM6.5 14.5C6.5 13.672 7.172 13 8 13C8.828 13 9.5 13.672 9.5 14.5C9.5 15.328 8.828 16 8 16C7.172 16 6.5 15.328 6.5 14.5ZM14 17C14 17.552 13.552 18 13 18H3C2.448 18 2 17.552 2 17V3C2 2.448 2.448 2 3 2H13C13.552 2 14 2.448 14 3V17ZM13 0H3C1.346 0 0 1.346 0 3V17C0 18.654 1.346 20 3 20H13C14.654 20 16 18.654 16 17V3C16 1.346 14.654 0 13 0Z" fill="#79767D"/>
</svg>
