<svg xmlns="http://www.w3.org/2000/svg" width="36" height="36" viewBox="0 0 36 36" fill="none">
  <path d="M18.1763 22.6597L18.3455 24.4557L18.4817 24.5684L19.1384 23.0487L18.9168 22.7359L18.1763 22.6597Z" fill="#2284B6"/>
  <path d="M35.0902 16.8294L20.2826 2.82336C19.1207 1.72434 17.2932 1.78108 16.2014 2.9498L2.27617 17.8441C1.18355 19.0128 1.23995 20.851 2.40187 21.9492L16.4633 35.2501L16.8976 34.1527L14.722 26.2813L15.9887 23.3741L15.8163 15.5367L15.3352 13.8581L15.4891 12.2631L15.805 12.2518L15.4408 10.8869L14.9146 10.9055L14.8961 10.3763L14.6858 10.3836L14.6672 9.85434L14.8775 9.84704L14.8703 9.63551L15.8179 9.60146L15.78 8.86068L16.8444 8.82259L16.871 9.56337L17.8234 9.52933L17.8315 9.75951L18.0378 9.75222L18.0563 10.2863L17.846 10.2936L17.8629 10.8002L17.3561 10.818L17.1748 12.2023L17.481 12.191L17.5237 13.1433L17.9781 14.081L17.3915 15.3738L17.9999 20.6516L19.2706 20.8178L19.4696 20.4928L18.0112 18.0014L20.1908 20.043C20.1908 20.043 20.6041 19.816 21.0255 19.8014L21.3567 17.246L21.8676 19.7715C21.8676 19.7715 22.0779 19.7642 22.3978 19.8582L24.4315 17.7712L23.2551 20.2513L23.5855 20.663L25.8859 20.1564L23.8183 21.2903L23.9384 21.7101L26.3742 22.0465L23.7579 22.5644L23.5734 23.3133L23.7047 24.0508L23.9601 25.3136L23.6556 25.6426L24.3961 28.6901L25.3734 29.503L25.5072 31.3193L35.2159 20.9345C36.3085 19.7666 36.2521 17.9284 35.0902 16.8294ZM16.0757 5.03437C16.0757 5.03437 16.0983 5.66979 16.2071 5.77191C16.3158 5.87403 15.697 6.53215 15.6229 5.79299C15.6237 5.79218 15.4633 5.58631 16.0757 5.03437ZM16.8315 8.50487C15.5947 9.29105 15.0121 7.72195 15.4182 7.28347C15.8243 6.845 16.2264 6.30035 16.5946 4.80338C16.5946 4.80338 18.0684 7.7187 16.8315 8.50487Z" fill="#2284B6"/>
  <path d="M18.8746 21.574L18.0181 21.1809L18.1534 22.0238L18.8851 21.8544L18.8746 21.574Z" fill="#2284B6"/>
  <path d="M3.88125 14.278L4.94648 13.1717L3.1335 11.4065C1.04335 9.37053 0.990165 6.00457 3.01344 3.90217C3.99406 2.8842 5.30988 2.31038 6.71916 2.28768C8.12764 2.26661 9.46199 2.79586 10.474 3.78141L12.1234 5.3878L13.1887 4.28148L11.5393 2.6751C8.84316 0.0483077 4.52506 0.118819 1.91357 2.83071C-0.697108 5.5426 -0.627813 9.886 2.06828 12.5128L3.88125 14.278Z" fill="#2284B6"/>
</svg>