<svg width="48" height="48" viewBox="0 0 48 48" fill="none" xmlns="http://www.w3.org/2000/svg">
<path fill-rule="evenodd" clip-rule="evenodd" d="M39.48 8.52151C38.786 7.82551 37.66 7.82551 36.966 8.52151L8.522 36.9655C8.174 37.3135 8 37.7675 8 38.2235C8 38.6775 8.174 39.1335 8.522 39.4795C9.216 40.1735 10.34 40.1735 11.036 39.4795L39.48 11.0355C40.174 10.3395 40.174 9.21551 39.48 8.52151ZM32.0006 38.0001C30.3466 38.0001 29.0006 36.6541 29.0006 35.0001C29.0006 33.3461 30.3466 32.0001 32.0006 32.0001C33.6546 32.0001 35.0006 33.3461 35.0006 35.0001C35.0006 36.6541 33.6546 38.0001 32.0006 38.0001ZM32.0006 28.0001C28.1406 28.0001 25.0006 31.1401 25.0006 35.0001C25.0006 38.8601 28.1406 42.0001 32.0006 42.0001C35.8606 42.0001 39.0006 38.8601 39.0006 35.0001C39.0006 31.1401 35.8606 28.0001 32.0006 28.0001ZM16.0006 12.0001C17.6546 12.0001 19.0006 13.3461 19.0006 15.0001C19.0006 16.6541 17.6546 18.0001 16.0006 18.0001C14.3466 18.0001 13.0006 16.6541 13.0006 15.0001C13.0006 13.3461 14.3466 12.0001 16.0006 12.0001ZM16.0006 22.0001C19.8606 22.0001 23.0006 18.8601 23.0006 15.0001C23.0006 11.1401 19.8606 8.00011 16.0006 8.00011C12.1406 8.00011 9.0006 11.1401 9.0006 15.0001C9.0006 18.8601 12.1406 22.0001 16.0006 22.0001Z" fill="#313133"/>
<mask id="mask0_1923_7892" style="mask-type:luminance" maskUnits="userSpaceOnUse" x="8" y="7" width="32" height="35">
<path fill-rule="evenodd" clip-rule="evenodd" d="M39.48 8.52151C38.786 7.82551 37.66 7.82551 36.966 8.52151L8.522 36.9655C8.174 37.3135 8 37.7675 8 38.2235C8 38.6775 8.174 39.1335 8.522 39.4795C9.216 40.1735 10.34 40.1735 11.036 39.4795L39.48 11.0355C40.174 10.3395 40.174 9.21551 39.48 8.52151ZM32.0006 38.0001C30.3466 38.0001 29.0006 36.6541 29.0006 35.0001C29.0006 33.3461 30.3466 32.0001 32.0006 32.0001C33.6546 32.0001 35.0006 33.3461 35.0006 35.0001C35.0006 36.6541 33.6546 38.0001 32.0006 38.0001ZM32.0006 28.0001C28.1406 28.0001 25.0006 31.1401 25.0006 35.0001C25.0006 38.8601 28.1406 42.0001 32.0006 42.0001C35.8606 42.0001 39.0006 38.8601 39.0006 35.0001C39.0006 31.1401 35.8606 28.0001 32.0006 28.0001ZM16.0006 12.0001C17.6546 12.0001 19.0006 13.3461 19.0006 15.0001C19.0006 16.6541 17.6546 18.0001 16.0006 18.0001C14.3466 18.0001 13.0006 16.6541 13.0006 15.0001C13.0006 13.3461 14.3466 12.0001 16.0006 12.0001ZM16.0006 22.0001C19.8606 22.0001 23.0006 18.8601 23.0006 15.0001C23.0006 11.1401 19.8606 8.00011 16.0006 8.00011C12.1406 8.00011 9.0006 11.1401 9.0006 15.0001C9.0006 18.8601 12.1406 22.0001 16.0006 22.0001Z" fill="white"/>
</mask>
<g mask="url(#mask0_1923_7892)">
<rect width="48" height="48" fill="#313133"/>
</g>
</svg>
