<svg width="44" height="44" viewBox="0 0 44 44" fill="none" xmlns="http://www.w3.org/2000/svg">
<path fill-rule="evenodd" clip-rule="evenodd" d="M30.0329 25.6664H16.0666L13.0654 14.6664H35.5329L30.0329 25.6664ZM38.6515 12.738C37.9787 11.649 36.8127 11 35.533 11H12.0663L10.9352 6.85117C10.717 6.05367 9.99285 5.5 9.16602 5.5H5.49935C4.48552 5.5 3.66602 6.32133 3.66602 7.33333C3.66602 8.34533 4.48552 9.16667 5.49935 9.16667H7.76535L12.8968 27.9822C13.115 28.7797 13.8392 29.3333 14.666 29.3333H31.166C31.8608 29.3333 32.4952 28.941 32.8069 28.3195L38.8128 16.3057C39.3867 15.1598 39.3243 13.827 38.6515 12.738ZM13.7502 33C12.2322 33 11.0002 34.2302 11.0002 35.75C11.0002 37.2698 12.2322 38.5 13.7502 38.5C15.2682 38.5 16.5002 37.2698 16.5002 35.75C16.5002 34.2302 15.2682 33 13.7502 33ZM29.3318 35.75C29.3318 34.2302 30.5638 33 32.0818 33C33.5998 33 34.8318 34.2302 34.8318 35.75C34.8318 37.2698 33.5998 38.5 32.0818 38.5C30.5638 38.5 29.3318 37.2698 29.3318 35.75Z" fill="#48464C"/>
<mask id="mask0_1893_10934" style="mask-type:luminance" maskUnits="userSpaceOnUse" x="3" y="5" width="37" height="34">
<path fill-rule="evenodd" clip-rule="evenodd" d="M30.0329 25.6664H16.0666L13.0654 14.6664H35.5329L30.0329 25.6664ZM38.6515 12.738C37.9787 11.649 36.8127 11 35.533 11H12.0663L10.9352 6.85117C10.717 6.05367 9.99285 5.5 9.16602 5.5H5.49935C4.48552 5.5 3.66602 6.32133 3.66602 7.33333C3.66602 8.34533 4.48552 9.16667 5.49935 9.16667H7.76535L12.8968 27.9822C13.115 28.7797 13.8392 29.3333 14.666 29.3333H31.166C31.8608 29.3333 32.4952 28.941 32.8069 28.3195L38.8128 16.3057C39.3867 15.1598 39.3243 13.827 38.6515 12.738ZM13.7502 33C12.2322 33 11.0002 34.2302 11.0002 35.75C11.0002 37.2698 12.2322 38.5 13.7502 38.5C15.2682 38.5 16.5002 37.2698 16.5002 35.75C16.5002 34.2302 15.2682 33 13.7502 33ZM29.3318 35.75C29.3318 34.2302 30.5638 33 32.0818 33C33.5998 33 34.8318 34.2302 34.8318 35.75C34.8318 37.2698 33.5998 38.5 32.0818 38.5C30.5638 38.5 29.3318 37.2698 29.3318 35.75Z" fill="white"/>
</mask>
<g mask="url(#mask0_1893_10934)">
<rect width="44" height="44" fill="#48464C"/>
</g>
</svg>
