<svg width="24" height="24" viewBox="0 0 24 24" fill="none" xmlns="http://www.w3.org/2000/svg">
<g id="womens dress">
<path id="Women s Fashion" fill-rule="evenodd" clip-rule="evenodd" d="M11.6771 12.8208C11.6945 12.172 11.7909 11.5244 11.9657 10.8816C12.0328 10.6586 12.1335 10.4357 12.1603 10.2465L13.8649 10.2059C13.8649 10.5438 14.4085 12.5944 14.4354 13.1856L14.5964 14.3309C14.5964 14.4626 14.5964 14.6045 14.5964 14.7363C14.6769 15.2565 14.7172 15.7498 14.7508 16.3309C14.8112 17.3444 14.9924 18.3883 14.9924 19.4727C14.9924 20.0572 15.0796 20.5132 15.0729 21.0673V22.7396C13.8918 22.7902 13.7307 23.5166 11.912 23.5166C11.3886 23.5166 10.288 23.324 10.288 23.1078V16.1248C10.288 16.0133 12.1603 15.3309 12.3013 15.3106L11.8315 14.1552C11.7183 13.707 11.6578 13.2557 11.6503 12.8039L11.6771 12.8208ZM7.78475 17.0234C8.03977 16.939 8.22768 16.8646 8.48941 16.7667C8.72615 16.6662 8.97739 16.5747 9.24104 16.493V22.7801C8.79953 22.6935 8.31741 22.6735 7.85372 22.7227C7.39004 22.7719 6.96493 22.8881 6.63046 23.0571C6.25654 23.2743 5.74832 23.4219 5.1876 23.476L5.4292 20.9862C5.4292 20.7903 5.49631 20.8004 5.51644 20.6213C5.51644 20.4997 5.51644 20.3713 5.51644 20.2531C5.51644 20.0741 5.57684 20.1045 5.59697 19.9153L5.83186 18.1585C5.91239 17.6281 5.97279 16.8748 6.11372 16.3815L6.39558 15.0302C6.48953 14.564 6.61033 14.1113 6.71771 13.6789C6.77139 13.4356 6.82508 13.2498 6.88548 13.0302C6.97468 12.8074 7.03076 12.5816 7.05326 12.3546H7.13379C7.08702 12.7506 7.08702 13.1477 7.13379 13.5437C7.15399 13.7452 7.15399 13.947 7.13379 14.1485C7.13379 14.4221 7.20761 14.5403 7.21432 14.7633C7.30801 15.5299 7.49854 16.2927 7.78475 17.0471V17.0234ZM15.9722 10.0438C14.7776 10.1857 14.8246 10.0674 14.8984 10.3309C14.9722 10.5945 15.0393 10.8343 15.0863 11.1046C15.1736 11.6181 15.3212 12.1823 15.4017 12.6992C15.4487 12.9897 15.4017 13.2566 15.5024 13.5471C15.5494 13.7633 15.5695 14.1349 15.6299 14.341L15.7306 15.1451C15.7306 15.2903 15.7306 15.4491 15.7306 15.5944C15.7306 15.7397 15.8044 15.7667 15.8178 15.9626C15.9453 18.2092 16.1399 20.4085 16.1399 22.7396C16.4176 22.7494 16.6835 22.7999 16.905 22.8848C17.7908 23.1956 17.7841 23.3645 18.7304 23.476C18.7743 23.169 18.7743 22.8608 18.7304 22.5537C18.6431 22.2565 18.7304 21.9389 18.6633 21.6484C18.5962 21.4085 18.6096 21.0098 18.5425 20.77L18.4418 19.9254C18.4015 19.1991 18.2539 18.7464 18.2002 18.1687C18.0727 16.841 17.5291 14.4829 17.1399 13.1485C16.8446 12.0877 16.4688 11.0269 16.0057 10.0438H15.9722ZM17.0258 9.9627C17.0258 9.87825 17.6432 9.8073 17.8378 9.79716C18.2338 10.2161 19.5424 12.3039 19.7505 12.6721C20.9076 14.7964 21.7621 16.9595 22.3074 19.145C22.6651 20.3223 22.8891 21.5089 22.9784 22.699C22.6565 22.6919 22.3354 22.7203 22.0375 22.7822C21.7396 22.844 21.4721 22.9379 21.2537 23.0571C20.8931 23.2823 20.3786 23.4316 19.8109 23.476L19.737 22.1652C19.737 21.9456 19.6632 21.9254 19.6498 21.7193C19.6095 21.0977 19.5022 20.5166 19.4887 19.922L18.9317 16.4863C18.5789 14.435 18.0054 12.3949 17.2137 10.3749C17.1311 10.2407 17.0771 10.1026 17.0526 9.9627H17.0258ZM4.21451 23.476C4.18077 23.1666 4.18077 22.8564 4.21451 22.547L4.46281 20.3105C4.50797 20.1742 4.53487 20.0365 4.54334 19.8984L5.06009 16.4457C5.22116 15.8849 5.30169 15.2802 5.41577 14.7566C5.65737 13.6721 6.16069 11.7161 6.6506 10.6823C6.78386 10.441 6.89139 10.1963 6.97272 9.94919C6.57007 9.94919 6.40229 9.87149 5.99963 9.86811C5.86982 10.1141 5.69689 10.3537 5.48288 10.5843C5.29498 10.8512 5.14062 11.0471 4.97285 11.3107C4.02272 12.8211 3.26287 14.3601 2.69782 15.9187C2.30858 17.02 1.93948 18.0741 1.65762 19.2362C1.55695 19.6788 0.94625 22.2531 0.94625 22.7125C1.27974 22.7072 1.61189 22.7362 1.92232 22.7978C2.23275 22.8593 2.51492 22.9522 2.75151 23.0706C3.10564 23.2979 3.61986 23.4479 4.18766 23.4895L4.21451 23.476ZM13.1401 9.71608H12.4086C12.5808 9.1913 12.8253 8.67317 13.1401 8.16543C13.8044 8.15617 14.4663 8.12115 15.1199 8.0607C15.791 8.00327 16.2876 7.9053 16.8647 7.83773C17.5064 8.17645 17.8748 8.62321 17.8982 9.09109C17.8244 9.29717 17.4956 9.29379 17.1801 9.34447C15.8808 9.56596 14.5244 9.69114 13.1536 9.71608H13.1401ZM11.1872 15.064C10.8383 14.6957 10.7175 13.412 10.6235 12.8579C10.6134 12.7072 10.6382 12.5564 10.6973 12.4086C10.6973 12.2532 10.6973 12.0708 10.6973 11.9188C10.6973 11.7667 10.7577 11.689 10.7779 11.4728C10.8785 10.8878 11.0534 10.3067 11.3013 9.73298C11.4154 9.43906 11.5295 9.18569 11.6503 8.93231C11.766 8.67228 11.9139 8.41615 12.0932 8.16543C11.4221 8.16543 11.0731 8.12489 10.4759 8.12489C9.63382 8.75883 9.03096 9.46543 8.69745 10.2093C8.31486 11.086 8.11691 11.9806 8.10688 12.8782C8.07471 13.9563 8.21159 15.0339 8.51625 16.1011C8.75664 16.0272 8.98149 15.9412 9.18735 15.8444L11.1537 15.0809L11.1872 15.064ZM8.02635 9.49987C7.85187 9.49987 6.16069 9.39514 6.16069 9.16204C6.16069 8.69921 6.28149 8.14854 7.04655 7.89179C7.46263 7.74652 8.22768 8.02016 9.32157 8.02016C9.2142 8.233 8.3619 8.77015 8.02635 9.48974V9.49987ZM5.6775 4.64183C5.71029 4.34831 5.81396 4.05788 5.98621 3.77698C6.06455 3.6622 6.15414 3.54945 6.25465 3.43914C6.62375 2.99658 6.41571 1.22296 6.6506 1.02363C7.26863 0.852948 7.92104 0.715915 8.59679 0.614857C8.8518 0.614857 9.03971 0.858097 9.74437 1.14188C9.93092 1.22336 10.1079 1.31022 10.2745 1.40201L12.0932 2.14524C12.9556 2.46046 13.8693 2.73847 14.8246 2.97631C15.5982 3.15981 16.4111 3.29809 17.2473 3.38847C17.6835 3.43914 17.7103 3.43914 17.8512 3.65536C18.5223 4.72629 18.2338 5.04385 17.2741 6.02019C16.7825 6.44047 16.4695 6.90751 16.3547 7.39179C15.2576 7.53579 14.1323 7.61849 12.9992 7.63841C11.8646 7.65522 10.7292 7.62698 9.60344 7.55395L7.59014 7.39179C7.42907 6.41208 5.64395 5.44249 5.64395 4.65872L5.6775 4.64183ZM5.59697 0.58783L5.51644 2.14186C5.51644 2.37497 5.4292 2.42564 5.4292 2.66888C5.4292 3.62157 4.70441 3.44928 4.70441 4.71277C4.77517 5.1976 5.10184 5.66411 5.65066 6.06411C5.86044 6.2633 6.04644 6.46862 6.20767 6.67896L6.6506 7.39855C6.125 7.58813 5.71202 7.84626 5.45604 8.14516C5.15861 8.55902 5.06646 9.00319 5.1876 9.43906L4.16753 10.8816C3.15108 12.4277 2.35492 14.0082 1.78512 15.6113C1.39589 16.8106 1.01336 17.7329 0.711366 18.9896C0.583858 19.5504 0.456348 20.1416 0.301995 20.7396C0.174486 21.2294 0 22.2024 0 22.7125C0.0235303 22.8212 0.115799 22.9232 0.263207 23.0035C0.410614 23.0838 0.605362 23.1381 0.818742 23.1585C1.48984 23.2125 1.63748 23.1889 2.04685 23.395C3.10719 23.922 3.63736 23.9794 5.02654 23.9794C7.13379 23.9794 7.26801 22.9119 8.86522 23.2294C9.34171 23.324 9.53633 23.52 9.89201 23.6517C10.5826 23.9063 11.4323 24.0269 12.2854 23.9916C13.1384 23.9562 13.9375 23.7672 14.536 23.4591C14.7373 23.3578 14.791 23.2936 15.0729 23.2362C16.3144 22.9862 16.6701 23.52 17.4889 23.7463C18.1294 23.9404 18.8761 24.0268 19.6207 23.9928C20.3653 23.9587 21.0689 23.8061 21.6295 23.5571C22.0456 23.3814 22.0725 23.2531 22.7503 23.1855C23.059 23.1551 23.6294 23.2058 23.9314 22.8477C24.1462 22.5842 23.7905 21.4558 23.7636 21.0909C23.569 18.8376 21.7906 14.4457 20.6162 12.3444L19.274 10.2161C18.3948 8.97285 18.925 9.82081 18.925 9.00663C18.925 8.52691 18.3479 7.63165 17.3815 7.37152C17.5697 6.94572 17.8699 6.53444 18.274 6.14857C19.576 5.03372 19.5491 4.4121 18.6431 3.22631C18.3613 2.85469 18.4888 2.97293 17.6164 2.88847C15.4487 2.69253 12.6301 1.82768 11.0866 1.07431C10.9439 0.996126 10.7891 0.923824 10.6235 0.858096C10.307 0.732676 10.0149 0.592409 9.75108 0.439183C9.51083 0.276032 9.23131 0.128511 8.91891 0C8.35166 0.0851748 7.79386 0.185542 7.24788 0.300672L5.59697 0.58783Z" fill="#0F1111"/>
</g>
</svg>
