<svg width="25" height="25" viewBox="0 0 25 25" fill="none" xmlns="http://www.w3.org/2000/svg">
<path fill-rule="evenodd" clip-rule="evenodd" d="M9.66419 19.1835C9.79976 19.1835 10.4437 19.4307 10.8262 19.5083C13.0485 19.9495 14.2153 19.2223 14.6753 19.1835C14.7485 19.2928 14.8277 19.398 14.9125 19.4986C15.0094 19.6198 15.1062 19.6732 15.1449 19.8235C14.918 19.8813 14.6962 19.9575 14.4816 20.0513C13.2161 20.4627 11.8639 20.528 10.5647 20.2404C10.3372 20.1919 10.1048 20.124 9.85786 20.0513C9.61094 19.9786 9.44632 19.8816 9.19455 19.8235C9.23329 19.6732 9.33497 19.6198 9.42696 19.4986C9.51178 19.398 9.59097 19.2928 9.66419 19.1835ZM13.0194 14.6747C13.0745 14.7971 13.1462 14.9113 13.2325 15.0141C13.3099 15.1256 13.4116 15.2419 13.4891 15.3534C13.6973 15.2128 13.9103 15.0286 14.1233 14.8686C14.0507 14.5971 13.7699 14.4565 13.6973 14.185C13.4455 14.3208 13.2518 14.5002 13.0194 14.6698V14.6747ZM9.40759 12.3524C9.40759 12.4494 9.93533 12.5366 10.1726 12.653C10.1968 12.3621 10.3808 12.1682 10.3856 11.8434C10.1385 11.7464 9.88219 11.6749 9.62062 11.63C9.53357 11.8658 9.4624 12.1071 9.40759 12.3524ZM13.9539 11.8434C13.9539 12.1488 14.1427 12.3621 14.1669 12.653C14.3848 12.5463 14.9319 12.4445 14.9319 12.3524C14.8771 12.1071 14.8059 11.8658 14.7189 11.63C14.4573 11.6749 14.201 11.7464 13.9539 11.8434ZM10.2161 14.8638C10.3021 14.9768 10.4089 15.0723 10.5308 15.145C10.6388 15.2401 10.7614 15.317 10.894 15.3728C10.9666 15.1062 11.2474 14.9656 11.32 14.6941C11.1216 14.531 10.9076 14.3881 10.6809 14.2674C10.4975 14.4472 10.3351 14.6473 10.1968 14.8638H10.2161ZM11.7461 10.864H12.5934V10.0544H11.7461V10.864ZM11.7848 12.8372C11.7848 12.7357 11.8251 12.6382 11.8969 12.5664C11.9686 12.4946 12.0659 12.4542 12.1673 12.4542C12.2688 12.4542 12.3661 12.4946 12.4378 12.5664C12.5095 12.6382 12.5498 12.7357 12.5498 12.8372C12.5498 12.9388 12.5095 13.0362 12.4378 13.1081C12.3661 13.1799 12.2688 13.2202 12.1673 13.2202C12.0659 13.2202 11.9686 13.1799 11.8969 13.1081C11.8251 13.0362 11.7848 12.9388 11.7848 12.8372ZM10.9763 12.7063V12.9633C10.9993 13.2372 11.1184 13.494 11.3125 13.6884C11.5066 13.8827 11.7631 14.002 12.0366 14.025H12.2932C12.5664 14.001 12.8223 13.8814 13.0162 13.6873C13.2101 13.4931 13.3295 13.2368 13.3535 12.9633V12.7063C13.3305 12.4325 13.2114 12.1756 13.0173 11.9813C12.8232 11.7869 12.5667 11.6677 12.2932 11.6446H12.0366C11.7631 11.6677 11.5066 11.7869 11.3125 11.9813C11.1184 12.1756 10.9993 12.4325 10.9763 12.7063ZM8.76365 2.20034C8.81691 2.59304 9.05899 2.9712 9.14614 3.34936C8.86533 3.41238 8.66198 3.53844 8.38116 3.60146C8.21655 3.28148 8.1294 2.81606 7.95994 2.49608C7.82922 2.55911 7.70333 2.60274 7.57745 2.66577C7.00288 2.93809 6.44654 3.2474 5.91193 3.59177C5.6989 3.73721 5.5246 3.89236 5.3261 4.02811C5.53913 4.34808 5.8732 4.64382 6.09107 4.9638C5.85868 5.085 5.70374 5.3662 5.45198 5.44862C5.15179 5.24984 4.96781 4.79412 4.687 4.59534C4.37229 4.80866 2.85686 6.47158 2.75034 6.93701C3.07745 7.14509 3.41883 7.32978 3.77193 7.4897C3.70899 7.72241 3.44754 7.97452 3.38944 8.21208C3.01511 8.05309 2.65951 7.85309 2.32912 7.61575C2.10537 8.05837 1.90655 8.51319 1.73361 8.97809C1.51515 9.46429 1.3715 9.98082 1.30754 10.5101L2.455 10.7234C2.455 10.9852 2.33397 11.2567 2.32912 11.5331C2.13062 11.4846 1.93695 11.4652 1.71424 11.4216C1.49152 11.3779 1.31722 11.3343 1.13808 11.3198C1.13808 11.504 1.10903 11.7415 1.08967 11.95C1.0413 12.5615 1.0413 13.176 1.08967 13.7875C1.08967 14.0153 1.13808 14.1802 1.13808 14.3838L2.32912 14.1705C2.32912 14.4468 2.45016 14.7135 2.455 14.9753C2.26618 15.0189 2.10157 15.0528 1.8837 15.0868C1.66582 15.1207 1.48184 15.1741 1.30754 15.1886C1.38921 15.7032 1.52723 16.2072 1.71908 16.6915L2.28555 18.0393C2.39702 18.0341 2.5039 17.9934 2.59057 17.923C2.83551 17.7414 3.10435 17.5945 3.38944 17.4866C3.44754 17.7048 3.70899 17.9715 3.77193 18.209C3.41883 18.3689 3.07745 18.5536 2.75034 18.7617C2.85202 19.1447 3.81066 20.2162 4.1641 20.5846C4.32898 20.7734 4.51047 20.9471 4.70637 21.1034C4.83225 21.021 4.82256 20.9967 4.91455 20.8852L5.47135 20.2113C5.6748 20.3927 5.88816 20.5627 6.11044 20.7204C5.88772 21.05 5.56333 21.3264 5.34546 21.6561C5.85279 22.0394 6.38672 22.3861 6.9432 22.6936L7.97931 23.1784C8.14876 22.8584 8.23591 22.393 8.40053 22.073C8.68618 22.1409 8.88469 22.2621 9.16551 22.33C9.10927 22.5208 9.043 22.7085 8.967 22.8923C8.88105 23.0793 8.81923 23.2764 8.78302 23.479C9.75303 23.7574 10.7525 23.9201 11.7606 23.9638V22.7711H12.6079V23.988C13.616 23.9444 14.6155 23.7816 15.5855 23.5032C15.4836 23.1122 15.3558 22.7283 15.203 22.3542C15.4838 22.2863 15.6872 22.1651 15.968 22.0972C16.1326 22.4172 16.2198 22.8827 16.3892 23.2026C16.5151 23.1396 16.6458 23.096 16.7717 23.0329C16.8976 22.9699 16.9799 22.9408 17.1251 22.8778C17.7918 22.5317 18.4269 22.1278 19.0231 21.6706C18.81 21.3506 18.476 21.0597 18.2581 20.7349C18.4804 20.5772 18.6937 20.4073 18.8972 20.2259C19.1195 20.5498 19.376 20.8489 19.6622 21.1179C20.4353 20.4526 21.0901 19.6608 21.5988 18.7762C21.2717 18.5682 20.9303 18.3835 20.5772 18.2236C20.6402 17.9957 20.9016 17.7387 20.9597 17.5012C21.3341 17.6631 21.691 17.8629 22.0249 18.0975C22.0781 17.889 23.0223 16.1195 23.0416 15.1886C22.8673 15.1886 22.6737 15.1207 22.4655 15.0868C22.2573 15.0528 22.083 15.0189 21.8942 14.9753C21.8942 14.7135 22.0152 14.4468 22.0249 14.1705L23.2111 14.3838C23.2111 14.1996 23.2401 13.9572 23.2595 13.7487L23.2982 12.5512C23.2982 12.0955 23.2111 11.7367 23.2111 11.3198C23.0223 11.3198 22.7995 11.3925 22.601 11.4264C22.4025 11.4604 22.2089 11.4894 22.0249 11.5331C22.0249 11.2567 21.899 10.9852 21.8942 10.7234C22.083 10.6798 22.2476 10.6507 22.4655 10.6119C22.6833 10.5731 22.8673 10.5247 23.0416 10.5101C23.0416 9.79743 22.3493 8.24117 22.0249 7.60121C21.8457 7.72241 21.686 7.79999 21.4875 7.91634C21.3227 8.02968 21.1456 8.12401 20.9597 8.19753C20.9016 7.97936 20.6402 7.71272 20.5772 7.47516C20.7621 7.40261 20.9376 7.30821 21.1001 7.19396C21.2841 7.09215 21.4197 7.01458 21.5843 6.92247C21.4729 6.50552 20.064 4.87654 19.6476 4.5808C19.3632 4.85152 19.1069 5.1504 18.8827 5.47286C18.6792 5.29146 18.4658 5.12151 18.2436 4.9638C18.4614 4.64382 18.7955 4.34808 19.0085 4.02811L17.7691 3.18452C17.2849 2.89848 16.8347 2.73849 16.3747 2.49608C16.2052 2.81606 16.1181 3.28148 15.9535 3.60146C15.6678 3.53844 15.4693 3.41238 15.1885 3.34936C15.3406 2.97499 15.4683 2.59119 15.571 2.20034C14.6022 1.91207 13.6027 1.73957 12.5934 1.68644V2.87909H11.7461V1.68644C10.7368 1.73957 9.73732 1.91207 8.7685 2.20034H8.76365ZM0.184278 12.4106V13.259C0.253666 15.2326 0.814543 17.1574 1.81591 18.8587C2.162 19.4593 2.56403 20.0258 3.01664 20.5507L3.69931 21.3118C4.43992 22.0337 5.26209 22.6667 6.14917 23.1978C6.47356 23.3917 6.74953 23.5275 7.09329 23.6826C8.54945 24.3733 10.131 24.7593 11.7413 24.8171C13.6451 24.9044 15.5414 24.5249 17.2656 23.7117C17.5868 23.5663 17.9003 23.4045 18.2048 23.2269C18.6535 22.9608 19.0867 22.6694 19.5024 22.3542L19.9042 22.0294C19.9769 21.9712 20.0059 21.9324 20.0785 21.8694C20.154 21.8168 20.2252 21.7585 20.2916 21.6948C20.7907 21.2279 21.2521 20.7221 21.6714 20.1822C21.7876 20.0368 21.8651 19.9107 21.9716 19.7653C22.1895 19.4744 22.3493 19.2029 22.5429 18.8878C22.7277 18.5768 22.8895 18.2527 23.0271 17.9181C23.0997 17.7339 23.1723 17.603 23.245 17.4333C23.9183 15.85 24.2229 14.1341 24.1358 12.4154C24.0656 10.442 23.5048 8.51737 22.5042 6.8158C22.0722 6.06751 21.5538 5.37268 20.9597 4.74563C20.8193 4.60504 20.7612 4.50323 20.6208 4.36263C20.4804 4.22203 20.3787 4.16871 20.2383 4.02326C18.1424 2.08744 15.4278 0.960263 12.5789 0.842852C10.6762 0.750787 8.78032 1.13048 7.0594 1.94824C6.72702 2.08985 6.40364 2.25176 6.09107 2.43305C4.60051 3.30042 3.3128 4.47747 2.3146 5.88496C0.969696 7.7951 0.216923 10.0598 0.150391 12.396L0.184278 12.4106ZM12.1237 16.1534H12.206C12.2448 16.294 12.3319 16.3376 12.4191 16.454C12.5062 16.5703 12.5595 16.614 12.6515 16.7303C12.8161 16.9436 12.9613 17.1085 13.1356 17.3169L14.104 18.4951C13.3946 18.7378 12.6444 18.8383 11.8962 18.7908C11.3481 18.7636 10.806 18.6642 10.2839 18.4951L11.688 16.7546C11.7751 16.6431 11.8332 16.5897 11.9204 16.4782C12.0075 16.3667 12.1141 16.3037 12.1528 16.1534H12.1237ZM16.9218 16.4103C16.6168 15.8286 15.5904 14.3887 15.3095 13.8554C15.5226 13.7535 15.7937 13.676 16.0116 13.5838L16.7088 13.3027L18.1128 12.75C18.1341 13.7635 17.8939 14.7654 17.4156 15.6589C17.2849 15.9249 17.1223 16.174 16.9315 16.4006L16.9218 16.4103ZM6.21695 12.75L9.02026 13.8554L7.42736 16.42C7.05009 15.952 6.75982 15.42 6.57039 14.8492C6.32637 14.1806 6.21296 13.4712 6.23632 12.7597L6.21695 12.75ZM18.9214 12.4542C19.167 12.3317 19.423 12.2311 19.6864 12.1536C19.6864 12.396 19.7299 12.4494 19.7299 12.7063C19.7548 14.1549 19.3596 15.5797 18.5922 16.8079C18.3831 17.1777 18.1223 17.5157 17.8175 17.8115C17.1881 16.6285 17.3333 17.6757 18.3017 15.7704C18.7612 14.7858 18.9944 13.7106 18.9843 12.6239L18.9408 12.4542H18.9214ZM6.51229 17.8115C6.01168 17.2939 5.60677 16.6915 5.31641 16.0322C4.81635 14.9724 4.57095 13.8102 4.59985 12.6385C4.59985 12.4009 4.64342 12.3864 4.64342 12.1536C4.892 12.227 5.13345 12.3228 5.36483 12.4397C5.4084 12.5027 5.36483 12.6627 5.36483 12.8809C5.39143 13.6389 5.53012 14.3888 5.77636 15.1062C5.94582 15.5994 6.17509 16.07 6.45904 16.5073C7.02066 17.4769 7.03035 16.837 6.51229 17.8115ZM5.28252 9.72955C5.04124 10.2288 4.87016 10.759 4.77415 11.3052L6.14433 11.8434C6.5123 11.9937 9.75619 13.2251 9.88207 13.3317C10.1774 13.579 10.0031 13.8457 9.88207 14.0347L7.06908 18.4514C7.24338 18.4999 7.99868 19.2708 8.42958 19.3871L10.7003 16.6431C10.8746 16.4152 11.8962 15.0916 12.085 15.0916C12.4965 15.0916 12.4142 15.1837 12.7774 15.5764C13.1405 15.9692 15.7647 19.2756 15.9099 19.3726C16.3408 19.2562 17.0961 18.4854 17.2704 18.4369C17.1542 18.2187 17.0089 18.0442 16.8879 17.8406C16.7669 17.6369 16.6458 17.4527 16.5103 17.2394L14.9997 14.8783C14.8593 14.6698 14.7576 14.4953 14.6172 14.2868C14.4138 13.9766 14.0798 13.5839 14.4768 13.3172L18.8972 11.5767C19.1199 11.4894 19.3814 11.4022 19.5653 11.3101C19.4655 10.7642 19.2929 10.2342 19.0521 9.73441L16.3505 10.4325L14.9997 10.7816C14.1475 10.9949 13.3535 11.4313 13.3148 10.6265L13.2325 9.09444C13.2325 8.89082 13.1986 8.90052 13.1889 8.71144C13.1792 8.52236 13.1889 8.45448 13.1889 8.32843C13.1889 8.20238 13.1502 8.1539 13.1453 7.95028C13.1211 7.01943 13.0194 6.1516 13.0194 5.30802C12.6951 5.30802 12.5353 5.26924 12.2109 5.26924L11.32 5.30802L11.2765 6.50067C11.2765 6.6849 11.2426 6.65582 11.2329 6.84005C11.2232 7.02428 11.2329 7.12608 11.2329 7.26668C11.2329 7.40728 11.199 7.41213 11.1893 7.60606C11.199 7.74649 11.199 7.88742 11.1893 8.02785L11.0295 10.6701C11.0295 10.8931 10.8891 11.0967 10.647 11.0967C10.405 11.0967 7.15139 10.2047 6.61881 10.0641L5.2922 9.73441L5.28252 9.72955ZM13.949 7.13579C14.133 7.22305 14.4913 7.32001 14.8835 7.51879C15.1682 7.6563 15.4404 7.81853 15.6969 8.00361C15.9728 8.20238 16.9266 9.06051 17.0089 9.37079L14.104 10.1368C14.0822 10.0247 14.0676 9.91137 14.0604 9.79743C14.0362 8.82779 13.9345 8.01815 13.9345 7.11639L13.949 7.13579ZM10.2113 10.1562L8.75881 9.77804C8.52157 9.70532 8.30369 9.65683 8.05193 9.59381C7.90668 9.55502 7.44189 9.44836 7.32085 9.39018C7.38179 9.24803 7.47261 9.1207 7.58714 9.01687C8.19532 8.2627 8.9874 7.67827 9.88691 7.32001C10.0564 7.24244 10.2307 7.20851 10.3711 7.13579C10.3711 7.86301 10.2694 9.3514 10.2016 10.1562H10.2113ZM13.8232 5.47286C14.5736 5.47286 16.1278 6.35523 16.6652 6.75763C17.0604 7.04467 17.4268 7.3694 17.7594 7.72726C18.1002 8.09386 18.3901 8.50481 18.6212 8.949C18.3728 9.04201 18.1169 9.11338 17.8562 9.16232C17.8272 9.04111 17.7739 9.00718 17.6965 8.89567C17.2847 8.30961 16.7811 7.79392 16.2052 7.3685C15.7211 7.00003 14.4429 6.2825 13.8667 6.26796L13.8232 5.45831V5.47286ZM10.4631 5.95768V6.29705C9.87723 6.29705 8.6184 7.03397 8.11971 7.39758C7.63896 7.76326 7.20482 8.1866 6.827 8.65811L6.47356 9.19141C6.21291 9.14247 5.95697 9.0711 5.70858 8.97809C5.93534 8.54341 6.21862 8.14075 6.55103 7.78059C7.40332 6.84511 8.4725 6.13413 9.66419 5.71042C9.9355 5.60386 10.2182 5.52903 10.5066 5.4874C10.5066 5.70557 10.4631 5.72012 10.4631 5.97222V5.95768ZM3.79614 12.5948C3.74265 13.8992 4.00685 15.1971 4.56596 16.3764C4.77211 16.8305 5.02354 17.2625 5.31641 17.666C5.58914 18.0671 5.90226 18.4392 6.25085 18.7762C7.75127 20.2938 9.77887 21.1726 11.9107 21.2294C13.2133 21.283 14.5094 21.0184 15.6872 20.4586C16.4669 20.0797 17.1877 19.5898 17.8272 19.0041L18.5486 18.2381C18.7118 18.0582 18.8623 17.867 18.9989 17.666C20.0624 16.1859 20.6026 14.3928 20.5337 12.5706C20.5228 11.9767 20.4432 11.3862 20.2964 10.8107C19.8103 8.85245 18.6408 7.13285 16.9993 5.96253C15.5213 4.89717 13.7305 4.35629 11.9107 4.42565C10.4918 4.47383 9.10802 4.87989 7.88757 5.6062C6.66713 6.3325 5.64953 7.35556 4.92908 8.58054L4.44492 9.6035C4.39166 9.72956 4.35293 9.84106 4.30451 9.97196C3.99589 10.8115 3.82582 11.6957 3.80098 12.59L3.79614 12.5948Z" fill="#0F1111"/>
</svg>
