<svg width="26" height="26" viewBox="0 0 26 26" fill="none" xmlns="http://www.w3.org/2000/svg">
<path fill-rule="evenodd" clip-rule="evenodd" d="M15.582 3.21564C16.0246 3.70239 16.4094 4.24238 16.7282 4.82406C17.0559 5.45198 17.3361 6.10534 17.5664 6.77826C18.2228 8.82677 18.041 9.74362 18.041 11.8759H16.6777C16.7128 10.3028 16.6673 8.72885 16.5414 7.16072C16.3886 5.8118 16.0731 4.48815 15.6022 3.22088L15.582 3.21564ZM11.1287 8.81105H15.9102C15.8984 8.03779 15.8258 7.26682 15.6931 6.50583C15.5842 5.81391 15.4272 5.13105 15.2235 4.46256C15.0472 3.85021 14.7925 3.26519 14.4662 2.72317C13.5826 1.36099 12.2496 1.50768 11.4367 2.88034L10.9974 3.78671C10.4047 5.39051 10.1001 7.09338 10.0986 8.81105H11.1287ZM10.1188 9.54453C10.1188 10.1104 10.1188 10.6814 10.1188 11.2473C10.1188 11.8131 10.2551 12.6094 9.74518 12.6094H7.60938C7.55909 12.6126 7.50874 12.6045 7.4617 12.5858C7.41466 12.5671 7.37202 12.5381 7.33664 12.5009C7.30126 12.4637 7.27395 12.4191 7.25655 12.37C7.23914 12.321 7.23205 12.2686 7.23574 12.2165V9.54453H2.18656C1.84826 9.54453 1.71698 9.68075 1.71698 10.0318V14.0188C1.71698 14.878 1.76748 15.5905 1.76243 16.4026L1.83816 17.5447C1.88866 17.9062 1.88361 18.252 1.92905 18.5925C1.97449 18.9331 2.00479 19.2946 2.06033 19.677L2.44911 21.6574C2.73187 22.8467 2.77731 22.5271 2.30774 23.5173C2.10072 23.9522 2.24715 24.2141 2.60564 24.2141H23.4133C23.4929 24.2205 23.5723 24.2006 23.6403 24.1573C23.7083 24.114 23.7614 24.0496 23.792 23.9731C23.9384 23.6221 23.3628 23.1715 23.3628 22.611C23.3628 22.3752 23.7466 20.8925 23.8223 20.4577C23.898 20.0228 23.9283 19.7294 23.9889 19.3155C24.1202 18.3882 24.2666 16.1301 24.2969 14.878V11.9807C24.2969 11.3416 24.2969 10.4981 24.2969 10.2728C24.2969 9.79601 24.2969 9.56025 23.8324 9.53929H20.9392H18.7782C18.7782 10.2675 18.7782 11.0429 18.7782 12.1589C18.7782 12.447 18.6822 12.6461 18.4045 12.6461H16.2839C16.2336 12.6492 16.1832 12.6412 16.1362 12.6225C16.0892 12.6037 16.0465 12.5748 16.0111 12.5376C15.9757 12.5004 15.9484 12.4558 15.931 12.4067C15.9136 12.3576 15.9065 12.3053 15.9102 12.2532V9.5812H10.1037L10.1188 9.54453ZM19.8183 8.81105H18.7479C18.6623 8.0034 18.493 7.20769 18.243 6.43772C17.6796 4.5902 16.6114 2.95215 15.168 1.72249C15.01 1.59332 14.841 1.47934 14.6631 1.38194C14.1707 1.13686 13.6326 1.00658 13.0866 1.00024C12.5406 0.993907 11.9998 1.11167 11.5023 1.34527C10.8337 1.754 10.2433 2.28676 9.76033 2.91701C8.61416 4.25299 7.33167 7.10833 7.33167 8.81629H1.98459C1.72116 8.82312 1.47075 8.93653 1.28679 9.1323C1.10284 9.32807 0.999918 9.5907 1 9.86412V15.3652C1.00956 17.2404 1.17852 19.111 1.50492 20.9554C1.55541 21.2435 1.62105 21.5107 1.68669 21.7884C1.93915 22.8362 1.96439 22.5166 1.6362 23.1977C1.13128 24.2456 1.76748 25 2.43902 25H23.5496C24.2161 25 24.8422 24.256 24.3676 23.2292C24.0344 22.5114 24.0394 22.8677 24.302 21.7884C24.7855 19.5374 25.0193 17.2365 24.9988 14.9304V9.83268C24.9988 9.55478 24.8924 9.28826 24.703 9.09176C24.5136 8.89525 24.2567 8.78485 23.9889 8.78485H19.8031L19.8183 8.81105ZM9.36144 9.49214V11.8759H7.99816C7.99816 9.39784 7.81134 8.10376 8.86157 5.76187C9.09383 5.23795 10.033 3.48284 10.4874 3.1423C10.1206 4.08478 9.84328 5.06214 9.65934 6.0605C9.46323 7.1931 9.36354 8.34141 9.36144 9.49214Z" fill="#0F1111" stroke="#0F1111" stroke-width="0.5" stroke-miterlimit="10"/>
</svg>
