<svg width="24" height="24" viewBox="0 0 24 24" fill="none" xmlns="http://www.w3.org/2000/svg">
<path fill-rule="evenodd" clip-rule="evenodd" d="M0.701494 22.8412V22.2352H23.3097C23.3097 22.8364 23.3843 23.0885 23.0298 23.0885H1.01493C0.869403 23.0885 0.731346 23.0303 0.731346 22.8412H0.701494ZM4.07836 7.43318V14.4972H19.9216V2.803H4.07836V7.43318ZM3.37314 9.85736V2.56059C3.37774 2.4636 3.39745 2.36884 3.43107 2.28204C3.4647 2.19525 3.51155 2.11824 3.56877 2.05568C3.62599 1.99311 3.69239 1.9463 3.76396 1.91808C3.83552 1.88986 3.91075 1.88083 3.98508 1.89151H20.0299C20.1039 1.88152 20.1787 1.89109 20.2498 1.91963C20.321 1.94816 20.3869 1.99509 20.4437 2.05759C20.5005 2.12008 20.547 2.19686 20.5804 2.2833C20.6138 2.36974 20.6334 2.46405 20.6381 2.56059V14.8027C20.6381 15.2875 20.2649 15.4717 19.8918 15.4717H4.12314C3.75 15.4717 3.37687 15.2681 3.37687 14.8027V9.8719L3.37314 9.85736ZM24 22.0316C24 21.217 23.8806 21.3916 23.2164 19.6559C23.0187 19.1371 22.097 16.936 22.0746 16.4511V0.684275C22.0376 0.483619 21.9483 0.305828 21.8217 0.181181C21.6952 0.0565338 21.5393 -0.00726191 21.3806 0.000657782H2.62313C1.70149 0.000657782 1.92164 1.36789 1.92164 2.19696V16.3299C1.90881 16.7527 1.79973 17.161 1.60821 17.5032C1.41418 17.988 0 21.5273 0 21.7455V23.0885C0.0281836 23.338 0.12348 23.5664 0.268976 23.7333C0.414472 23.9002 0.600759 23.9946 0.794778 24H23.2015C23.3959 23.9948 23.5827 23.9005 23.7288 23.7337C23.875 23.5669 23.971 23.3384 24 23.0885V22.0316ZM9.70149 19.7965H14.2948C14.3209 20.1892 14.5709 20.9067 14.5784 21.3189H9.42164C9.42164 20.9116 9.67537 20.1989 9.70149 19.7965ZM8.62313 21.3189H0.921642L2.29851 17.8087C2.35821 17.6438 2.41418 17.3626 2.56343 17.3626H21.4067C21.5634 17.3626 21.7313 17.9687 21.8582 18.2935C21.9851 18.6183 22.1157 18.9723 22.2313 19.3116C22.3022 19.491 22.3545 19.5735 22.4328 19.7965L22.6381 20.3249C22.7724 20.6789 22.8918 21.0037 23.0112 21.3383H15.3246C14.9515 20.3104 15.2425 18.8414 14.0112 18.8414H9.93657C9.36567 18.8414 9.1194 19.0741 8.98135 19.6704L8.60821 21.3383L8.62313 21.3189ZM2.62313 0.916996H21.3731V16.3881H2.62313V0.916996Z" fill="#0F1111"/>
</svg>
