<svg width="24" height="24" viewBox="0 0 24 24" fill="none" xmlns="http://www.w3.org/2000/svg">
<path fill-rule="evenodd" clip-rule="evenodd" d="M12.6904 22.8142H12.524C12.5661 21.4758 12.8669 20.1582 13.4096 18.9342C13.6512 18.3968 14.7569 16.4085 15.2937 16.0538L19.2927 20.0305C18.6548 20.5823 17.9645 21.0701 17.2315 21.4869C15.849 22.2945 14.2897 22.7503 12.6904 22.8142ZM11.4182 22.8142C11.499 21.3323 11.8425 19.8765 12.4327 18.5151C12.8395 17.6328 13.3397 16.7968 13.9249 16.0216C14.1289 15.769 14.349 15.5325 14.5315 15.2692L11.9711 12.7327C11.7188 12.8993 6.95226 17.7251 6.50137 18.1765L4.73538 19.9768C5.12402 20.3899 5.56422 20.7511 6.04511 21.0516C7.64664 22.1092 9.50203 22.7179 11.4182 22.8142ZM20.0549 19.2674C20.3018 18.8966 20.8225 18.3592 21.1284 17.881C21.9829 16.5689 22.5449 15.0879 22.7763 13.5388C22.797 13.1907 22.84 12.8442 22.9051 12.5016C21.548 12.5339 20.2107 12.8353 18.9706 13.3884C18.3909 13.6517 16.4746 14.7265 16.0774 15.2907L20.0764 19.2674H20.0549ZM3.89802 19.2674C3.67794 18.945 3.26999 18.4936 2.91036 17.9562C2.08593 16.7294 1.52648 15.3438 1.26783 13.8881C1.21415 13.6033 1.18195 13.168 1.11753 12.8725C3.8647 12.8214 6.51357 11.8401 8.63235 10.0888C8.76095 9.97614 8.89533 9.87031 9.03493 9.77169L11.2089 11.9213L3.89802 19.2728V19.2674ZM15.2937 14.4846L12.7333 11.9481L20.0441 4.60198C20.2159 4.85455 20.393 5.02114 20.5809 5.26297C21.9539 7.0146 22.7425 9.15384 22.8354 11.3785C20.6907 11.4834 18.6124 12.1566 16.8128 13.3292C16.1955 13.7215 15.6748 14.2374 15.3044 14.4846H15.2937ZM1.05849 11.7654C3.41824 11.7551 5.7094 10.9697 7.58028 9.52987C7.83256 9.34715 8.01507 9.15907 8.27272 8.99247L3.88191 4.62347C3.69941 4.90291 3.52228 5.06413 3.34514 5.3382C2.16109 6.88403 1.41894 8.72297 1.19805 10.6584C1.19562 11.0332 1.1615 11.4071 1.09606 11.7762L1.05849 11.7654ZM11.9818 11.1689L19.2819 3.84425C19.0565 3.68841 18.8579 3.51107 18.6324 3.30686C17.7354 2.62007 16.7378 2.07626 15.6748 1.69468C14.7829 1.37436 13.854 1.16851 12.9104 1.08205C12.8908 2.64409 12.5586 4.18633 11.9335 5.61765C11.5394 6.55571 11.0232 7.4375 10.3983 8.24013L9.79715 8.99785L11.9818 11.1474V11.1689ZM9.02957 8.22401L4.63876 3.855C4.90178 3.67766 5.08429 3.48957 5.33657 3.31761L6.44769 2.54913C6.59798 2.45778 6.6946 2.42554 6.85027 2.34493C6.97655 2.26402 7.10738 2.19045 7.24211 2.1246C8.49837 1.52572 9.8577 1.17364 11.2464 1.08743C11.5524 1.08743 11.6114 1.03369 11.853 1.02832C11.8156 2.44372 11.5209 3.84047 10.9834 5.15012C10.5743 6.13737 10.0167 7.05618 9.33016 7.8747C9.21207 8.03054 9.12082 8.10578 9.02957 8.24013V8.22401ZM0.00104628 11.9374C-0.0123625 12.9067 0.103163 13.8736 0.344581 14.8124C0.61372 15.9066 1.03471 16.9576 1.59526 17.9347C1.77149 18.2514 1.96502 18.5582 2.17498 18.8536C3.80944 21.2055 6.23045 22.8942 9.00031 23.6145C11.7702 24.3349 14.706 24.0393 17.2771 22.7812C19.8483 21.5231 21.8849 19.3855 23.0189 16.7549C24.1528 14.1244 24.3093 11.1744 23.4599 8.43846C22.6105 5.70248 20.8114 3.36103 18.3878 1.83743C15.9643 0.31384 13.0762 -0.291336 10.2457 0.131316C7.41522 0.553968 4.8292 1.97655 2.95518 4.14188C1.08116 6.3072 0.0428181 9.07234 0.0278845 11.9374H0.00104628Z" fill="#0F1111"/>
</svg>
