<svg width="24" height="24" viewBox="0 0 24 24" fill="none" xmlns="http://www.w3.org/2000/svg">
<path fill-rule="evenodd" clip-rule="evenodd" d="M2.4112 6.32615C2.46728 6.4171 2.50327 6.5276 2.51503 6.64497C2.5268 6.76234 2.51386 6.88182 2.4777 6.98969C1.7762 7.89452 1.26548 9.03579 0.998025 10.2962C0.87286 10.9568 0.823792 11.6396 0.852552 12.3205C0.904561 13.5659 1.22377 14.7638 1.77111 15.7676C2.00387 16.2062 2.26157 16.3974 2.22832 16.8191C2.22188 16.9265 2.19276 17.0292 2.14443 17.1148C2.0961 17.2005 2.0306 17.2656 1.95572 17.3023C1.88083 17.339 1.79973 17.3459 1.72205 17.322C1.64438 17.2982 1.5734 17.2446 1.51757 17.1678C0.966902 16.359 0.55028 15.4004 0.295595 14.3561C0.2665 14.2381 0.237405 14.1425 0.212467 14.03C0.187529 13.9175 0.175059 13.8163 0.150121 13.687C-0.0397001 12.5784 -0.0496264 11.4273 0.121026 10.313C0.361511 8.78244 0.941532 7.38761 1.78358 6.3149C1.84306 6.23343 1.91951 6.17847 2.00269 6.15737C2.08588 6.13627 2.17185 6.15003 2.2491 6.19681C2.3024 6.23532 2.35377 6.27853 2.40289 6.32615H2.4112ZM11.2311 21.9531C11.2236 21.8211 11.2364 21.6883 11.2686 21.5632C11.3008 21.4381 11.3518 21.3234 11.4183 21.2262C11.4848 21.129 11.5655 21.0515 11.6552 20.9985C11.745 20.9455 11.8418 20.9181 11.9397 20.9181C12.0376 20.9181 12.1345 20.9455 12.2242 20.9985C12.314 21.0515 12.3946 21.129 12.4612 21.2262C12.5277 21.3234 12.5787 21.4381 12.6109 21.5632C12.6431 21.6883 12.6559 21.8211 12.6484 21.9531C12.6347 22.1947 12.5541 22.4204 12.4227 22.5851C12.2913 22.7498 12.1188 22.8412 11.9397 22.8412C11.7606 22.8412 11.5881 22.7498 11.4567 22.5851C11.3254 22.4204 11.2448 22.1947 11.2311 21.9531ZM7.27002 2.8791H16.6094V19.7488H7.27002V2.8791ZM14.0117 1.43955C14.0117 1.03468 14.4273 1.00655 14.4273 1.47891C14.4235 1.55348 14.3979 1.62292 14.3562 1.67196C14.3145 1.72099 14.2601 1.74561 14.205 1.74039C14.1499 1.73517 14.0985 1.70054 14.0623 1.64412C14.026 1.5877 14.0078 1.51412 14.0117 1.43955ZM10.4372 1.47891C10.4372 1.34395 10.4871 1.19774 10.5827 1.19774H13.3051C13.4838 1.19774 13.5046 1.68134 13.3051 1.68134H10.5785C10.5408 1.67514 10.5058 1.65168 10.4794 1.61485C10.4529 1.57803 10.4366 1.53005 10.433 1.47891H10.4372ZM6.35977 1.87816V22.1218C6.39073 22.6059 6.54693 23.0597 6.80087 23.4032C7.05482 23.7468 7.39022 23.9581 7.74801 24H16.1356C16.4939 23.9583 16.8298 23.7472 17.0844 23.4037C17.3391 23.0602 17.4961 22.6064 17.528 22.1218V1.87816C17.4969 1.39322 17.3401 0.938756 17.0853 0.595076C16.8305 0.251395 16.4941 0.0406213 16.1356 0H7.74385C7.38888 0.043946 7.05374 0.241081 6.78788 0.562324C6.54817 0.917811 6.40204 1.37054 6.37224 1.85004L6.35977 1.87816ZM19.3277 15.194C19.9327 14.3036 20.2526 13.1254 20.2176 11.9169C20.1825 10.7083 19.7954 9.56771 19.1407 8.74415C19.0701 8.62633 18.9679 8.55125 18.8564 8.53543C18.745 8.51961 18.6334 8.56434 18.5463 8.65979C18.4592 8.75524 18.4037 8.89358 18.3921 9.04438C18.3804 9.19518 18.4134 9.3461 18.484 9.46392C18.7464 9.78123 18.9597 10.1657 19.1117 10.5952C19.2637 11.0247 19.3512 11.4907 19.3693 11.9663C19.398 12.6861 19.2521 13.399 18.9536 13.9963C18.8664 14.1762 18.7458 14.328 18.6627 14.5023C18.3967 15.0647 19.0035 15.6832 19.3402 15.194H19.3277ZM19.9761 7.52389C20.0158 7.46518 20.0637 7.41771 20.117 7.3842C20.1703 7.35069 20.2281 7.33182 20.2868 7.32868C20.3456 7.32554 20.4042 7.3382 20.4593 7.36592C20.5144 7.39364 20.5649 7.43586 20.6079 7.49016C21.4974 8.62289 22.021 10.1842 22.0654 11.8358C22.1097 13.4873 21.6712 15.096 20.8448 16.313C20.8175 16.3776 20.7811 16.4343 20.7376 16.4799C20.6941 16.5255 20.6444 16.559 20.5913 16.5786C20.5383 16.5982 20.4829 16.6034 20.4283 16.594C20.3737 16.5847 20.3211 16.5608 20.2733 16.5239C20.2255 16.487 20.1836 16.4377 20.1499 16.3788C20.1163 16.32 20.0915 16.2528 20.077 16.181C20.0625 16.1092 20.0587 16.0342 20.0656 15.9604C20.0725 15.8866 20.0901 15.8153 20.1174 15.7507C20.1958 15.5441 20.2967 15.3545 20.4167 15.1884C20.7121 14.6895 20.9311 14.116 21.0609 13.5014L21.1607 12.9391C21.2138 12.5783 21.232 12.2097 21.2147 11.8425C21.2029 11.3743 21.1427 10.9106 21.036 10.4649C20.9683 10.1903 20.8849 9.92336 20.7866 9.66636C20.5863 9.1657 20.3313 8.70882 20.0302 8.31115C19.9862 8.2638 19.9498 8.20489 19.9232 8.13799C19.8966 8.07109 19.8802 7.99758 19.8752 7.9219C19.8701 7.84622 19.8765 7.76995 19.8938 7.69767C19.9112 7.6254 19.9392 7.55863 19.9761 7.5014V7.52389ZM21.5888 6.39925C21.5327 6.4902 21.4967 6.60071 21.485 6.71808C21.4732 6.83544 21.4861 6.95492 21.5223 7.06279C22.223 7.96624 22.7337 9.1054 23.002 10.3636C23.1272 11.0262 23.1762 11.7109 23.1474 12.3936C23.0947 13.6388 22.7756 14.8364 22.2289 15.8407C21.9961 16.2793 21.7384 16.4705 21.7675 16.8922C21.7733 17.0008 21.8022 17.1048 21.8507 17.1916C21.8993 17.2784 21.9655 17.3442 22.0412 17.3811C22.1169 17.418 22.1988 17.4244 22.2772 17.3995C22.3555 17.3746 22.4268 17.3195 22.4824 17.2409C23.0331 16.4321 23.4497 15.4735 23.7044 14.4292C23.7335 14.3111 23.7626 14.2156 23.7875 14.1031C23.8125 13.9906 23.8249 13.8894 23.8499 13.7601C24.0397 12.6515 24.0496 11.5004 23.879 10.3861C23.6397 8.85491 23.0595 7.45959 22.2164 6.388C22.1577 6.30676 22.0823 6.25145 21.9999 6.22937C21.9176 6.20729 21.8322 6.21946 21.7551 6.26429C21.7343 6.26429 21.6137 6.38238 21.6013 6.39925H21.5888ZM4.67228 15.104C4.0673 14.2128 3.74815 13.0335 3.78477 11.8245C3.82139 10.6155 4.21079 9.47542 4.86763 8.65417C4.93818 8.53635 5.04043 8.46127 5.1519 8.44545C5.26336 8.42964 5.37491 8.47437 5.46199 8.56982C5.54908 8.66527 5.60457 8.80361 5.61626 8.95442C5.62795 9.10522 5.59489 9.25613 5.52434 9.37395C5.26192 9.69126 5.04857 10.0758 4.89661 10.5053C4.74466 10.9348 4.65711 11.4007 4.63903 11.8763C4.61029 12.5962 4.75625 13.309 5.05467 13.9063C5.14195 14.0862 5.26249 14.238 5.34561 14.4124C5.61162 14.9747 5.00479 15.5933 4.66812 15.104H4.67228ZM4.03635 7.43393C3.99667 7.37522 3.94879 7.32773 3.89546 7.29422C3.84213 7.26071 3.78442 7.24185 3.72567 7.23871C3.66691 7.23557 3.60828 7.24823 3.55317 7.27595C3.49806 7.30366 3.44755 7.34589 3.40458 7.40018C2.51511 8.53291 1.99145 10.0943 1.94711 11.7458C1.90276 13.3973 2.3413 15.006 3.16766 16.2231C3.22278 16.3535 3.31396 16.4491 3.42113 16.4886C3.4742 16.5082 3.5296 16.5135 3.58417 16.5041C3.63874 16.4947 3.69141 16.4708 3.73917 16.4339C3.78693 16.397 3.82884 16.3477 3.86252 16.2889C3.8962 16.23 3.92099 16.1628 3.93546 16.091C3.94994 16.0192 3.95381 15.9443 3.94688 15.8704C3.93994 15.7966 3.92232 15.7253 3.89503 15.6607C3.8142 15.4561 3.71356 15.267 3.59577 15.0984C3.30036 14.5995 3.08135 14.0261 2.95153 13.4114L2.85178 12.8491C2.79854 12.4883 2.78038 12.1197 2.79774 11.7526C2.8099 11.2844 2.87005 10.8207 2.97647 10.3749C3.04415 10.1004 3.12753 9.83339 3.22585 9.57638C3.42617 9.07573 3.6812 8.61884 3.98232 8.22118C4.06609 8.12599 4.11875 7.98995 4.12886 7.84257C4.13898 7.69519 4.10574 7.54836 4.03635 7.43393Z" fill="#0F1111"/>
</svg>
