<svg width="24" height="24" viewBox="0 0 24 24" fill="none" xmlns="http://www.w3.org/2000/svg">
<path fill-rule="evenodd" clip-rule="evenodd" d="M12.3007 17.8997C12.8131 17.9484 13.309 18.0708 13.7624 18.2606C13.9732 18.3408 14.1704 18.4408 14.3494 18.5583L14.6546 18.7657C16.1221 19.8527 15.9108 21.0706 15.9108 22.5365H12.2538V17.8997H12.3007ZM21.4991 23.0371C21.1924 23.0343 20.8975 22.9458 20.6695 22.7881C20.4416 22.6304 20.2962 22.4142 20.2606 22.1801C20.2452 22.0605 20.2612 21.9398 20.3075 21.825C20.3538 21.7102 20.4294 21.6036 20.5301 21.5116C20.6307 21.4196 20.7542 21.3439 20.8934 21.2891C21.0326 21.2343 21.1847 21.2014 21.3406 21.1923C21.5306 21.1696 21.7249 21.1841 21.9055 21.2345C22.0862 21.285 22.2473 21.3698 22.3738 21.481C22.5728 21.6657 22.6772 21.8999 22.6673 22.1395C22.653 22.3752 22.5247 22.5984 22.3076 22.7652C22.0904 22.9321 21.8 23.0306 21.4933 23.0416L21.4991 23.0371ZM1.27084 20.2181H7.38746V21.1202H1.27084V20.2181ZM3.7304 18.7342C3.7304 18.2831 4.08847 18.3327 4.51112 18.3327C5.09813 18.3327 4.93377 18.7838 4.93377 19.2348H3.75975V18.7161L3.7304 18.7342ZM19.6677 14.1155H20.871V15.9602H19.6677V14.1155ZM18.4173 13.5923C18.4173 13.4726 18.4792 13.3579 18.5893 13.2733C18.6994 13.1887 18.8487 13.1412 19.0044 13.1412H20.8886V12.2391H17.0203C15.7776 12.2462 14.5885 12.6286 13.7098 13.3038C12.8311 13.979 12.3334 14.8927 12.3242 15.8475V16.93C13.3502 16.9978 14.3288 17.2923 15.1418 17.7779C15.8796 18.2323 16.4603 18.8195 16.8324 19.4874C17.3431 20.3895 17.2375 21.5306 17.2375 22.55H19.1159C18.8224 22.0989 19.1746 21.269 19.6031 20.8766C19.9432 20.5767 20.3934 20.3629 20.8945 20.2632V16.93H18.9633C18.8117 16.9174 18.6724 16.86 18.5749 16.77C18.4773 16.6799 18.4293 16.5642 18.4408 16.4474V13.5968L18.4173 13.5923ZM19.6677 9.89821H20.8417V11.2513H19.6677V9.89821ZM3.7304 17.4171C3.37819 17.5479 3.1023 17.584 2.86163 17.8321C2.39202 18.3192 2.4742 18.6394 2.4742 19.2619H0.648605C0.208349 19.2619 0.0205069 19.5731 0.0205069 19.9069C0.0205069 20.3579 -0.0792813 21.6705 0.161392 21.923C0.221661 21.9783 0.295925 22.0236 0.379679 22.0562C0.463434 22.0888 0.554927 22.1079 0.648605 22.1125H7.96273C8.05319 22.1171 8.14389 22.1068 8.22882 22.0824C8.31374 22.0581 8.39096 22.0201 8.45534 21.971C8.51972 21.922 8.56981 21.863 8.60227 21.798C8.63474 21.7329 8.64885 21.6633 8.64366 21.5938V19.767C8.63147 19.6422 8.56138 19.5248 8.44613 19.4362C8.33087 19.3477 8.1781 19.2938 8.01556 19.2844H6.18409C6.18409 18.6845 6.28389 18.2696 5.77906 17.8321C5.67477 17.737 5.55201 17.6548 5.41511 17.5885C5.33523 17.5549 5.25291 17.5247 5.16857 17.4983C5.0453 17.4577 4.9866 17.4983 4.9866 17.3585V10.1463C5.04051 9.57845 5.31657 9.03642 5.77855 8.5913C6.24053 8.14617 6.86684 7.81875 7.5753 7.65201C8.44408 7.45806 8.78454 7.65201 10.1229 7.36334C10.8077 7.18766 11.4348 6.89988 11.9608 6.51987C12.4868 6.13985 12.8992 5.67665 13.1695 5.16225C13.8446 3.80912 13.1695 2.86643 14.0852 1.93277C14.2926 1.71933 14.5422 1.53214 14.8249 1.37799C14.9726 1.29903 15.1299 1.23107 15.2945 1.17502C15.7559 1.01106 16.2635 0.938796 16.7707 0.964846C17.2779 0.990897 17.7685 1.11443 18.1974 1.32411C18.6263 1.53379 18.9798 1.82289 19.2254 2.16488C19.471 2.50687 19.6009 2.89079 19.6031 3.28139V8.94199C18.1356 8.94199 18.4291 8.86081 18.4291 11.2739H17.0672C16.2768 11.2709 15.4934 11.3883 14.7623 11.6194C14.0313 11.8504 13.3671 12.1905 12.8082 12.62C12.2492 13.0495 11.8066 13.5598 11.5059 14.1216C11.2052 14.6833 11.0524 15.2852 11.0563 15.8926V22.9965C11.0563 23.6911 11.9955 23.5197 13.3045 23.5197H19.1746C20.2136 23.5197 19.6266 23.4837 20.3486 23.7633C20.8999 23.9979 21.5473 24.061 22.1574 23.9396C22.7674 23.8181 23.2935 23.5214 23.6271 23.1105C23.9607 22.6997 24.0764 22.2062 23.9502 21.7317C23.824 21.2573 23.4657 20.8382 22.949 20.5609C22.7056 20.4444 22.4481 20.3462 22.1801 20.2677V14.4041C22.1801 13.4524 22.2212 12.397 22.1272 11.5129C22.0744 10.9897 22.1742 9.58699 22.1272 9.30734C22.0509 8.85629 21.3935 8.94199 20.9532 8.94199V3.2002C20.9297 2.65897 20.7338 2.13043 20.3826 1.66092C20.0314 1.19141 19.5356 0.795263 18.9388 0.507209C18.342 0.219156 17.6624 0.0479907 16.9594 0.00871799C16.2565 -0.0305548 15.5518 0.0632653 14.907 0.281952C14.18 0.547116 13.555 0.952753 13.0932 1.45918C11.6433 3.10098 13.2517 4.42253 11.0915 5.90196C10.6716 6.17405 10.1784 6.37122 9.64744 6.47929C8.34428 6.73188 6.78871 6.32143 4.89855 7.97225C4.11763 8.69268 3.72862 9.61686 3.81258 10.5522L3.7304 17.4171Z" fill="#0F1111"/>
</svg>
