<svg width="26" height="26" viewBox="0 0 26 26" fill="none" xmlns="http://www.w3.org/2000/svg">
<path fill-rule="evenodd" clip-rule="evenodd" d="M10.2836 21.3014C10.2698 20.7042 10.4012 20.1155 10.6612 19.6094C10.9213 19.1034 11.2983 18.7028 11.7447 18.4581C12.1911 18.2135 12.6869 18.1357 13.1694 18.2348C13.652 18.3339 14.0997 18.6052 14.456 19.0147C16.1023 20.9858 14.8641 24.2082 12.8732 24.2082H12.6237C12.0066 24.1686 11.4241 23.8481 10.9909 23.3101C10.5578 22.772 10.3054 22.0554 10.2836 21.3014ZM18.1839 6.80042C18.2832 6.79531 18.3774 6.74514 18.448 6.65974C18.5186 6.57433 18.5606 6.45983 18.5657 6.33864C18.5708 6.21745 18.5387 6.09829 18.4756 6.00449C18.4125 5.91069 18.3231 5.84899 18.2247 5.83147C18.1254 5.83658 18.0312 5.88675 17.9606 5.97216C17.89 6.05757 17.8481 6.17207 17.843 6.29326C17.8379 6.41445 17.87 6.5336 17.933 6.6274C17.9961 6.7212 18.0856 6.7829 18.1839 6.80042ZM14.9231 6.80042C15.0224 6.79531 15.1166 6.74514 15.1872 6.65974C15.2578 6.57433 15.2998 6.45983 15.3049 6.33864C15.31 6.21745 15.2779 6.09829 15.2148 6.00449C15.1517 5.91069 15.0623 5.84899 14.9639 5.83147C14.8646 5.83658 14.7704 5.88675 14.6998 5.97216C14.6292 6.05757 14.5873 6.17207 14.5821 6.29326C14.577 6.41445 14.6092 6.5336 14.6722 6.6274C14.7353 6.7212 14.8247 6.7829 14.9231 6.80042ZM18.8551 21.1962C18.8584 21.2894 18.8899 21.3779 18.9435 21.4444C18.9971 21.5109 19.0691 21.5507 19.1454 21.5561C19.7123 21.5561 19.1454 20.3657 20.2157 20.0556C20.4878 19.9781 20.6919 20.0556 20.6919 19.668C20.6919 18.8098 18.8551 19.5241 18.8551 21.1962ZM11.2042 21.1464C11.1938 21.228 11.2067 21.3115 11.2408 21.3829C11.2748 21.4543 11.3279 21.5092 11.3912 21.5384C11.4545 21.5676 11.5241 21.5693 11.5883 21.5433C11.6525 21.5173 11.7075 21.4651 11.7439 21.3955C11.8255 21.2183 11.7439 20.2882 12.5285 20.0611C12.7961 19.9836 13.041 20.0611 13.041 19.6127C13.041 18.9095 11.2042 19.4521 11.2042 21.1464ZM5.39008 20.3823C5.49511 20.3757 5.60008 20.3964 5.69807 20.443C5.79606 20.4896 5.88484 20.5611 5.95856 20.6526C6.03228 20.7442 6.08925 20.8538 6.12572 20.9742C6.16219 21.0946 6.17733 21.2231 6.17014 21.3512C6.16474 21.5333 6.11593 21.7095 6.02969 21.8582C5.94344 22.0068 5.82353 22.1216 5.68465 22.1882C5.54577 22.2549 5.39396 22.2706 5.24787 22.2335C5.10178 22.1963 4.96774 22.1079 4.86222 21.979C4.7567 21.8502 4.68429 21.6866 4.65385 21.5082C4.62341 21.3299 4.63629 21.1445 4.69089 20.975C4.7455 20.8054 4.83946 20.659 4.96124 20.5538C5.08303 20.4485 5.22734 20.3889 5.37648 20.3823H5.39008ZM4.0522 21.3014C4.06424 21.7325 4.20839 22.1425 4.45614 22.4501C4.70389 22.7576 5.03719 22.9405 5.39008 22.9624C5.74019 22.9629 6.07697 22.7986 6.33038 22.5037C6.58378 22.2087 6.73431 21.8059 6.75064 21.3789C6.76687 21.1407 6.73902 20.9011 6.66915 20.6778C6.59929 20.4544 6.48919 20.2532 6.34701 20.0888C6.18772 19.9061 5.99471 19.7729 5.78432 19.7005C5.57392 19.6281 5.35234 19.6187 5.13833 19.673C4.92432 19.7273 4.72418 19.8438 4.55486 20.0125C4.38553 20.1813 4.252 20.3974 4.16558 20.6425C4.1 20.8548 4.05583 21.0761 4.03405 21.3014H4.0522ZM3.97056 14.1035L4.42408 14.9174C4.5862 15.1898 4.72596 15.4809 4.84132 15.7867H3.08619L3.73926 14.5409C3.82997 14.3803 3.88439 14.253 3.96603 14.1035H3.97056ZM2.25625 16.0912C2.25625 16.3404 2.31067 16.501 2.5465 16.501H5.47625C5.59417 16.501 5.72569 16.2906 5.72569 16.1411C5.72569 15.9916 5.02727 14.7569 4.91842 14.5243L4.29709 13.3228C4.22907 13.1899 4.16557 13.0515 4.00684 13.0349C3.73473 13.0349 3.4853 13.655 3.28121 14.0592C3.20411 14.2142 3.14515 14.3028 3.06806 14.4579L2.25625 16.0912ZM4.5556 7.23229H6.31073V9.32522H4.5556V7.23229ZM3.97056 6.87794V9.68511C3.96436 9.73337 3.96759 9.78274 3.97998 9.82919C3.99238 9.87564 4.01358 9.91786 4.04188 9.9524C4.07017 9.98694 4.10475 10.0128 4.1428 10.028C4.18085 10.0431 4.22128 10.047 4.26081 10.0395H6.64634C6.78239 10.0395 6.89577 9.818 6.89577 9.62974V6.95545C6.89577 6.62878 6.77786 6.44606 6.51935 6.44606H4.3878C4.13837 6.44606 3.97056 6.55126 3.97056 6.85579V6.87794ZM17.3494 8.45593C16.8499 8.67717 16.3025 8.67717 15.8029 8.45593C15.8179 8.21805 15.9058 7.99582 16.0492 7.83369C16.1925 7.67156 16.3808 7.58148 16.5762 7.58148C16.7716 7.58148 16.9598 7.67156 17.1032 7.83369C17.2466 7.99582 17.3345 8.21805 17.3494 8.45593ZM16.3018 9.32522C15.8256 9.32522 15.227 8.99301 15.236 8.47254C15.2332 8.18569 15.2912 7.90283 15.4045 7.65151C15.5178 7.40018 15.6825 7.18897 15.8825 7.03843C16.0826 6.8879 16.3111 6.80317 16.5459 6.79251C16.7807 6.78185 17.0138 6.84562 17.2224 6.9776C17.4584 7.12268 17.6527 7.35169 17.7798 7.6344C17.907 7.91711 17.9609 8.24024 17.9345 8.56113C17.9345 9.02623 17.295 9.32522 16.8868 9.32522C16.8868 9.93427 16.8324 10.1724 17.3086 10.0395C17.354 9.78477 17.354 9.5633 17.5535 9.48579C17.939 9.31414 18.1159 10.0395 17.6941 10.5322C17.5413 10.7038 17.3449 10.8062 17.1378 10.8223C16.9306 10.8385 16.7252 10.7673 16.5558 10.6208C16.3904 10.7741 16.1843 10.8471 15.9774 10.8256C15.7704 10.8042 15.5774 10.6898 15.4356 10.5046C14.9821 9.88998 15.3585 9.1868 15.7077 9.55223C15.871 9.72387 15.7576 10.1059 16.0524 10.1059C16.3471 10.1059 16.3018 9.64635 16.3018 9.34183V9.32522ZM7.6849 24.2304C7.87538 24.2304 7.81188 23.8705 7.81188 23.6158V18.461C7.35836 18.3392 3.90707 18.4112 3.17236 18.4112C3.07259 18.4112 3.04538 18.4499 3.04538 18.5662V24.2304H7.6849ZM1.58504 17.4201C1.58734 17.5076 1.60271 17.5939 1.63039 17.6748H6.35154V12.0106C6.35154 11.8888 6.32434 11.8556 6.2291 11.8556H1.75284C1.73063 11.8548 1.70854 11.8596 1.68789 11.8696C1.66725 11.8796 1.6485 11.8947 1.6328 11.9139C1.61709 11.933 1.60475 11.9559 1.59654 11.9811C1.58833 12.0063 1.58441 12.0333 1.58504 12.0604V17.4201ZM7.68944 11.1413C7.87992 11.1413 7.81642 10.7814 7.81642 10.5267V5.37192C7.74993 5.34001 7.67924 5.32313 7.6078 5.32209C6.87763 5.32209 3.49436 5.25011 3.07259 5.37192V11.1413H7.68944ZM2.46487 5.32209V11.1413C1.82994 11.1413 1 10.9863 1 12.1102V17.5197C1 18.5883 1.90704 18.389 2.46487 18.389V24.1584C2.45645 24.3474 2.50622 24.5334 2.6044 24.6799C2.70258 24.8264 2.84207 24.9228 2.99549 24.9502H7.80282C7.96473 24.9246 8.11346 24.8278 8.22115 24.678C8.32884 24.5282 8.3881 24.3356 8.38786 24.1363V18.5994C8.38786 17.564 7.48082 17.7301 6.92299 17.7301V11.8556C7.47628 11.8556 8.38786 12.0493 8.38786 11.0416V5.5048C8.38852 5.38175 8.36778 5.25993 8.32701 5.1474C8.28623 5.03487 8.22636 4.93419 8.15133 4.85201C8.07631 4.76984 7.98785 4.70805 7.8918 4.67073C7.79576 4.63341 7.69432 4.62141 7.59419 4.63552H3.24493C2.8549 4.63552 2.45127 4.90682 2.45127 5.34977L2.46487 5.32209ZM17.9345 21.1962C17.9386 20.6116 18.0812 20.041 18.345 19.5532C18.6089 19.0654 18.9827 18.6812 19.4215 18.4471C19.8602 18.2129 20.3451 18.1388 20.8176 18.2336C21.29 18.3284 21.7299 18.5882 22.0842 18.9815C22.3293 19.256 22.5261 19.5885 22.6627 19.9587C22.7993 20.329 22.8728 20.7293 22.8787 21.1353C22.8847 21.5413 22.8229 21.9445 22.6972 22.3205C22.5716 22.6965 22.3846 23.0373 22.1477 23.3223C21.959 23.5784 21.7289 23.7839 21.4719 23.9259C21.0941 24.1414 20.6778 24.2375 20.2615 24.205C19.8453 24.1726 19.4424 24.0128 19.09 23.7403C18.7376 23.4679 18.4471 23.0915 18.2451 22.6459C18.0432 22.2004 17.9364 21.6999 17.9345 21.1907V21.1962ZM20.9005 13.7436C20.9912 13.9042 21.3223 14.397 21.3223 14.6129C21.3178 14.69 21.2934 14.7634 21.2526 14.8226C21.2118 14.8817 21.1567 14.9235 21.0952 14.9419C21.0337 14.9604 20.969 14.9546 20.9104 14.9253C20.8517 14.896 20.8022 14.8448 20.769 14.779L20.1567 13.7381C19.8615 13.3161 19.5318 12.932 19.1726 12.592C18.5649 12.0383 18.6828 12.2321 18.2202 12.4646C17.2836 12.959 16.2301 13.0123 15.2632 12.6141C14.4605 12.304 14.6238 12.0604 14.2292 12.3871C13.9329 12.6307 13.6578 12.9109 13.4083 13.2231C12.9095 13.8322 12.6736 14.5298 12.3063 13.8267L11.6895 12.7193C11.4978 12.3892 11.2271 12.1396 10.9146 12.0048C10.6021 11.87 10.2631 11.8565 9.94409 11.9663C9.62508 12.0761 9.34173 12.3038 9.13293 12.618C8.92412 12.9323 8.8001 13.3177 8.77788 13.7215C8.77788 14.9673 9.23141 15.2939 10.0387 15.9362L11.0364 16.7612C11.0364 16.5397 11.5172 14.8233 11.7893 14.8233C11.9163 14.8233 12.0886 14.8233 12.143 15.1057C12.1974 15.3881 11.4718 16.7169 11.4537 17.7855C11.9026 17.525 12.397 17.4024 12.8936 17.4286C13.3902 17.4548 13.8741 17.6289 14.303 17.9358C14.7319 18.2426 15.0928 18.6729 15.3542 19.1891C15.6157 19.7053 15.7697 20.2917 15.8029 20.8972C15.8029 23.2171 14.9458 23.4774 14.8415 23.9591C15.0319 23.9591 15.3675 24.0698 15.5626 24.0975C15.9883 24.1608 16.4174 24.183 16.846 24.1639C17.5354 24.1639 18.0569 23.9591 18.3517 23.9591L17.9753 23.4054C17.8499 23.2096 17.742 22.998 17.6533 22.7742C17.3811 22.0808 17.2913 21.3015 17.3962 20.5433C17.5011 19.7852 17.7955 19.0851 18.2391 18.5393C18.6828 17.9935 19.2538 17.6286 19.874 17.4946C20.4942 17.3606 21.1332 17.4642 21.7032 17.791C21.6352 17.0602 21.549 17.3204 22.2747 16.6837L22.9187 16.13C23.3746 15.8035 23.7875 15.3947 24.1432 14.9174C24.2982 14.6056 24.3828 14.2492 24.3884 13.8845C24.3939 13.5198 24.3203 13.1598 24.1749 12.8411C24.0331 12.5497 23.8317 12.3082 23.5904 12.1406C23.349 11.9729 23.0762 11.8847 22.7985 11.8847C22.5208 11.8847 22.2479 11.9729 22.0066 12.1406C21.7653 12.3082 21.5639 12.5497 21.4221 12.8411C21.3495 12.974 21.3177 13.0072 21.2452 13.1346L20.9005 13.7381V13.7436ZM19.7758 5.47712C19.7758 5.79272 20.6828 7.28212 19.9118 9.52454C19.5392 10.5002 18.8969 11.2843 18.0977 11.7393C17.3358 12.159 16.4791 12.2473 15.6703 11.9894C14.8616 11.7315 14.1497 11.1429 13.6532 10.3218C12.1521 7.87457 13.499 5.42728 13.499 5.30547C13.499 4.99541 13.363 4.95112 13.2042 4.95112C13.0455 4.95112 12.9457 5.18366 12.5512 4.51924C12.442 4.31245 12.3691 4.08022 12.3372 3.83726C12.3054 3.59431 12.3152 3.34592 12.366 3.10783C12.4168 2.86973 12.5076 2.64712 12.6326 2.45408C12.7576 2.26104 12.914 2.10179 13.092 1.9864C13.27 1.87101 13.4657 1.802 13.6667 1.78374C13.8677 1.76548 14.0696 1.79836 14.2596 1.88032C14.4496 1.96227 14.6237 2.0915 14.7707 2.25982C14.9177 2.42815 15.0344 2.63191 15.1136 2.85819C15.1136 2.89695 15.2088 3.45063 15.3812 3.45063C15.5729 3.43209 15.7627 3.3913 15.9481 3.32882C16.3493 3.23198 16.7622 3.23198 17.1635 3.32882C17.8166 3.43956 17.8438 3.73855 18.0433 2.94125C18.1225 2.65133 18.2613 2.39103 18.4463 2.18519C18.6313 1.97934 18.8565 1.83481 19.1003 1.7654C19.344 1.69599 19.5983 1.70402 19.8389 1.7887C20.0794 1.87338 20.2981 2.03191 20.4742 2.24914C20.5968 2.39681 20.6953 2.57155 20.7644 2.76407C20.8819 3.07698 20.9209 3.42534 20.8765 3.76526C20.8321 4.10518 20.7063 4.42146 20.515 4.67427C20.4114 4.82336 20.287 4.94895 20.1477 5.04524C20.0071 5.13937 19.7758 5.19474 19.7758 5.45497V5.47712ZM11.7031 3.35651C11.6651 3.82505 11.7402 4.29693 11.9191 4.71405C12.098 5.13117 12.3729 5.47532 12.7099 5.70413C12.4625 6.42048 12.3487 7.1951 12.377 7.97178C12.4052 8.74847 12.5747 9.50774 12.8732 10.1945C13.295 11.1801 13.6941 11.3683 13.9208 11.778L13.2496 12.4369C13.0228 12.6529 12.8641 12.9574 12.6237 13.1567C12.0478 12.1047 11.5534 11.2133 10.3244 11.2133C9.77124 11.2334 9.24462 11.5073 8.84954 11.9804C8.45447 12.4534 8.21999 13.091 8.19285 13.7658C8.19285 15.6649 9.19966 16.1521 10.4605 17.2374L10.8777 17.5973C10.8777 18.6382 10.6192 18.4388 10.1929 19.2085C9.83665 19.8888 9.66904 20.691 9.71477 21.4965C9.7605 22.3021 10.0171 23.0684 10.4468 23.6822C12.0977 25.9468 14.075 24.5349 14.2428 24.5626C14.4106 24.5903 14.592 24.6899 14.7326 24.7287C14.8732 24.7675 15.0773 24.8173 15.295 24.8616L16.524 25L17.7259 24.8837C18.102 24.827 18.4736 24.7326 18.837 24.6014C19.0728 24.5183 19.0547 24.6013 19.2905 24.6955C19.7141 24.9105 20.1726 25.0033 20.6304 24.9668C21.0882 24.9303 21.5329 24.7655 21.93 24.4851C22.3661 24.1827 22.735 23.7547 23.0046 23.2384C23.2741 22.7221 23.4361 22.1332 23.4765 21.5229C23.5505 20.6914 23.3714 19.8558 22.9731 19.1752C22.4334 18.1731 22.3881 18.7987 22.3064 17.5973C22.8053 17.182 23.2724 16.7556 23.7849 16.3404C24.3361 15.9703 24.7452 15.3494 24.9232 14.6129C25.0602 13.9972 25.0128 13.342 24.7895 12.7652C24.5662 12.1884 24.1816 11.7278 23.705 11.4662C23.2283 11.2046 22.6909 11.1592 22.1893 11.3382C21.6877 11.5171 21.2548 11.9087 20.9685 12.4425L20.5921 13.1567C20.4379 13.1013 20.3744 12.9629 20.2656 12.8356C19.9771 12.4328 19.6352 12.0922 19.2542 11.8279C19.3086 11.5732 19.3993 11.6507 19.6624 11.3074C20.0616 10.7926 20.3692 10.1825 20.5659 9.51546C20.7626 8.84844 20.8441 8.13895 20.8053 7.43162C20.7886 6.83365 20.6729 6.246 20.4651 5.70413C20.7433 5.497 20.9742 5.20753 21.1363 4.86253C21.4003 4.36456 21.5109 3.76828 21.4483 3.18005C21.3856 2.59181 21.1539 2.04986 20.7944 1.65084C20.4349 1.25182 19.9709 1.02168 19.4853 1.00146C18.9997 0.981233 18.524 1.17224 18.1431 1.54043C17.846 1.82548 17.6237 2.21041 17.5036 2.64779C17.168 2.64779 16.1431 2.40417 15.6623 2.69762C15.5418 2.24696 15.3145 1.85004 15.0093 1.55704C14.6182 1.16923 14.1229 0.973109 13.6198 1.00689C13.1167 1.04067 12.642 1.30193 12.2881 1.73975C11.9256 2.16296 11.7152 2.74432 11.7031 3.35651Z" fill="#0F1111" stroke="#0F1111" stroke-width="0.5" stroke-miterlimit="10"/>
</svg>
