<svg xmlns="http://www.w3.org/2000/svg" width="49" height="49" viewBox="0 0 49 49" fill="none">
  <g clip-path="url(#clip0_922_15420)">
    <path d="M18.35 28.7376H22.7525L24.425 25.9063H20.0225L18.35 28.7376ZM0.5 27.0219V27.6219H6.635L6.9875 27.0219H0.5ZM13.4675 25.9063C12.815 25.9063 13.0175 25.5688 13.1225 25.3907C13.3325 25.0344 13.6925 24.4157 13.9025 24.0688C14.1125 23.7219 14.1125 23.5157 13.6925 23.5157H9.8675L6.785 28.7469H14.2925C16.775 28.7469 18.155 26.6376 18.5825 25.9063H13.4675ZM37.28 25.2594L40.2275 20.2532H35.5625L32.615 25.2594H37.28ZM7.6475 25.9063H0.5V26.5063H7.295L7.6475 25.9063ZM15.9725 23.4125C15.7625 23.7688 15.41 24.3876 15.2 24.7438C15.095 24.9313 14.8925 25.2594 15.545 25.2594H18.965C18.965 25.2594 19.5125 24.3219 19.9775 23.5344C20.6075 22.4657 20.03 20.2532 17.7875 20.2532H8.945L7.415 22.8594H15.77C16.19 22.8594 16.1825 23.0657 15.9725 23.4125ZM0.5 28.7376H5.9825L6.335 28.1375H0.5V28.7376ZM24.725 28.7376H29.1275L30.8 25.9063H26.3975C26.39 25.9063 24.725 28.7376 24.725 28.7376ZM41.375 28.7469H48.5V28.1469H41.7275L41.375 28.7469ZM43.0475 25.9063L42.695 26.5063H48.5V25.9063H43.0475ZM42.035 27.6219H48.5V27.0219H42.3875L42.035 27.6219ZM29.72 20.2532L28.0325 23.1219H26.0675L27.755 20.2532H23.3525L20.405 25.2594H31.175L34.1225 20.2532H29.72ZM32.2325 25.9063C32.2325 25.9063 31.91 26.4594 31.7525 26.7219C31.1975 27.6594 31.685 28.7469 33.4925 28.7469H40.565L42.2375 25.9063H32.2325Z" fill="black" fill-opacity="0.9"/>
  </g>
  <defs>
    <clipPath id="clip0_922_15420">
      <rect width="48" height="48" fill="white" transform="translate(0.5 0.5)"/>
    </clipPath>
  </defs>
</svg>