<svg xmlns="http://www.w3.org/2000/svg" width="39" height="49" viewBox="0 0 39 49" fill="none">
  <g clip-path="url(#clip0_922_15427)">
    <path d="M32.7356 4.23616C30.6672 1.71186 26.9284 0.629639 22.1453 0.629639H8.26342C7.79018 0.629657 7.33247 0.81044 6.97257 1.13948C6.61268 1.46853 6.37421 1.92425 6.30004 2.42471L0.519882 41.6777C0.404992 42.4518 0.96475 43.1527 1.69744 43.1527H10.2676L12.42 28.5348L12.3532 28.9926C12.5065 27.9593 13.3318 27.1972 14.3091 27.1972H18.3817C26.3822 27.1972 32.6467 23.7176 34.4766 13.6521C34.5309 13.3544 34.578 13.0647 34.6187 12.7816C34.3877 12.6506 34.3877 12.6506 34.6187 12.7816C35.1636 9.06127 34.6149 6.52887 32.7356 4.23616Z" fill="black" fill-opacity="0.9"/>
    <path d="M15.6993 11.4414C15.9335 11.3219 16.1898 11.26 16.4493 11.2602H27.3324C28.6212 11.2602 29.8232 11.35 30.9217 11.5393C31.229 11.5918 31.5348 11.6544 31.8386 11.7272C32.2691 11.8289 32.6946 11.9534 33.1136 12.1002C33.6537 12.2933 34.1566 12.5182 34.6188 12.7816C35.1636 9.05984 34.6149 6.52887 32.7356 4.23616C30.6661 1.71186 26.9284 0.629639 22.1453 0.629639H8.26223C7.28477 0.629639 6.45323 1.3916 6.30004 2.42471L0.519883 41.6763C0.404993 42.4516 0.96475 43.1516 1.69625 43.1516H10.2676L14.7331 12.8305C14.777 12.5325 14.8879 12.2504 15.0562 12.0084C15.2245 11.7664 15.4452 11.5718 15.6993 11.4414Z" fill="#EDF5F9"/>
    <path d="M34.477 13.6523C32.6471 23.7164 26.3827 27.1973 18.3821 27.1973H14.3084C13.3311 27.1973 12.5056 27.9594 12.3538 28.9927L9.67611 47.1683C9.57606 47.8457 10.0653 48.4596 10.7054 48.4596H17.9298C18.3437 48.4594 18.7439 48.3012 19.0585 48.0134C19.3731 47.7255 19.5815 47.3269 19.6462 46.8892L19.7166 46.4951L21.0782 37.2549L21.1659 36.7442C21.2306 36.3066 21.4389 35.908 21.7535 35.6201C22.0681 35.3323 22.4683 35.1741 22.8821 35.1739H23.9634C30.9617 35.1739 36.4416 32.1296 38.043 23.3249C38.7114 19.6454 38.3655 16.5734 36.5973 14.4156C36.061 13.7621 35.395 13.2223 34.6191 12.7817C34.5771 13.0662 34.5315 13.3546 34.477 13.6523Z" fill="#00176A"/>
    <path d="M32.7036 11.964C32.4183 11.8747 32.1303 11.7958 31.84 11.7271C31.5361 11.6556 31.2304 11.5934 30.9231 11.5405C29.8235 11.35 28.6224 11.26 27.3324 11.26H16.4506C16.1909 11.2594 15.9345 11.3218 15.7006 11.4426C15.4462 11.5727 15.2252 11.7671 15.0569 12.0092C14.8885 12.2512 14.7778 12.5336 14.7342 12.8318L12.4213 28.5348L12.3545 28.9925C12.5066 27.9592 13.332 27.1971 14.3094 27.1971H18.3831C26.3836 27.1971 32.648 23.7176 34.4779 13.6521C34.5324 13.3544 34.5781 13.0659 34.6201 12.7816C34.1567 12.5196 33.6551 12.2933 33.115 12.1014C32.9787 12.0531 32.8416 12.0072 32.7038 11.964" fill="#EDF5F9"/>
  </g>
  <defs>
    <clipPath id="clip0_922_15427">
      <rect width="38" height="48" fill="white" transform="translate(0.5 0.5)"/>
    </clipPath>
  </defs>
</svg>