<svg xmlns="http://www.w3.org/2000/svg" width="49" height="33" viewBox="0 0 49 33" fill="none">
  <path d="M18.7244 0.909979L12.44 23.3628H8.34013L5.2475 5.44334C5.06 4.34229 4.89706 3.93709 4.3265 3.47151C3.39388 2.71276 1.85375 2.00316 0.5 1.56173L0.591312 0.909979H7.19206C8.03206 0.909979 8.78844 1.74763 8.98081 3.198L10.6149 16.1918L14.6491 0.909979H18.7244ZM24.2669 0.909979L21.0601 23.3628H17.1811L20.3883 0.909979H24.2669ZM34.7887 16.032C34.8048 10.1073 29.3186 9.77845 29.3544 7.13127C29.3675 6.32648 29.8794 5.46973 30.9999 5.2507C31.5549 5.14315 33.0882 5.05751 34.8251 6.256L35.5046 1.49181C34.5714 0.986359 33.3704 0.5 31.8766 0.5C28.0422 0.5 25.3451 3.55013 25.3235 7.92119C25.2984 11.1544 27.2501 12.9563 28.7178 14.0332C30.2296 15.1329 30.7366 15.8397 30.7297 16.8225C30.7188 18.329 29.5222 18.996 28.4098 19.0207C26.459 19.067 25.3282 18.231 24.4261 17.6017L23.7221 22.5237C24.6296 23.1466 26.3021 23.6877 28.0344 23.7152C32.1106 23.7152 34.7767 20.6999 34.7887 16.032ZM44.9137 23.3628H48.5L45.3669 0.909979H42.0581C41.3118 0.909979 40.6846 1.55864 40.4064 2.55579L34.5864 23.3628H38.6594L39.4674 20.0088H44.4436L44.9137 23.3628ZM40.5843 15.4078L42.6266 6.97599L43.7998 15.4078H40.5841H40.5843ZM29.2312 29.5431H27.6551V31.7399H29.4179V32.4003H27.1241V26.3062H29.3276V26.9667H27.6551V28.8922H29.231V29.5437L29.2312 29.5431ZM30.2323 25.9808H30.7633V32.4H30.2323V25.9808ZM32.1031 30.3566C32.1151 31.4329 32.5681 31.8758 33.1051 31.8758C33.4857 31.8758 33.7211 31.7764 33.9146 31.65L34.0109 32.2198C33.8238 32.3461 33.4979 32.4997 33.0327 32.4997C32.1335 32.4997 31.5963 31.6048 31.5963 30.2844C31.5963 28.9646 32.1151 27.9335 32.9666 27.9335C33.9266 27.9335 34.1741 29.1817 34.1741 29.9862C34.1741 30.1488 34.1679 30.2662 34.1557 30.3569L32.1031 30.3566ZM33.6607 29.7871C33.6669 29.2901 33.5219 28.5033 32.9242 28.5033C32.3808 28.5033 32.1513 29.2356 32.1089 29.7871H33.6607ZM37.0646 32.2464C36.9258 32.3461 36.6177 32.5 36.2255 32.5C35.3441 32.5 34.7705 31.6048 34.7705 30.2665C34.7705 28.9191 35.3861 27.9338 36.3401 27.9338C36.6539 27.9338 36.9316 28.0509 37.0766 28.1688L36.9562 28.7745C36.8289 28.6751 36.6297 28.5662 36.3401 28.5662C35.6698 28.5662 35.3079 29.3168 35.3079 30.2215C35.3079 31.2338 35.7425 31.8578 36.3221 31.8578C36.6239 31.8578 36.8231 31.7494 36.974 31.65L37.0646 32.2464ZM38.5548 26.9751V28.0239H39.3153V28.6293H38.5548V30.9895C38.5548 31.5326 38.6576 31.8395 38.9533 31.8395C39.098 31.8395 39.1828 31.8218 39.2613 31.7851L39.2855 32.3916C39.1828 32.4455 39.0198 32.4997 38.8145 32.4997C38.5668 32.4997 38.3675 32.3731 38.2409 32.1656C38.096 31.921 38.0356 31.5326 38.0356 31.0171V28.6293H37.5826V28.0239H38.0356V27.2104L38.555 26.9754L38.5548 26.9751ZM40.0573 29.3895C40.0573 28.8739 40.0509 28.4311 40.0331 28.0239H40.4981L40.5224 28.8916H40.5401C40.6732 28.3045 40.9989 27.9335 41.3549 27.9335C41.4095 27.9335 41.4519 27.9428 41.5003 27.9515V28.7024C41.4459 28.6838 41.3917 28.6838 41.3187 28.6838C40.9449 28.6838 40.6788 29.0997 40.6066 29.697C40.5942 29.8196 40.5881 29.9436 40.5884 30.0676V32.4006H40.0573V29.3895ZM44.7656 30.1758C44.7656 31.7943 44.0107 32.4997 43.3106 32.4997C42.5255 32.4997 41.9099 31.6315 41.9099 30.2485C41.9099 28.7925 42.5559 27.9338 43.3589 27.9338C44.198 27.9338 44.7656 28.8461 44.7656 30.1758ZM42.4531 30.2212C42.4531 31.1796 42.8154 31.9033 43.3346 31.9033C43.8419 31.9033 44.222 31.1883 44.222 30.203C44.222 29.4617 43.9745 28.5299 43.3466 28.5299C42.725 28.5299 42.4531 29.3985 42.4531 30.2212ZM45.5797 29.2084C45.5797 28.7476 45.5733 28.3856 45.5553 28.0242H46.0263L46.0565 28.7476H46.0685C46.2134 28.3404 46.5515 27.9338 47.0345 27.9338C47.4388 27.9338 48.0669 28.2955 48.0669 29.7958V32.4003H47.5357V29.8775C47.5357 29.1727 47.3606 28.5844 46.8596 28.5844C46.5153 28.5844 46.2434 28.9554 46.1472 29.3982C46.1229 29.4979 46.1109 29.6332 46.1109 29.7691V32.4003H45.5797V29.2084Z" fill="black" fill-opacity="0.9"/>
</svg>