<svg width="1512" height="211" viewBox="0 0 1512 211" fill="none" xmlns="http://www.w3.org/2000/svg">
<path d="M0 0H1512V142H0V0Z" fill="url(#paint0_linear_17_7411)" fill-opacity="0.82"/>
<rect x="489" y="74" width="518" height="137" fill="#CAC5CD"/>
<rect x="502" y="88" width="492" height="109" fill="#E6E0E9"/>
<rect x="515" y="98" width="466" height="89" fill="#F5F5F9"/>
<rect x="528" y="107" width="440" height="71" fill="#FAFAFC"/>
<rect x="543" y="117" width="410" height="51" fill="white"/>
<path d="M651.505 128.049L639.71 164H630.208L646.322 120.633H652.369L651.505 128.049ZM661.304 164L649.479 128.049L648.526 120.633H654.632L670.835 164H661.304ZM660.768 147.856V154.856H637.863V147.856H660.768ZM674.32 118.25H682.898V156.613L682.035 164H674.32V118.25ZM703.301 147.559V148.184C703.301 150.587 703.043 152.791 702.527 154.796C702.03 156.802 701.256 158.539 700.204 160.009C699.151 161.458 697.841 162.59 696.272 163.404C694.723 164.199 692.896 164.596 690.792 164.596C688.826 164.596 687.118 164.199 685.668 163.404C684.239 162.61 683.037 161.488 682.064 160.039C681.091 158.589 680.307 156.891 679.711 154.945C679.116 152.999 678.669 150.875 678.371 148.571V147.201C678.669 144.898 679.116 142.773 679.711 140.827C680.307 138.881 681.091 137.183 682.064 135.734C683.037 134.284 684.239 133.162 685.668 132.368C687.098 131.574 688.786 131.177 690.732 131.177C692.857 131.177 694.703 131.584 696.272 132.398C697.861 133.192 699.171 134.324 700.204 135.793C701.256 137.243 702.03 138.971 702.527 140.976C703.043 142.962 703.301 145.156 703.301 147.559ZM694.723 148.184V147.559C694.723 146.248 694.624 145.017 694.425 143.865C694.247 142.694 693.929 141.671 693.472 140.797C693.015 139.904 692.39 139.199 691.596 138.683C690.821 138.166 689.819 137.908 688.587 137.908C687.416 137.908 686.423 138.107 685.609 138.504C684.795 138.901 684.12 139.457 683.583 140.172C683.067 140.887 682.68 141.741 682.422 142.733C682.164 143.706 682.005 144.779 681.945 145.95V149.852C682.005 151.421 682.263 152.811 682.72 154.022C683.196 155.213 683.911 156.157 684.864 156.852C685.837 157.527 687.098 157.864 688.647 157.864C689.858 157.864 690.861 157.626 691.655 157.149C692.45 156.673 693.065 155.998 693.502 155.124C693.959 154.25 694.276 153.228 694.455 152.056C694.634 150.865 694.723 149.574 694.723 148.184ZM707.263 148.214V147.588C707.263 145.225 707.6 143.051 708.275 141.065C708.951 139.06 709.933 137.322 711.224 135.853C712.515 134.384 714.103 133.242 715.99 132.428C717.876 131.594 720.041 131.177 722.483 131.177C724.925 131.177 727.1 131.594 729.006 132.428C730.912 133.242 732.511 134.384 733.801 135.853C735.112 137.322 736.105 139.06 736.78 141.065C737.455 143.051 737.792 145.225 737.792 147.588V148.214C737.792 150.557 737.455 152.731 736.78 154.737C736.105 156.722 735.112 158.46 733.801 159.949C732.511 161.419 730.922 162.56 729.036 163.375C727.149 164.189 724.985 164.596 722.542 164.596C720.1 164.596 717.926 164.189 716.02 163.375C714.133 162.56 712.535 161.419 711.224 159.949C709.933 158.46 708.951 156.722 708.275 154.737C707.6 152.731 707.263 150.557 707.263 148.214ZM715.841 147.588V148.214C715.841 149.564 715.96 150.825 716.198 151.997C716.437 153.168 716.814 154.201 717.33 155.094C717.866 155.968 718.561 156.653 719.415 157.149C720.269 157.646 721.311 157.894 722.542 157.894C723.734 157.894 724.757 157.646 725.61 157.149C726.464 156.653 727.149 155.968 727.666 155.094C728.182 154.201 728.559 153.168 728.797 151.997C729.056 150.825 729.185 149.564 729.185 148.214V147.588C729.185 146.278 729.056 145.047 728.797 143.895C728.559 142.723 728.172 141.691 727.636 140.797C727.119 139.884 726.434 139.169 725.581 138.653C724.727 138.137 723.694 137.878 722.483 137.878C721.272 137.878 720.239 138.137 719.385 138.653C718.551 139.169 717.866 139.884 717.33 140.797C716.814 141.691 716.437 142.723 716.198 143.895C715.96 145.047 715.841 146.278 715.841 147.588ZM762.127 156.286V131.772H770.705V164H762.633L762.127 156.286ZM763.08 149.673L765.612 149.614C765.612 151.758 765.364 153.754 764.867 155.601C764.371 157.427 763.626 159.016 762.633 160.366C761.64 161.697 760.389 162.739 758.88 163.494C757.371 164.228 755.594 164.596 753.549 164.596C751.98 164.596 750.531 164.377 749.2 163.94C747.89 163.484 746.758 162.779 745.805 161.826C744.871 160.853 744.137 159.612 743.601 158.103C743.084 156.574 742.826 154.737 742.826 152.592V131.772H751.404V152.652C751.404 153.605 751.514 154.409 751.732 155.064C751.97 155.72 752.298 156.256 752.715 156.673C753.132 157.09 753.618 157.388 754.174 157.566C754.75 157.745 755.386 157.834 756.081 157.834C757.848 157.834 759.238 157.477 760.25 156.762C761.283 156.047 762.008 155.074 762.425 153.843C762.862 152.592 763.08 151.202 763.08 149.673ZM793.044 131.772V137.849H774.279V131.772H793.044ZM778.926 123.82H787.504V154.29C787.504 155.223 787.623 155.938 787.861 156.435C788.119 156.931 788.497 157.278 788.993 157.477C789.49 157.656 790.115 157.745 790.87 157.745C791.406 157.745 791.882 157.725 792.299 157.686C792.736 157.626 793.104 157.566 793.401 157.507L793.431 163.821C792.696 164.06 791.902 164.248 791.048 164.387C790.194 164.526 789.251 164.596 788.219 164.596C786.332 164.596 784.684 164.288 783.274 163.672C781.884 163.037 780.812 162.024 780.058 160.634C779.303 159.244 778.926 157.417 778.926 155.154V123.82ZM837.603 120.633H846.508V149.286C846.508 152.622 845.793 155.432 844.364 157.715C842.954 159.999 840.998 161.716 838.496 162.868C836.014 164.02 833.155 164.596 829.918 164.596C826.681 164.596 823.802 164.02 821.28 162.868C818.778 161.716 816.812 159.999 815.383 157.715C813.973 155.432 813.268 152.622 813.268 149.286V120.633H822.204V149.286C822.204 151.232 822.511 152.821 823.127 154.052C823.743 155.283 824.626 156.186 825.778 156.762C826.949 157.338 828.329 157.626 829.918 157.626C831.546 157.626 832.926 157.338 834.058 156.762C835.21 156.186 836.083 155.283 836.679 154.052C837.295 152.821 837.603 151.232 837.603 149.286V120.633ZM870.753 155.094C870.753 154.479 870.575 153.923 870.217 153.426C869.86 152.93 869.195 152.473 868.222 152.056C867.269 151.619 865.889 151.222 864.082 150.865C862.453 150.507 860.934 150.061 859.524 149.524C858.134 148.968 856.923 148.303 855.891 147.529C854.878 146.754 854.084 145.841 853.508 144.789C852.932 143.716 852.644 142.495 852.644 141.125C852.644 139.775 852.932 138.504 853.508 137.312C854.104 136.121 854.947 135.069 856.04 134.155C857.152 133.222 858.502 132.497 860.09 131.981C861.699 131.445 863.506 131.177 865.511 131.177C868.311 131.177 870.714 131.624 872.719 132.517C874.745 133.411 876.293 134.642 877.366 136.21C878.458 137.759 879.004 139.527 879.004 141.512H870.426C870.426 140.678 870.247 139.934 869.89 139.278C869.552 138.603 869.016 138.077 868.281 137.7C867.566 137.303 866.633 137.104 865.481 137.104C864.528 137.104 863.704 137.273 863.009 137.61C862.314 137.928 861.778 138.365 861.401 138.921C861.043 139.457 860.865 140.053 860.865 140.708C860.865 141.204 860.964 141.651 861.163 142.048C861.381 142.426 861.729 142.773 862.205 143.091C862.682 143.409 863.297 143.706 864.052 143.984C864.826 144.243 865.779 144.481 866.911 144.699C869.234 145.176 871.309 145.801 873.136 146.576C874.963 147.33 876.413 148.363 877.485 149.673C878.557 150.964 879.093 152.662 879.093 154.767C879.093 156.196 878.776 157.507 878.14 158.698C877.505 159.89 876.591 160.932 875.4 161.826C874.208 162.699 872.779 163.384 871.111 163.881C869.463 164.357 867.606 164.596 865.541 164.596C862.543 164.596 860.001 164.06 857.916 162.987C855.851 161.915 854.282 160.555 853.21 158.907C852.158 157.239 851.631 155.531 851.631 153.784H859.763C859.802 154.955 860.1 155.898 860.656 156.613C861.232 157.328 861.957 157.844 862.831 158.162C863.724 158.48 864.687 158.639 865.72 158.639C866.832 158.639 867.755 158.49 868.49 158.192C869.224 157.874 869.78 157.457 870.158 156.941C870.555 156.405 870.753 155.789 870.753 155.094Z" fill="#0F1111"/>
<defs>
<linearGradient id="paint0_linear_17_7411" x1="756" y1="262" x2="756" y2="-38" gradientUnits="userSpaceOnUse">
<stop stop-color="#9A9A9A"/>
<stop offset="1" stop-color="#9A9A9A" stop-opacity="0"/>
</linearGradient>
</defs>
</svg>
