<svg xmlns="http://www.w3.org/2000/svg" width="49" height="33" viewBox="0 0 49 33" fill="none">
  <g clip-path="url(#clip0_922_15422)">
    <path d="M9.22646 32.3411V30.2231C9.22646 29.411 8.65009 28.8817 7.66215 28.8817C7.16827 28.8817 6.63315 29.0229 6.26265 29.4818C5.97465 29.0935 5.56309 28.8817 4.94565 28.8817C4.5339 28.8817 4.12252 28.9875 3.79309 29.3758V28.9523H2.92871V32.3411H3.79309V30.4701C3.79309 29.8701 4.16359 29.5876 4.73996 29.5876C5.31596 29.5876 5.60434 29.9054 5.60434 30.4701V32.3411H6.46871V30.4701C6.46871 29.8701 6.88009 29.5876 7.41521 29.5876C7.99159 29.5876 8.27959 29.9054 8.27959 30.4701V32.3411H9.22646ZM22.0273 28.9523H20.628V27.9286H19.7636V28.9523H18.9815V29.6228H19.7634V31.1762C19.7634 31.9529 20.1339 32.4116 21.1218 32.4116C21.4923 32.4116 21.9037 32.3058 22.1921 32.1646L21.945 31.5292C21.698 31.6703 21.41 31.7057 21.2041 31.7057C20.7926 31.7057 20.628 31.4939 20.628 31.1408V29.6228H22.0273V28.9523ZM29.354 28.8815C28.8601 28.8815 28.5309 29.0935 28.325 29.3758V28.9523H27.4607V32.3411H28.325V30.4349C28.325 29.8701 28.613 29.5524 29.1482 29.5524C29.3128 29.5524 29.5187 29.5878 29.6833 29.623L29.9302 28.9171C29.7656 28.8817 29.5187 28.8817 29.354 28.8817V28.8815ZM18.2818 29.2346C17.87 28.9875 17.2938 28.8817 16.6764 28.8817C15.6886 28.8817 15.0301 29.3052 15.0301 29.9759C15.0301 30.5408 15.524 30.8584 16.3884 30.9644L16.8 30.9998C17.2528 31.0702 17.4997 31.1762 17.4997 31.3528C17.4997 31.5997 17.1705 31.7763 16.5941 31.7763C16.0179 31.7763 15.5651 31.5997 15.2769 31.4233L14.8653 31.9881C15.3181 32.2705 15.9356 32.4116 16.5528 32.4116C17.7054 32.4116 18.3641 31.9529 18.3641 31.3174C18.3641 30.7173 17.829 30.3995 17.0056 30.2937L16.5941 30.2583C16.2236 30.2229 15.9356 30.1525 15.9356 29.9407C15.9356 29.6936 16.2236 29.5524 16.6764 29.5524C17.1705 29.5524 17.6643 29.7288 17.9113 29.8348L18.2818 29.2346ZM41.2496 28.8817C40.7555 28.8817 40.4263 29.0935 40.2204 29.3758V28.9523H39.356V32.3411H40.2204V30.4349C40.2204 29.8701 40.5086 29.5524 41.0435 29.5524C41.2083 29.5524 41.4142 29.5878 41.5788 29.623L41.8258 28.9171C41.6612 28.8817 41.4142 28.8817 41.2496 28.8817ZM30.2184 30.6467C30.2184 31.6703 31.0415 32.4116 32.3176 32.4116C32.8938 32.4116 33.3054 32.3058 33.717 32.0235L33.3054 31.4233C32.9762 31.6351 32.6469 31.7409 32.2764 31.7409C31.5767 31.7409 31.0828 31.3174 31.0828 30.6467C31.0828 30.0113 31.5767 29.5876 32.2764 29.5524C32.6469 29.5524 32.9762 29.6582 33.3054 29.8701L33.717 29.27C33.3054 28.9875 32.8938 28.8817 32.3176 28.8817C31.0415 28.8817 30.2184 29.623 30.2184 30.6467ZM38.2037 30.6467V28.9523H37.3393V29.3758C37.0511 29.0582 36.6395 28.8817 36.1044 28.8817C34.9931 28.8817 34.1287 29.623 34.1287 30.6467C34.1287 31.6703 34.9931 32.4116 36.1044 32.4116C36.6806 32.4116 37.0923 32.2352 37.3393 31.9175V32.3411H38.2037V30.6467ZM35.0342 30.6467C35.0342 30.0465 35.487 29.5524 36.2278 29.5524C36.9275 29.5524 37.4216 30.0113 37.4216 30.6467C37.4216 31.2468 36.9275 31.7409 36.2278 31.7409C35.487 31.7056 35.0342 31.2468 35.0342 30.6467ZM24.7029 28.8817C23.5503 28.8817 22.727 29.5876 22.727 30.6467C22.727 31.7057 23.5502 32.4116 24.744 32.4116C25.3202 32.4116 25.8965 32.2705 26.3493 31.9529L25.9376 31.4233C25.6083 31.6351 25.1968 31.7763 24.7852 31.7763C24.2501 31.7763 23.715 31.5645 23.5914 30.9642H26.514V30.682C26.5552 29.5876 25.8144 28.8817 24.7029 28.8817ZM24.7029 29.517C25.2378 29.517 25.6085 29.7995 25.6907 30.3291H23.6327C23.715 29.8701 24.0855 29.517 24.7029 29.517ZM46.1477 30.6467V27.6108H45.2833V29.3758C44.9951 29.0582 44.5835 28.8817 44.0484 28.8817C42.9371 28.8817 42.0727 29.623 42.0727 30.6467C42.0727 31.6703 42.9371 32.4116 44.0484 32.4116C44.6248 32.4116 45.0363 32.2352 45.2833 31.9175V32.3411H46.1477V30.6467ZM42.9783 30.6467C42.9783 30.0465 43.431 29.5524 44.172 29.5524C44.8717 29.5524 45.3656 30.0113 45.3656 30.6467C45.3656 31.2468 44.8717 31.7409 44.172 31.7409C43.431 31.7056 42.9783 31.2468 42.9783 30.6467ZM14.0833 30.6467V28.9523H13.2189V29.3758C12.9307 29.0582 12.5191 28.8817 11.984 28.8817C10.8727 28.8817 10.0083 29.623 10.0083 30.6467C10.0083 31.6703 10.8727 32.4116 11.984 32.4116C12.5604 32.4116 12.972 32.2352 13.2189 31.9175V32.3411H14.0833V30.6467ZM10.8727 30.6467C10.8727 30.0465 11.3255 29.5524 12.0663 29.5524C12.7661 29.5524 13.2601 30.0113 13.2601 30.6467C13.2601 31.2468 12.7661 31.7409 12.0663 31.7409C11.3255 31.7056 10.8727 31.2468 10.8727 30.6467Z" fill="black"/>
    <path d="M17.9932 3.21802H30.9588V23.1981H17.9932V3.21802Z" fill="#FF5F00"/>
    <path d="M18.8167 13.2082C18.8167 9.14868 21.0393 5.54796 24.4556 3.21807C21.9449 1.52368 18.7756 0.5 15.3181 0.5C7.12681 0.5 0.5 6.1833 0.5 13.2082C0.5 20.2329 7.12681 25.9164 15.3179 25.9164C18.7754 25.9164 21.9447 24.8927 24.4556 23.1981C21.0393 20.9036 18.8167 17.2677 18.8167 13.2082Z" fill="#EB001B"/>
    <path d="M48.4526 13.2082C48.4526 20.2329 41.8258 25.9164 33.6347 25.9164C30.1772 25.9164 27.0079 24.8927 24.4971 23.1981C27.9546 20.8684 30.1361 17.2677 30.1361 13.2082C30.1361 9.14868 27.9133 5.54796 24.4971 3.21807C27.0077 1.52368 30.1772 0.5 33.6347 0.5C41.8258 0.5 48.4526 6.21867 48.4526 13.2082Z" fill="#F79E1B"/>
  </g>
  <defs>
    <clipPath id="clip0_922_15422">
      <rect width="48" height="32" fill="white" transform="translate(0.5 0.5)"/>
    </clipPath>
  </defs>
</svg>