<svg width="24" height="24" viewBox="0 0 24 24" fill="none" xmlns="http://www.w3.org/2000/svg">
<path fill-rule="evenodd" clip-rule="evenodd" d="M18.9785 18C18.9785 18.552 18.5305 19 17.9785 19C17.4265 19 16.9785 18.552 16.9785 18C16.9785 17.448 17.4265 17 17.9785 17C18.5305 17 18.9785 17.448 18.9785 18ZM6.97852 18C6.97852 18.552 6.53052 19 5.97852 19C5.42652 19 4.97852 18.552 4.97852 18C4.97852 17.448 5.42652 17 5.97852 17C6.53052 17 6.97852 17.448 6.97852 18ZM19.9785 12.48V15H16.9785V10.081L19.9785 12.48ZM21.6035 11.219L16.9785 7.519V5C16.9785 3.897 16.1655 3 15.1655 3H3.79052C2.79152 3 1.97852 3.897 1.97852 5V15C1.97852 15.873 2.49152 16.609 3.19952 16.882C3.05952 17.228 2.97852 17.604 2.97852 18C2.97852 19.654 4.32452 21 5.97852 21C7.63252 21 8.97852 19.654 8.97852 18C8.97852 17.647 8.90652 17.314 8.79352 17H11.9785H15.1635C15.0505 17.314 14.9785 17.647 14.9785 18C14.9785 19.654 16.3245 21 17.9785 21C19.6325 21 20.9785 19.654 20.9785 18C20.9785 17.647 20.9065 17.314 20.7935 17H20.9785C21.5315 17 21.9785 16.553 21.9785 16V12C21.9785 11.696 21.8405 11.409 21.6035 11.219Z" fill="#515A6A"/>
<mask id="mask0_1924_8073" style="mask-type:luminance" maskUnits="userSpaceOnUse" x="1" y="3" width="21" height="18">
<path fill-rule="evenodd" clip-rule="evenodd" d="M18.9785 18C18.9785 18.552 18.5305 19 17.9785 19C17.4265 19 16.9785 18.552 16.9785 18C16.9785 17.448 17.4265 17 17.9785 17C18.5305 17 18.9785 17.448 18.9785 18ZM6.97852 18C6.97852 18.552 6.53052 19 5.97852 19C5.42652 19 4.97852 18.552 4.97852 18C4.97852 17.448 5.42652 17 5.97852 17C6.53052 17 6.97852 17.448 6.97852 18ZM19.9785 12.48V15H16.9785V10.081L19.9785 12.48ZM21.6035 11.219L16.9785 7.519V5C16.9785 3.897 16.1655 3 15.1655 3H3.79052C2.79152 3 1.97852 3.897 1.97852 5V15C1.97852 15.873 2.49152 16.609 3.19952 16.882C3.05952 17.228 2.97852 17.604 2.97852 18C2.97852 19.654 4.32452 21 5.97852 21C7.63252 21 8.97852 19.654 8.97852 18C8.97852 17.647 8.90652 17.314 8.79352 17H11.9785H15.1635C15.0505 17.314 14.9785 17.647 14.9785 18C14.9785 19.654 16.3245 21 17.9785 21C19.6325 21 20.9785 19.654 20.9785 18C20.9785 17.647 20.9065 17.314 20.7935 17H20.9785C21.5315 17 21.9785 16.553 21.9785 16V12C21.9785 11.696 21.8405 11.409 21.6035 11.219Z" fill="white"/>
</mask>
<g mask="url(#mask0_1924_8073)">
<rect width="24" height="24" fill="#515A6A"/>
</g>
</svg>
