<svg width="24" height="24" viewBox="0 0 24 24" fill="none" xmlns="http://www.w3.org/2000/svg">
<path fill-rule="evenodd" clip-rule="evenodd" d="M12 10.503L20.512 6.92501C20.366 6.77601 20.201 6.64301 20.001 6.55001L12.801 3.17601C12.296 2.94101 11.704 2.94101 11.199 3.17601L3.99905 6.55001C3.79905 6.64301 3.63405 6.77601 3.48805 6.92501L12 10.503ZM11.25 11.8272L3.00005 8.35921V16.0882C2.99505 16.7292 3.37905 17.3172 3.99005 17.6062L11.19 20.9792C11.1998 20.9838 11.21 20.9868 11.2204 20.9899C11.2303 20.9928 11.2403 20.9958 11.25 21.0002V11.8272ZM12.75 20.9972V11.8272L21 8.35921V16.0972C21 16.7362 20.613 17.3212 20.001 17.6062L12.801 20.9792C12.792 20.9837 12.7823 20.9867 12.7725 20.9896C12.765 20.9919 12.7574 20.9942 12.75 20.9972Z" fill="#515A6A"/>
<mask id="mask0_1924_8070" style="mask-type:luminance" maskUnits="userSpaceOnUse" x="3" y="2" width="18" height="20">
<path fill-rule="evenodd" clip-rule="evenodd" d="M12 10.503L20.512 6.92501C20.366 6.77601 20.201 6.64301 20.001 6.55001L12.801 3.17601C12.296 2.94101 11.704 2.94101 11.199 3.17601L3.99905 6.55001C3.79905 6.64301 3.63405 6.77601 3.48805 6.92501L12 10.503ZM11.25 11.8272L3.00005 8.35921V16.0882C2.99505 16.7292 3.37905 17.3172 3.99005 17.6062L11.19 20.9792C11.1998 20.9838 11.21 20.9868 11.2204 20.9899C11.2303 20.9928 11.2403 20.9958 11.25 21.0002V11.8272ZM12.75 20.9972V11.8272L21 8.35921V16.0972C21 16.7362 20.613 17.3212 20.001 17.6062L12.801 20.9792C12.792 20.9837 12.7823 20.9867 12.7725 20.9896C12.765 20.9919 12.7574 20.9942 12.75 20.9972Z" fill="white"/>
</mask>
<g mask="url(#mask0_1924_8070)">
<rect width="24" height="24" fill="#515A6A"/>
</g>
</svg>
