<svg width="24" height="24" viewBox="0 0 24 24" fill="none" xmlns="http://www.w3.org/2000/svg">
<path fill-rule="evenodd" clip-rule="evenodd" d="M13.6172 8.43778H23.1397V22.3251H13.6172V8.43778ZM4.80897 10.8254H5.60205V10.0164H4.7921V10.8254H4.80897ZM1.61981 10.8254H2.42975V10.0164H1.61981V10.8254ZM9.57304 1.77501V2.45477H10.4224V1.65142H9.7024C9.60116 1.65142 9.57304 1.65142 9.57304 1.77501ZM3.19471 10.8254H4.04402V10.0164H3.19471V10.8254ZM9.57304 3.34801C9.57304 4.24125 9.39306 4.07271 10.4224 4.07271C10.4224 3.04464 10.5967 3.22442 9.7024 3.22442C9.60116 3.22442 9.57304 3.25251 9.57304 3.34801ZM9.83178 5.68504C9.83178 5.47156 9.83177 5.47156 10.0399 5.47156C10.248 5.47156 10.2255 5.81424 10.0399 5.81424C9.85427 5.81424 9.83178 5.81425 9.83178 5.68504ZM9.4043 5.55582C9.38118 5.71375 9.42182 5.8744 9.51728 6.0024C9.61274 6.13041 9.7552 6.2153 9.91333 6.23839C10.0715 6.26149 10.2323 6.2209 10.3605 6.12555C10.4886 6.0302 10.5736 5.88791 10.5967 5.72997C10.6198 5.57204 10.5792 5.4114 10.4837 5.2834C10.3883 5.15539 10.2458 5.0705 10.0877 5.0474C9.92957 5.02431 9.76874 5.0649 9.64058 5.16025C9.51241 5.2556 9.42742 5.39789 9.4043 5.55582ZM7.99814 10.8254H10.4224V10.0164H7.99814V10.8254ZM14.7477 6.83107H15.597V2.83678H14.7477V6.83107ZM14.7477 14.8197H15.597V9.20181H14.7477V14.8197ZM2.41288 2.46039H6.35013V5.20752H2.41288V2.44354V2.46039ZM1.60293 2.03905V5.65132C1.60704 5.71323 1.62378 5.77366 1.65213 5.82887C1.68047 5.88408 1.71983 5.93291 1.76777 5.97237C1.81571 6.01184 1.87122 6.04109 1.9309 6.05834C1.99057 6.07558 2.05315 6.08046 2.11478 6.07266H6.72698C6.79571 6.07985 6.86519 6.07153 6.93027 6.0483C6.99535 6.02507 7.05438 5.98753 7.10298 5.93845C7.15158 5.88937 7.18851 5.83 7.21105 5.76475C7.23359 5.69949 7.24115 5.63001 7.23319 5.56144V2.07837C7.23395 2.02283 7.22356 1.9677 7.20263 1.91624C7.1817 1.86478 7.15065 1.81803 7.11133 1.77876C7.072 1.73948 7.02519 1.70847 6.97367 1.68756C6.92215 1.66666 6.86695 1.65628 6.81134 1.65703H2.00229C1.90085 1.65703 1.80356 1.69728 1.73183 1.76892C1.66011 1.84056 1.61981 1.93773 1.61981 2.03905H1.60293ZM8.83621 19.4151C8.3832 19.0312 7.96877 18.6041 7.5988 18.1398V16.2241C7.95522 15.7762 8.35458 15.3642 8.79122 14.9938C9.25703 15.5597 9.52556 16.2618 9.55617 16.9938C9.61881 17.6913 9.45514 18.3906 9.08932 18.9881C8.95433 19.2353 8.87559 19.2634 8.83621 19.4151ZM6.79447 15.9713V18.4769C6.79447 18.6342 6.99696 18.7072 7.04758 18.9038C6.58074 19.0106 6.80572 19.1566 5.81579 19.1566C5.35392 19.1219 4.91974 18.9232 4.59171 18.5966C4.26368 18.27 4.06343 17.837 4.02715 17.3758C3.99089 17.0049 4.05908 16.6314 4.22401 16.2972C4.3242 16.0955 4.46381 15.9159 4.63461 15.7691C4.9484 15.4603 5.3573 15.2663 5.79517 15.2183C6.23305 15.1704 6.6743 15.2714 7.04758 15.505C6.98571 15.741 6.79447 15.6848 6.79447 15.9713ZM3.19471 17.005C3.22267 16.4968 3.38837 16.0057 3.67411 15.5842C3.95985 15.1627 4.35488 14.8267 4.81699 14.6121C5.27909 14.3975 5.7909 14.3123 6.29771 14.3657C6.80452 14.4191 7.28729 14.609 7.69441 14.9152L8.21188 14.3534C7.95201 14.1296 7.65509 13.9528 7.33444 13.8309C6.67318 13.5712 5.94952 13.5136 5.25546 13.6657C4.5614 13.8177 3.92827 14.1725 3.43656 14.6848C0.922349 17.1848 3.43656 21.797 7.26131 20.4993C7.43357 20.4415 7.59943 20.3662 7.75629 20.2746C7.89699 20.1671 8.04992 20.0766 8.21188 20.0049C8.06484 19.7719 7.8738 19.5696 7.64942 19.4094C7.21958 19.7227 6.70957 19.9078 6.17864 19.9431C5.6477 19.9785 5.11763 19.8626 4.64997 19.6091C4.18232 19.3555 3.79627 18.9747 3.53668 18.5107C3.27709 18.0468 3.15461 17.5188 3.18345 16.9881L3.19471 17.005ZM1.61981 17.0499C1.59855 17.7682 1.75472 18.4807 2.07452 19.1244C2.39431 19.7681 2.86789 20.3233 3.45343 20.7409C3.55039 20.8172 3.65391 20.8849 3.76279 20.9431C4.27559 21.2685 4.85032 21.4842 5.45075 21.5767C6.05117 21.6692 6.66427 21.6365 7.2514 21.4806C7.83853 21.3247 8.38696 21.049 8.86212 20.6709C9.33727 20.2928 9.72885 19.8204 10.0122 19.2837C10.2955 18.7469 10.4644 18.1574 10.5083 17.5521C10.5522 16.9469 10.47 16.3392 10.2671 15.7673C10.0641 15.1954 9.74472 14.6716 9.32905 14.2291C8.91337 13.7866 8.41043 13.4348 7.8519 13.1961C7.29232 12.9318 6.68264 12.7901 6.06373 12.7804C5.44482 12.7707 4.83098 12.8933 4.26338 13.1399C3.48924 13.4724 2.8267 14.0196 2.3542 14.7165C1.88171 15.4134 1.61905 16.231 1.59731 17.0724L1.61981 17.0499ZM8.80809 0.864921H11.1929V6.80861H8.80809V0.87615V0.864921ZM0.854855 0.864921V6.80861H7.99814V0.87615L0.854855 0.864921ZM0.00553814 0.567175C-0.00585079 0.490776 0.000841753 0.412772 0.0250805 0.339422C0.0493193 0.266072 0.0904312 0.199409 0.145116 0.144791C0.1998 0.0901725 0.266534 0.0491188 0.339973 0.0249093C0.413412 0.00069974 0.49151 -0.00598473 0.568002 0.00539046H11.4967C11.6162 0.00504403 11.734 0.0339745 11.8398 0.0896548C11.9259 0.152152 11.986 0.244152 12.0085 0.34808V7.22994C12.0085 7.33126 11.9682 7.42842 11.8965 7.50006C11.8248 7.5717 11.7275 7.61195 11.626 7.61195H0.427386C0.112406 7.61195 0.00553814 7.33668 0.00553814 7.01646V0.578405V0.567175ZM0.854855 12.4152V22.3139H11.1929V12.4265L0.854855 12.4152ZM0.854855 9.2299H11.1929V11.5669H0.854855V9.2299ZM0.00553814 8.93215C-0.0048194 8.86398 -0.000615747 8.79438 0.0178712 8.72795C0.0363582 8.66151 0.0687098 8.59973 0.112802 8.54667C0.156895 8.49361 0.211725 8.45047 0.273699 8.42009C0.335672 8.3897 0.403387 8.37276 0.472384 8.37037H11.4854C11.7554 8.37037 11.9973 8.48272 11.9973 8.75238V22.797C11.9973 23.2296 11.4798 23.179 11.2323 23.179C11.2323 23.7015 11.3111 23.9824 11.1029 23.9824C10.2199 23.9824 10.383 24.1565 10.383 23.179H1.6648C1.6648 23.7015 1.73793 23.9824 1.53544 23.9824C0.646747 23.9824 0.809857 24.1565 0.809857 23.179C0.433006 23.179 0.00553814 23.2296 0.00553814 22.6172V8.94338V8.93215ZM13.6172 0.864921H23.1397V7.60634H13.6172V0.864921ZM12.7622 0.567175V22.6228C12.7622 23.2296 13.1953 23.1846 13.5722 23.1846C13.5722 24.1621 13.409 23.988 14.2977 23.988C14.5002 23.988 14.4215 23.7071 14.4215 23.1846H22.3353C22.3353 24.1621 22.1666 23.988 23.0553 23.988C23.2578 23.988 23.1847 23.7071 23.1847 23.1846C23.5615 23.1846 23.9946 23.2352 23.9946 22.6228V0.578405C24.006 0.502005 23.9993 0.42401 23.9751 0.35066C23.9508 0.27731 23.9097 0.210647 23.855 0.156029C23.8003 0.101411 23.7336 0.0603483 23.6602 0.0361388C23.5867 0.0119293 23.5086 0.0052448 23.4321 0.01662H13.3078C13.2326 0.00811589 13.1565 0.0169518 13.0852 0.0424393C13.014 0.0679268 12.9495 0.109395 12.8968 0.16365C12.8441 0.217905 12.8046 0.283498 12.7813 0.3554C12.7579 0.427303 12.7514 0.503592 12.7622 0.578405V0.567175Z" fill="#0F1111"/>
</svg>
