<svg width="26" height="26" viewBox="0 0 26 26" fill="none" xmlns="http://www.w3.org/2000/svg">
<path fill-rule="evenodd" clip-rule="evenodd" d="M6.68678 17.2793H19.2673V22.5926H6.68678V17.2793ZM6.68678 13.8306H19.2673V16.3793H6.68678V13.8306ZM3.68084 7.96297C3.97362 7.92692 4.26796 7.98622 4.54584 8.13724C4.82372 8.28827 5.07931 8.52785 5.29698 8.84133L5.36489 8.94212L5.45543 9.07171C5.85754 9.71537 6.09199 10.5768 6.11185 11.4836V23.3485C6.11185 24.2917 5.27888 24.0685 4.50476 24.0685C3.97057 24.0685 4.11543 22.8014 4.11543 21.6494C4.11543 18.7696 4.18787 16.7105 2.68942 14.8098C2.49884 14.6131 2.32002 14.389 2.15524 14.1402C1.84836 13.6381 1.63899 13.0059 1.55219 12.3194C1.46539 11.6329 1.50483 10.9212 1.6658 10.2694C1.82677 9.61761 2.10244 9.05343 2.45981 8.64439C2.81718 8.23534 3.24111 7.99876 3.68084 7.96297ZM21.4675 24.0397C20.6662 24.0397 19.8196 24.2989 19.8196 23.3197V11.4836C19.8461 10.5634 20.0879 9.69221 20.4974 9.04088C20.907 8.38955 21.4548 8.0051 22.0334 7.96297C22.3735 7.92126 22.7146 8.01789 23.0248 8.24376C23.2383 8.38866 23.4356 8.58808 23.6088 8.83413C23.9953 9.35897 24.2596 10.0755 24.3589 10.8682C24.4583 11.661 24.387 12.4838 24.1565 13.2043C23.7038 14.7234 23.0021 14.6442 22.3457 16.3577C21.6893 18.0712 21.798 19.4391 21.798 21.5558C21.798 22.427 21.9473 24.0397 21.4494 24.0397H21.4675ZM19.2538 11.6852C19.2573 10.7413 19.4422 9.82162 19.7836 9.04954C20.1251 8.27745 20.6068 7.68982 21.1642 7.36541C21.1642 5.5583 21.2366 4.60075 20.7477 3.47042C20.5432 2.98871 20.2702 2.59039 19.9509 2.30771C19.6316 2.02502 19.2749 1.86593 18.9097 1.84331H14.1473C13.8911 1.87999 13.6538 2.07285 13.4851 2.38151C13.3163 2.69017 13.2292 3.09069 13.2419 3.49922V12.9523H19.2719V11.7068L19.2538 11.6852ZM7.03083 1.82171C6.66534 1.84659 6.30852 2.00659 5.9887 2.28903C5.66887 2.57147 5.39483 2.96857 5.18834 3.44882C4.69942 4.57916 4.77638 5.53671 4.77638 7.34381C5.32364 7.65822 5.79747 8.23093 6.13448 8.98532C6.71847 10.238 6.69131 11.3972 6.69131 12.9307H12.7349V3.46322C12.7487 3.05425 12.662 2.65274 12.493 2.34368C12.324 2.03461 12.0861 1.84225 11.8295 1.80731L7.03083 1.82171ZM4.2105 7.13502C3.71549 6.99916 3.20624 7.10196 2.74828 7.4302C2.25134 7.7569 1.82337 8.30238 1.51463 9.00254C1.20589 9.7027 1.02922 10.5285 1.00537 11.3828C0.974852 12.1731 1.07473 12.9623 1.29511 13.6723C1.74781 15.1842 2.44949 15.2418 3.06969 16.7249C4.02037 18.9928 3.29604 22.7366 3.64915 24.0037C4.00226 25.2708 4.82165 24.9684 5.60482 24.9684C5.84197 24.9867 6.07562 24.872 6.26507 24.6444C6.45451 24.4168 6.58773 24.0907 6.64151 23.7229C6.68225 23.5717 6.64151 23.5213 6.77279 23.5213H19.1813C19.4167 23.5213 19.1813 23.8885 19.6023 24.5077C20.0234 25.1268 20.6798 24.9684 21.4132 24.9684C21.5988 24.9622 21.7802 24.8784 21.9392 24.7255C22.0981 24.5726 22.2289 24.356 22.3186 24.0973C22.649 23.1469 22.1646 19.5327 22.649 17.6176C22.984 16.2641 23.3598 15.9113 24.0071 15.0834C24.3408 14.6528 24.6045 14.1011 24.7763 13.4747C24.948 12.8482 25.0227 12.1654 24.994 11.4836C24.994 8.73333 23.1832 6.69584 21.7798 7.20701C21.7798 5.44311 21.8206 4.14719 21.137 2.77926C20.8569 2.21704 20.4994 1.76441 20.0921 1.45614C19.6848 1.14787 19.2385 0.992153 18.7875 1.00096H14.3193C13.8259 1.00096 13.1559 1.47613 13.0608 2.0305H12.9748C12.8843 1.47613 12.2143 1.00096 11.7163 1.00096H7.24813C6.57851 0.979302 5.92467 1.32555 5.39689 1.98131C4.8691 2.63707 4.49965 3.56222 4.35084 4.60076C4.24689 5.43495 4.20134 6.28489 4.21503 7.13502H4.2105Z" fill="#0F1111" stroke="#0F1111" stroke-width="0.5" stroke-miterlimit="10"/>
</svg>
