<svg width="26" height="26" viewBox="0 0 26 26" fill="none" xmlns="http://www.w3.org/2000/svg">
<path fill-rule="evenodd" clip-rule="evenodd" d="M9.98007 23.8507H15.9271C16.1833 23.8419 16.4378 23.8915 16.666 23.9949C16.8614 24.0796 17.0231 24.2148 17.1297 24.3825H8.87933C8.97836 24.2236 9.12933 24.0948 9.31249 24.0129C9.51305 23.9038 9.74463 23.8475 9.98007 23.8507ZM12.0898 21.3628C12.3191 21.3628 12.2936 21.4078 12.5434 21.4078H13.4504C13.7001 21.4078 13.6747 21.3673 13.8989 21.3628V23.2738H12.0898V21.3628ZM13.109 17.0089C12.4516 17.0089 12.0898 16.779 12.0898 16.1075C12.0898 15.3773 12.9052 14.228 13.6492 15.3052C14.0365 15.8686 14.0365 16.9954 13.0988 16.9954L13.109 17.0089ZM11.4987 13.0111C11.4886 12.9439 11.4937 12.8756 11.5134 12.8102C11.5332 12.7447 11.5674 12.6833 11.614 12.6296C11.6606 12.5758 11.7188 12.5306 11.7851 12.4967C11.8514 12.4628 11.9247 12.4408 12.0006 12.4319C12.0766 12.423 12.1538 12.4275 12.2278 12.445C12.3018 12.4625 12.3712 12.4927 12.432 12.5339C12.4928 12.5752 12.5438 12.6266 12.5822 12.6853C12.6205 12.7439 12.6454 12.8087 12.6555 12.8759C12.6555 13.8134 11.4987 13.5655 11.4987 13.0111ZM13.8581 12.4297C13.939 12.421 14.0211 12.4268 14.0994 12.4468C14.1777 12.4668 14.2506 12.5006 14.3138 12.5461C14.377 12.5916 14.4292 12.6479 14.4673 12.7116C14.5053 12.7753 14.5285 12.8452 14.5353 12.917C14.5422 12.9888 14.5326 13.0611 14.5072 13.1296C14.4817 13.1981 14.4409 13.2613 14.3872 13.3155C14.3335 13.3698 14.268 13.4138 14.1946 13.4452C14.1212 13.4765 14.0414 13.4944 13.96 13.4979C13.8032 13.5045 13.6496 13.4571 13.5315 13.3656C13.4134 13.2741 13.34 13.1456 13.3268 13.0072C13.3136 12.8688 13.3616 12.7313 13.4607 12.6236C13.5598 12.5159 13.7022 12.4464 13.8581 12.4297ZM15.1678 12.4297C15.1614 12.3598 15.1707 12.2896 15.195 12.2229C15.2194 12.1562 15.2583 12.0944 15.3097 12.0411C15.361 11.9877 15.4237 11.9438 15.4943 11.9119C15.5648 11.88 15.6417 11.8606 15.7207 11.855C15.7997 11.8494 15.8791 11.8576 15.9545 11.8791C16.0299 11.9006 16.0997 11.9351 16.1601 11.9805C16.2204 12.0259 16.27 12.0814 16.3061 12.1438C16.3422 12.2061 16.3641 12.2742 16.3704 12.344C16.3833 12.4851 16.3322 12.6249 16.2285 12.7326C16.1249 12.8404 15.977 12.9073 15.8175 12.9187C15.658 12.93 15.5 12.8849 15.3781 12.7932C15.2563 12.7015 15.1806 12.5707 15.1678 12.4297ZM10.2451 12.9209C10.1613 12.9239 10.0778 12.9114 9.99981 12.8843C9.92181 12.8573 9.85098 12.8162 9.79182 12.7637C9.73265 12.7112 9.68642 12.6485 9.65605 12.5794C9.62568 12.5103 9.61182 12.4364 9.61536 12.3624C9.61889 12.2884 9.63973 12.2158 9.67658 12.1492C9.71342 12.0826 9.76546 12.0235 9.82941 11.9757C9.89337 11.9278 9.96785 11.8921 10.0482 11.871C10.1285 11.8498 10.2129 11.8436 10.296 11.8528C11.0502 11.8528 10.9585 12.9209 10.2451 12.9209ZM16.6762 11.4561C16.6759 11.3516 16.7095 11.2491 16.7731 11.161C16.8368 11.0729 16.9277 11.0028 17.0351 10.9591C17.1425 10.9154 17.2619 10.8999 17.3789 10.9145C17.496 10.9292 17.6058 10.9732 17.6954 11.0415C17.9196 11.2308 18.1184 11.9429 17.1858 11.9429C16.8342 11.9429 16.6762 11.5868 16.6762 11.4561ZM8.83856 11.9429C8.98504 11.9303 9.1202 11.8677 9.21535 11.7684C9.31049 11.6691 9.35813 11.5409 9.34816 11.4111C9.34816 11.27 9.28481 11.1347 9.17204 11.035C9.05927 10.9353 8.90632 10.8792 8.74684 10.8792C8.58736 10.8792 8.43441 10.9353 8.32164 11.035C8.20886 11.1347 8.14551 11.27 8.14551 11.4111C8.14551 11.8618 8.48185 11.9429 8.84876 11.9429H8.83856ZM18.0725 10.2708C18.0622 10.3774 18.0886 10.4843 18.1481 10.5775C18.2077 10.6707 18.2976 10.7458 18.4062 10.793C18.5148 10.8403 18.637 10.8575 18.7568 10.8423C18.8765 10.8272 18.9884 10.7804 19.0777 10.7082C19.1669 10.6359 19.2295 10.5415 19.2571 10.4373C19.2847 10.3331 19.2762 10.2239 19.2326 10.1241C19.1889 10.0243 19.1123 9.9384 19.0126 9.87772C18.9129 9.81704 18.7948 9.78438 18.6738 9.78399C18.598 9.78036 18.5222 9.79013 18.4507 9.81274C18.3792 9.83535 18.3136 9.87035 18.2576 9.91567C18.2016 9.961 18.1564 10.0158 18.1246 10.0767C18.0928 10.1377 18.0751 10.2037 18.0725 10.2708ZM7.37092 9.78399C7.5223 9.79322 7.66388 9.85359 7.76633 9.95259C7.86878 10.0516 7.92426 10.1817 7.92129 10.3158C7.91998 10.4569 7.85636 10.592 7.74402 10.6922C7.63167 10.7924 7.47949 10.8498 7.31996 10.8522C7.23623 10.8551 7.15273 10.8426 7.07472 10.8156C6.99671 10.7885 6.92588 10.7474 6.86672 10.695C6.80755 10.6425 6.76133 10.5797 6.73095 10.5106C6.70058 10.4416 6.68673 10.3677 6.69026 10.2936C6.69379 10.2196 6.71464 10.147 6.75148 10.0804C6.78832 10.0139 6.84036 9.95478 6.90431 9.90689C6.96827 9.859 7.04275 9.82336 7.12306 9.80221C7.20337 9.78106 7.28776 9.77485 7.37092 9.78399ZM5.96442 9.42793C5.88613 9.42527 5.80919 9.40899 5.738 9.38003C5.66682 9.35107 5.60278 9.30999 5.54954 9.25914C5.49631 9.20829 5.45492 9.14866 5.42774 9.08366C5.40056 9.01867 5.38811 8.94957 5.39113 8.88032C5.39414 8.81107 5.41254 8.74302 5.44529 8.68006C5.47803 8.6171 5.52448 8.56046 5.58198 8.51338C5.63947 8.46629 5.70689 8.42969 5.78038 8.40565C5.85387 8.38161 5.93199 8.3706 6.01029 8.37327C6.16842 8.37864 6.31766 8.43936 6.42517 8.54206C6.53269 8.64476 6.58967 8.78103 6.58359 8.92088C6.57751 9.06074 6.50886 9.19273 6.39274 9.28782C6.27663 9.38291 6.12255 9.43331 5.96442 9.42793ZM20.0294 9.42793C19.5198 9.42793 19.428 9.17103 19.428 8.85103C19.428 8.40031 20.1466 8.25609 20.4472 8.52651C20.5285 8.6008 20.5835 8.69441 20.6055 8.7959C20.6276 8.8974 20.6157 9.00238 20.5714 9.098C20.527 9.19363 20.4522 9.27575 20.3559 9.33435C20.2597 9.39294 20.1462 9.42546 20.0294 9.42793ZM5.91347 10.0048C5.71199 9.99394 5.51655 9.93981 5.34402 9.84715C5.17149 9.75448 5.02706 9.62606 4.92321 9.47297C4.81935 9.31989 4.7592 9.14674 4.74795 8.96849C4.73669 8.79024 4.77467 8.61225 4.8586 8.44989C4.67772 8.41115 4.51007 8.33438 4.3699 8.2261C4.22973 8.11782 4.12117 7.98122 4.05343 7.82791C3.59989 7.92256 2.07619 8.68426 1.69399 8.76088C1.70698 8.96583 1.74805 9.16863 1.81629 9.36484C2.31427 11.265 3.06523 13.1062 4.05343 14.85L4.87898 16.13C5.36413 16.826 5.91656 17.4835 6.53008 18.0951C7.26725 18.8192 8.12677 19.438 9.07808 19.9295C9.40857 20.0875 9.74884 20.2289 10.0973 20.3532C11.962 20.9794 14.0216 20.9794 15.8863 20.3532C19.4229 19.0912 21.5276 15.9362 22.8933 12.9119C23.1736 12.299 24.2947 9.42793 24.2947 8.72933C23.9125 8.65271 22.3888 7.89101 21.9353 7.79636C21.8675 7.94967 21.759 8.08626 21.6188 8.19455C21.4786 8.30283 21.311 8.3796 21.1301 8.41834C21.2677 8.6482 21.232 8.65722 21.232 8.99525C21.2155 9.13855 21.1671 9.27756 21.0898 9.40431C21.0124 9.53106 20.9075 9.64307 20.7811 9.73392C20.6547 9.82477 20.5093 9.89268 20.3532 9.93375C20.1971 9.97483 20.0334 9.98826 19.8714 9.97329C19.8714 10.1806 19.9223 10.122 19.9223 10.2843C19.9139 10.4394 19.8707 10.5916 19.7952 10.7318C19.7197 10.8721 19.6134 10.9976 19.4825 11.1012C19.3516 11.2048 19.1988 11.2844 19.0328 11.3352C18.8669 11.3861 18.6911 11.4073 18.5159 11.3975C18.5206 11.5387 18.4933 11.6792 18.4356 11.8108C18.3778 11.9424 18.2907 12.0624 18.1795 12.1637C18.0245 12.3103 17.8304 12.4202 17.6149 12.4832C17.3994 12.5462 17.1695 12.5603 16.9463 12.5243C16.9463 13.2409 15.9271 13.7097 15.0862 13.3266C14.9933 13.5362 14.8341 13.7177 14.6276 13.8494C13.9396 14.2415 13.6849 14.0297 13.2772 13.9486V14.3272C13.6655 14.46 13.986 14.7131 14.1792 15.0393C14.9741 16.2472 14.3117 17.5723 13.0784 17.5723C11.356 17.5723 11.091 16.0759 11.7739 15.0393C11.8767 14.8785 11.998 14.7275 12.1357 14.5886C12.3023 14.4765 12.4837 14.3826 12.6758 14.3091V13.9125C12.465 13.9786 12.246 14.0225 12.0236 14.0432C11.7707 14.0251 11.5286 13.9451 11.3243 13.8122C11.12 13.6793 10.9615 13.4986 10.8668 13.2905C10.714 13.3752 10.5375 13.4205 10.3572 13.4212C9.18509 13.4212 9.15452 12.8578 8.95068 12.4883C8.09455 12.4883 7.42188 12.1953 7.42188 11.3795C7.21691 11.3925 7.01137 11.3625 6.82201 11.2919C6.63265 11.2213 6.46481 11.1121 6.33219 10.9733C6.19956 10.8345 6.10589 10.6699 6.05881 10.493C6.01173 10.3161 6.01256 10.1318 6.06125 9.95527L5.91347 10.0048ZM20.1822 7.42678C20.1762 7.28572 20.2337 7.14831 20.3421 7.04477C20.4506 6.94123 20.6012 6.88003 20.7606 6.87465C20.9201 6.86927 21.0755 6.92015 21.1926 7.01608C21.3096 7.11202 21.3788 7.24516 21.3849 7.38621C21.3879 7.45606 21.3753 7.52574 21.3479 7.59128C21.3205 7.65683 21.2787 7.71695 21.225 7.76822C21.1713 7.81949 21.1067 7.8609 21.0349 7.89009C20.9631 7.91928 20.8855 7.93567 20.8065 7.93833C20.7275 7.94099 20.6487 7.92988 20.5746 7.90561C20.5005 7.88134 20.4325 7.8444 20.3746 7.7969C20.3166 7.7494 20.2698 7.69226 20.2368 7.62876C20.2038 7.56525 20.1852 7.49662 20.1822 7.42678ZM4.60889 7.47184C4.60254 7.402 4.61179 7.33174 4.63614 7.26506C4.66049 7.19839 4.69944 7.1366 4.75078 7.08324C4.80213 7.02988 4.86485 6.98598 4.93537 6.95406C5.0059 6.92214 5.08284 6.90281 5.16181 6.89719C5.24078 6.89157 5.32022 6.89976 5.39561 6.92129C5.471 6.94282 5.54086 6.97728 5.60119 7.02269C5.66152 7.0681 5.71116 7.12357 5.74725 7.18595C5.78334 7.24832 5.80519 7.31637 5.81155 7.38621C5.82439 7.52727 5.77334 7.66705 5.66965 7.77482C5.56596 7.88259 5.41811 7.94951 5.25863 7.96087C5.09915 7.97222 4.9411 7.92708 4.81925 7.83537C4.6974 7.74366 4.62173 7.6129 4.60889 7.47184ZM19.5249 7.38621C19.5644 7.17241 19.6328 6.96359 19.7287 6.76423C19.2191 6.63803 18.6229 5.48421 18.4445 5.10111L17.7362 3.63629C17.6497 3.48366 17.5765 3.32546 17.517 3.16305C15.5806 4.31236 10.4132 4.31236 8.47675 3.16305L7.99263 4.15912C7.82956 4.50166 7.70216 4.79012 7.53399 5.13266C6.7594 6.72367 6.59123 6.40817 6.26509 6.80479C6.30586 6.94902 6.33134 6.91297 6.39759 7.08874C6.55556 7.53945 6.39758 7.58452 6.36701 7.87298C6.52086 7.91402 6.6639 7.98181 6.78775 8.07237C6.9116 8.16293 7.01378 8.27443 7.08829 8.40036C7.1628 8.52628 7.20814 8.66409 7.22167 8.80571C7.2352 8.94733 7.21664 9.08991 7.16708 9.22511C7.35112 9.21314 7.53601 9.23368 7.71098 9.28553C7.88596 9.33737 8.04753 9.41949 8.18628 9.52709C8.30128 9.63731 8.39743 9.76182 8.47165 9.89667C8.54137 10.05 8.57767 10.2137 8.57867 10.3789H8.83347C9.12084 10.3949 9.39174 10.5031 9.59534 10.6831C9.79895 10.8632 9.92125 11.1028 9.9393 11.357C10.2386 11.2854 10.5575 11.3198 10.8287 11.4527C11.0998 11.5856 11.3017 11.8067 11.3917 12.0691C11.573 11.968 11.7805 11.9096 11.9946 11.8994C12.2086 11.8891 12.4221 11.9274 12.6147 12.0105C12.7517 12.0779 12.8813 12.1564 13.002 12.2449C13.5116 11.9519 13.8326 11.704 14.6072 12.0691C14.6971 11.8057 14.8999 11.5838 15.1722 11.4508C15.4444 11.3178 15.7647 11.2841 16.0647 11.357C16.0827 11.1028 16.205 10.8632 16.4086 10.6831C16.6122 10.5031 16.8831 10.3949 17.1705 10.3789H17.4202C17.4242 10.2009 17.4657 10.0252 17.5425 9.86061C17.6605 9.6535 17.8458 9.48232 18.0747 9.36908C18.3035 9.25584 18.5654 9.2057 18.8267 9.22511C18.7339 8.95137 18.7662 8.65635 18.9168 8.40348C19.0674 8.15062 19.3241 7.96013 19.6319 7.87298C19.5789 7.71428 19.5448 7.55115 19.53 7.38621H19.5249ZM8.72645 2.54107C8.72645 1.78388 12.1815 1.56302 12.9969 1.56302C13.8159 1.55916 14.6334 1.62557 15.4379 1.76133C19.5911 2.5005 15.657 3.42897 13.5982 3.42897C12.5003 3.48048 11.3993 3.40931 10.3215 3.21714C9.95459 3.14052 8.72645 2.82952 8.72645 2.54107ZM5.76059 6.40816C5.51598 6.40816 5.60261 6.31802 5.15926 6.31802C4.95268 6.3331 4.75294 6.39067 4.57599 6.48614C4.39903 6.58161 4.24975 6.71234 4.14006 6.86789C3.9617 7.16085 4.24708 7.15635 3.22278 7.52593L1.51563 8.23355C0.817477 8.48144 0.934685 8.49045 1.24554 9.65779C1.5504 10.7266 1.92126 11.7799 2.35647 12.8128C2.7779 13.7848 3.26633 14.7331 3.81901 15.6523C4.36143 16.5234 4.99074 17.35 5.69943 18.1222C6.16504 18.6199 6.67638 19.0827 7.22823 19.5058C7.36091 19.612 7.50043 19.7114 7.6461 19.8033L9.08827 20.6146L10.1839 21.0247C10.5868 21.1575 11.0058 21.2483 11.4324 21.2952V23.2963C10.2705 23.2963 8.99144 23.1341 8.31877 24.0986C8.13532 24.369 7.80918 25 8.47165 25H17.5119C18.4598 25 17.6444 23.3143 15.8557 23.3143H14.5512V21.3132C15.4022 21.3132 17.0176 20.6146 17.833 20.1323C18.1425 19.9505 18.4403 19.7533 18.7248 19.5419C19.4234 19.02 20.0572 18.4337 20.6154 17.7931L20.9568 17.3875C22.0554 15.9913 22.9476 14.4767 23.6118 12.8804C23.9125 12.1908 24.1214 11.5282 24.4017 10.8251C24.5189 10.4961 24.6463 10.077 24.7381 9.74343C24.789 9.55413 24.8298 9.39639 24.8756 9.20258C25.0285 8.5806 25.1457 8.49046 24.5597 8.27412L22.2665 7.32312C21.8486 7.14734 22.0678 7.24199 21.8792 6.91297C21.7462 6.68652 21.527 6.50894 21.2603 6.41162C20.9936 6.3143 20.6966 6.30349 20.4218 6.38112C20.2332 6.42169 20.2332 6.47127 19.9122 6.18732C19.5517 5.84201 19.2774 5.43354 19.107 4.98843L17.9655 2.60867C17.9623 2.4597 17.9202 2.3134 17.8424 2.18124C17.7646 2.04909 17.6532 1.93467 17.517 1.84697C16.7068 1.31513 15.2187 1.10781 14.169 1.03118C13.8785 1.03118 13.6594 1.03119 13.3485 1.00414C12.5511 0.986137 11.7534 1.02684 10.9636 1.12584C10.0565 1.23851 8.26272 1.57654 8.10474 2.3743C8.01638 2.76025 7.86352 3.13242 7.6512 3.47854C7.28943 4.3676 6.81774 5.21859 6.24471 6.01605C6.10325 6.15958 5.94039 6.28543 5.76059 6.39014V6.40816Z" fill="#0F1111" stroke="#0F1111" stroke-width="0.5" stroke-miterlimit="10"/>
</svg>
