<svg width="24" height="25" viewBox="0 0 24 25" fill="none" xmlns="http://www.w3.org/2000/svg">
<path fill-rule="evenodd" clip-rule="evenodd" d="M16.3466 18.4753H18.8763C19.0951 18.4753 19.0237 18.6418 19.0428 18.8083C19.0654 18.9529 19.0781 19.0985 19.0808 19.2443H16.3276V18.4753H16.3466ZM12.4712 18.8162C12.4712 18.9213 12.5213 19.0221 12.6105 19.0965C12.6996 19.1708 12.8206 19.2126 12.9467 19.2126C13.0728 19.2126 13.1938 19.1708 13.2829 19.0965C13.3721 19.0221 13.4222 18.9213 13.4222 18.8162C13.4222 18.2772 12.4712 18.3564 12.4712 18.8162ZM12.4712 15.6454C12.4712 15.7505 12.5213 15.8513 12.6105 15.9256C12.6996 16 12.8206 16.0417 12.9467 16.0417C13.0728 16.0417 13.1938 16 13.2829 15.9256C13.3721 15.8513 13.4222 15.7505 13.4222 15.6454C13.4222 15.5402 13.3721 15.4394 13.2829 15.3651C13.1938 15.2908 13.0728 15.249 12.9467 15.249C12.8206 15.249 12.6996 15.2908 12.6105 15.3651C12.5213 15.4394 12.4712 15.5402 12.4712 15.6454ZM5.12929 18.4753H7.67803V19.2443H4.92483C4.92754 19.0985 4.94023 18.9529 4.96287 18.8083C4.96287 18.6418 4.91056 18.4753 5.12929 18.4753ZM21.5487 5.47089C21.6961 5.99012 21.8055 6.63222 21.8958 7.17919C22.2002 8.99846 22.4474 10.786 22.6186 12.6132L22.7708 14.9517C22.7708 15.1816 22.8183 15.2014 22.8278 15.4155C22.8373 15.6295 22.8278 15.7603 22.8278 15.9268C22.8278 16.0932 22.8801 16.1606 22.8801 16.3945C22.8801 18.075 22.98 19.8348 22.98 21.6224H20.4836C20.4053 21.2739 20.3514 20.9218 20.3219 20.5681C20.2743 20.2272 20.2173 19.8824 20.1697 19.5059L19.2425 13.0889C19.1902 12.7678 19.6181 11.5669 19.7465 11.1903C20.2553 9.70398 20.7261 7.87281 21.2301 6.43404L21.5344 5.49864V5.47089H21.5487ZM3.54584 21.6224H1.04941C1.04941 19.8467 1.14451 18.0988 1.14927 16.4341L1.25388 15.0469C1.25388 14.8804 1.25388 14.702 1.25388 14.5395C1.3157 13.9331 1.368 13.2989 1.40604 12.6648L1.82925 9.02224C1.91484 8.45545 2.02421 7.83318 2.11455 7.26639C2.2049 6.6996 2.32378 6.07732 2.47594 5.52242C2.49926 5.54731 2.51699 5.57551 2.52825 5.60565L4.56819 12.1138C4.71405 12.4286 4.78823 12.7633 4.78693 13.1007C4.43981 15.1856 4.1973 17.4091 3.86919 19.4781C3.81213 19.8467 3.76458 20.2193 3.71703 20.5404C3.66948 20.8614 3.63619 21.3331 3.54584 21.6343V21.6224ZM12.4189 11.5906C12.4573 11.3952 12.5162 11.2029 12.5948 11.0159L13.9405 7.05235C14.1973 6.25964 14.4446 5.51449 14.7108 4.76142L15.4812 2.47048L15.581 2.59731C15.8663 3.02141 17.0076 4.9041 17.0076 5.06265C16.6855 5.10165 16.3676 5.16128 16.0565 5.24101C15.0532 5.44711 15.2672 5.72852 15.7094 6.27946L16.1849 6.89381C16.0518 7.09992 15.8806 7.29017 15.7094 7.48835L13.3652 10.4214L12.8896 11.008L12.4617 11.5391C12.4418 11.5654 12.4178 11.5894 12.3904 11.6104L12.4189 11.5906ZM8.54346 2.45066L11.3585 10.8177C11.4637 10.9901 11.4971 11.1867 11.4536 11.3766C11.3157 11.2973 9.86063 9.43445 9.63714 9.14908L7.8302 6.87399C8.33899 6.23586 9.01422 5.66511 8.47689 5.35595C8.32709 5.29447 8.16663 5.25301 8.00138 5.23308C7.67533 5.14699 7.34135 5.08336 7.00281 5.04283C7.19936 4.59262 7.4428 4.15761 7.73034 3.74278L8.32473 2.75982L8.42459 2.58938L8.54346 2.4348V2.45066ZM9.87014 3.30282L11.4584 8.0591C11.5487 8.31673 11.6295 8.57833 11.7246 8.85181C11.8347 9.10895 11.9144 9.37445 11.9624 9.64452L13.912 4.09554C14.0151 3.83638 14.0961 3.57149 14.1545 3.30282H9.87014ZM16.9743 3.04519C17.2025 3.40588 17.4165 3.78638 17.6352 4.15103C18.1631 5.03094 18.7146 5.53035 17.6352 5.73645C17.3228 5.81364 17.0052 5.87584 16.6842 5.92274C16.7555 6.13677 17.2976 6.63222 17.2976 6.77094C17.2976 7.13955 17.0932 7.28224 16.8221 7.63896L16.2467 8.3088L15.1721 9.6683H16.9743C17.5544 9.6683 18.2486 9.56525 18.2486 10.0647C18.2486 10.3738 18.0632 10.4927 17.64 10.4927H14.5254L13.037 12.3556C12.8754 12.5577 11.5677 14.1471 11.5677 14.2343V19.8388C11.6802 20.2073 11.8396 20.5647 12.0432 20.905L12.961 23.0295C13.0608 23.2792 13.2938 24.0441 13.4793 24.0441C17.9538 24.0441 19.2472 22.7758 19.6609 22.6846L19.3899 20.7029C19.343 20.488 19.3128 20.2709 19.2995 20.0528H15.8854C15.8113 20.0489 15.7389 20.0325 15.6727 20.0046C15.6065 19.9766 15.5478 19.9377 15.5002 19.8903C15.4526 19.8428 15.4171 19.7878 15.3958 19.7285C15.3746 19.6692 15.368 19.607 15.3766 19.5455V18.1384C15.3667 18.0697 15.3757 17.9999 15.4027 17.9344C15.4298 17.869 15.4742 17.8094 15.5327 17.7603C15.5913 17.7111 15.6624 17.6736 15.7407 17.6505C15.8191 17.6275 15.9026 17.6195 15.9852 17.6271H18.8763L18.4008 14.0203C18.2439 12.9501 18.1535 13.1126 18.4008 12.2367L20.9923 3.98059C20.3171 3.8498 19.6419 3.66351 18.9619 3.50497C18.6005 3.42173 17.2168 3.06501 16.9648 3.04519H16.9743ZM5.79026 5.25686C5.9592 4.86439 6.16924 4.48507 6.41793 4.12328C6.64142 3.75467 6.84114 3.39795 7.06463 3.04519C6.73653 3.06897 3.58864 3.87358 3.03705 3.98059C3.11148 4.16784 3.1734 4.35838 3.2225 4.55135L3.7408 6.20019C3.85492 6.59654 3.96429 6.91363 4.08793 7.31395L5.47642 11.7254C5.87585 13.0809 5.85683 12.4904 5.64285 14.0599L5.21489 17.0603C5.21489 17.1872 5.13405 17.4805 5.12929 17.6271H8.08697C8.16955 17.6195 8.25314 17.6275 8.33149 17.6505C8.40984 17.6736 8.48093 17.7111 8.53945 17.7603C8.59798 17.8094 8.64242 17.869 8.66946 17.9344C8.6965 17.9999 8.70545 18.0697 8.69563 18.1384V19.5415C8.70417 19.603 8.69761 19.6652 8.67635 19.7245C8.65509 19.7838 8.61958 19.8388 8.57198 19.8863C8.52437 19.9338 8.46568 19.9727 8.39946 20.0006C8.33325 20.0286 8.2609 20.045 8.18683 20.0489H4.77266L4.50162 22.0307C4.45668 22.2456 4.42809 22.4627 4.41603 22.6807C4.67756 22.7401 6.31807 24.0402 10.1745 24.0402C10.8164 24.0402 10.65 24.0957 10.883 23.5685L11.4774 22.0425C11.4774 21.9038 10.5834 20.2708 10.5834 20.0885V14.0124C10.5834 13.5883 11.1778 12.6053 11.0304 12.3715C10.9496 12.2525 10.7926 12.0861 10.6975 11.9751L9.3661 10.2906C9.15688 10.029 6.75555 7.15144 6.75555 6.89778C6.75555 6.47764 7.23106 6.28342 7.36896 5.92274C7.04794 5.87584 6.73041 5.81364 6.41793 5.73645C6.01375 5.65322 5.7855 5.58584 5.7855 5.24101L5.79026 5.25686ZM9.30904 1.72929C9.41372 1.97956 9.49948 2.23505 9.56581 2.49426H14.4588C14.5252 2.23505 14.6109 1.97956 14.7156 1.72929H9.30904ZM0.488307 22.431H3.44599C3.44599 22.9462 3.06558 22.974 4.52064 23.7033C4.97391 23.9321 5.45142 24.1259 5.94717 24.282C7.68754 24.8369 8.95716 24.8527 10.8212 24.8527C11.387 24.8527 11.4583 24.6862 11.6058 24.3176C11.7445 24.0223 11.8573 23.7189 11.9434 23.41H12.0432C12.1293 23.7189 12.2421 24.0223 12.3808 24.3176C12.6471 24.9954 12.8801 24.8527 14.3923 24.8527C16.3371 24.8527 19.0428 24.2027 20.4455 23.1444C20.7308 22.9304 20.5644 22.6371 20.5596 22.431C24.4636 22.431 23.969 22.7362 23.9786 20.9843C23.9786 20.6355 23.9215 20.465 23.9263 20.1361L23.893 17.425C23.893 16.9335 23.8454 16.8344 23.8407 16.5768L23.5601 12.2169C23.5126 11.9553 23.503 11.6501 23.484 11.3885C23.4127 10.1756 22.8516 6.73923 22.6091 5.70078C22.4902 5.19741 22.3856 4.69404 22.2334 4.1867C21.9957 3.39399 22.1383 3.41777 21.2254 3.19581L16.9743 2.17717C16.1707 1.98692 16.4179 2.12961 15.8854 1.26159C15.7427 1.0317 15.6381 0.865234 15.2196 0.865234H8.80024C8.20585 0.865234 8.13453 1.26159 7.78265 1.8482C7.63524 2.09394 7.44028 2.07016 7.08365 2.15736L2.80404 3.17599C1.89106 3.39795 2.03372 3.38606 1.79596 4.16688C1.6438 4.67422 1.53919 5.17759 1.42031 5.68096C1.23961 6.47367 0.944796 8.09874 0.854449 8.85181L0.331388 13.9291C0.331388 14.1154 0.283836 14.1075 0.279081 14.3255L0.179224 16.5411C0.179224 16.7591 0.136428 16.775 0.126918 16.9613L0.0746111 19.2165V20.1083C0.0841214 20.8019 -0.286776 22.431 0.488307 22.431Z" fill="#0F1111"/>
</svg>
