<svg width="25" height="24" viewBox="0 0 25 24" fill="none" xmlns="http://www.w3.org/2000/svg">
<path fill-rule="evenodd" clip-rule="evenodd" d="M19.375 18H5.375C4.824 18 4.375 17.552 4.375 17V7.25L11.775 12.8C11.953 12.934 12.164 13 12.375 13C12.586 13 12.797 12.934 12.975 12.8L20.375 7.25V17C20.375 17.552 19.926 18 19.375 18ZM18.708 6L12.375 10.75L6.042 6H18.708ZM19.375 4H5.375C3.721 4 2.375 5.346 2.375 7V17C2.375 18.654 3.721 20 5.375 20H19.375C21.029 20 22.375 18.654 22.375 17V7C22.375 5.346 21.029 4 19.375 4Z" fill="#515A6A"/>
<mask id="mask0_536_10775" style="mask-type:luminance" maskUnits="userSpaceOnUse" x="2" y="4" width="21" height="16">
<path fill-rule="evenodd" clip-rule="evenodd" d="M19.375 18H5.375C4.824 18 4.375 17.552 4.375 17V7.25L11.775 12.8C11.953 12.934 12.164 13 12.375 13C12.586 13 12.797 12.934 12.975 12.8L20.375 7.25V17C20.375 17.552 19.926 18 19.375 18ZM18.708 6L12.375 10.75L6.042 6H18.708ZM19.375 4H5.375C3.721 4 2.375 5.346 2.375 7V17C2.375 18.654 3.721 20 5.375 20H19.375C21.029 20 22.375 18.654 22.375 17V7C22.375 5.346 21.029 4 19.375 4Z" fill="white"/>
</mask>
<g mask="url(#mask0_536_10775)">
<rect x="0.375" width="24" height="24" fill="#515A6A"/>
</g>
</svg>
