<svg width="20" height="14" viewBox="0 0 20 14" fill="none" xmlns="http://www.w3.org/2000/svg">
<path fill-rule="evenodd" clip-rule="evenodd" d="M13 8C12.448 8 12 7.552 12 7C12 6.448 12.448 6 13 6C13.552 6 14 6.448 14 7C14 7.552 13.552 8 13 8ZM13 4C11.346 4 10 5.346 10 7C10 8.654 11.346 10 13 10C14.654 10 16 8.654 16 7C16 5.346 14.654 4 13 4ZM13 12H7C4.243 12 2 9.757 2 7C2 4.243 4.243 2 7 2H13C15.757 2 18 4.243 18 7C18 9.757 15.757 12 13 12ZM13 0H7C3.141 0 0 3.141 0 7C0 10.859 3.141 14 7 14H13C16.859 14 20 10.859 20 7C20 3.141 16.859 0 13 0Z" fill="#515A6A"/>
</svg>
