<svg width="518" height="137" viewBox="0 0 518 137" fill="none" xmlns="http://www.w3.org/2000/svg">
<rect width="518" height="137" fill="#CAC5CD"/>
<rect x="13" y="14" width="492" height="109" fill="#E6E0E9"/>
<rect x="26" y="24" width="466" height="89" fill="#F5F5F9"/>
<rect x="39" y="33" width="440" height="71" fill="#FAFAFC"/>
<rect x="54" y="43" width="410" height="51" fill="white"/>
<path d="M162.505 54.0493L150.71 90H141.208L157.322 46.6328H163.369L162.505 54.0493ZM172.304 90L160.479 54.0493L159.526 46.6328H165.632L181.835 90H172.304ZM171.768 73.8564V80.856H148.863V73.8564H171.768ZM185.32 44.25H193.898V82.6133L193.035 90H185.32V44.25ZM214.301 73.5586V74.1841C214.301 76.5868 214.043 78.7909 213.527 80.7964C213.03 82.8019 212.256 84.5394 211.204 86.0088C210.151 87.4583 208.841 88.5902 207.272 89.4043C205.723 90.1986 203.896 90.5957 201.792 90.5957C199.826 90.5957 198.118 90.1986 196.668 89.4043C195.239 88.61 194.037 87.4881 193.064 86.0386C192.091 84.589 191.307 82.8913 190.711 80.9453C190.116 78.9993 189.669 76.8747 189.371 74.5713V73.2012C189.669 70.8978 190.116 68.7731 190.711 66.8271C191.307 64.8812 192.091 63.1834 193.064 61.7339C194.037 60.2843 195.239 59.1624 196.668 58.3682C198.098 57.5739 199.786 57.1768 201.732 57.1768C203.857 57.1768 205.703 57.5838 207.272 58.3979C208.861 59.1922 210.171 60.3241 211.204 61.7935C212.256 63.243 213.03 64.9705 213.527 66.9761C214.043 68.9618 214.301 71.1559 214.301 73.5586ZM205.723 74.1841V73.5586C205.723 72.248 205.624 71.0169 205.425 69.8652C205.247 68.6937 204.929 67.6711 204.472 66.7974C204.015 65.9038 203.39 65.1989 202.596 64.6826C201.821 64.1663 200.819 63.9082 199.587 63.9082C198.416 63.9082 197.423 64.1068 196.609 64.5039C195.795 64.901 195.12 65.457 194.583 66.1719C194.067 66.8867 193.68 67.7406 193.422 68.7334C193.164 69.7064 193.005 70.7786 192.945 71.9502V75.8521C193.005 77.4207 193.263 78.8107 193.72 80.022C194.196 81.2134 194.911 82.1566 195.864 82.8516C196.837 83.5267 198.098 83.8643 199.647 83.8643C200.858 83.8643 201.861 83.626 202.655 83.1494C203.45 82.6729 204.065 81.9977 204.502 81.124C204.959 80.2503 205.276 79.2277 205.455 78.0562C205.634 76.8647 205.723 75.5741 205.723 74.1841ZM218.263 74.2139V73.5884C218.263 71.2254 218.6 69.0511 219.275 67.0654C219.951 65.0599 220.933 63.3224 222.224 61.853C223.515 60.3836 225.103 59.2419 226.99 58.4277C228.876 57.5938 231.041 57.1768 233.483 57.1768C235.925 57.1768 238.1 57.5938 240.006 58.4277C241.912 59.2419 243.511 60.3836 244.801 61.853C246.112 63.3224 247.105 65.0599 247.78 67.0654C248.455 69.0511 248.792 71.2254 248.792 73.5884V74.2139C248.792 76.557 248.455 78.7313 247.78 80.7368C247.105 82.7225 246.112 84.46 244.801 85.9492C243.511 87.4186 241.922 88.5604 240.036 89.3745C238.149 90.1886 235.985 90.5957 233.542 90.5957C231.1 90.5957 228.926 90.1886 227.02 89.3745C225.133 88.5604 223.535 87.4186 222.224 85.9492C220.933 84.46 219.951 82.7225 219.275 80.7368C218.6 78.7313 218.263 76.557 218.263 74.2139ZM226.841 73.5884V74.2139C226.841 75.5641 226.96 76.825 227.198 77.9966C227.437 79.1681 227.814 80.2007 228.33 81.0942C228.866 81.9679 229.561 82.653 230.415 83.1494C231.269 83.6458 232.311 83.894 233.542 83.894C234.734 83.894 235.757 83.6458 236.61 83.1494C237.464 82.653 238.149 81.9679 238.666 81.0942C239.182 80.2007 239.559 79.1681 239.797 77.9966C240.056 76.825 240.185 75.5641 240.185 74.2139V73.5884C240.185 72.2778 240.056 71.0467 239.797 69.895C239.559 68.7235 239.172 67.6909 238.636 66.7974C238.119 65.884 237.434 65.1691 236.581 64.6528C235.727 64.1366 234.694 63.8784 233.483 63.8784C232.272 63.8784 231.239 64.1366 230.385 64.6528C229.551 65.1691 228.866 65.884 228.33 66.7974C227.814 67.6909 227.437 68.7235 227.198 69.895C226.96 71.0467 226.841 72.2778 226.841 73.5884ZM273.127 82.2856V57.7725H281.705V90H273.633L273.127 82.2856ZM274.08 75.6733L276.612 75.6138C276.612 77.7583 276.364 79.7539 275.867 81.6006C275.371 83.4274 274.626 85.016 273.633 86.3662C272.64 87.6966 271.389 88.7391 269.88 89.4937C268.371 90.2284 266.594 90.5957 264.549 90.5957C262.98 90.5957 261.531 90.3773 260.2 89.9404C258.89 89.4837 257.758 88.7788 256.805 87.8257C255.871 86.8527 255.137 85.6117 254.601 84.1025C254.084 82.5736 253.826 80.7368 253.826 78.5923V57.7725H262.404V78.6519C262.404 79.605 262.514 80.4092 262.732 81.0645C262.97 81.7197 263.298 82.2559 263.715 82.6729C264.132 83.0898 264.618 83.3877 265.174 83.5664C265.75 83.7451 266.386 83.8345 267.081 83.8345C268.848 83.8345 270.238 83.4771 271.25 82.7622C272.283 82.0474 273.008 81.0744 273.425 79.8433C273.862 78.5923 274.08 77.2023 274.08 75.6733ZM304.044 57.7725V63.8486H285.279V57.7725H304.044ZM289.926 49.8198H298.504V80.29C298.504 81.2233 298.623 81.9382 298.861 82.4346C299.119 82.931 299.497 83.2785 299.993 83.4771C300.49 83.6558 301.115 83.7451 301.87 83.7451C302.406 83.7451 302.882 83.7253 303.299 83.6855C303.736 83.626 304.104 83.5664 304.401 83.5068L304.431 89.8213C303.696 90.0596 302.902 90.2482 302.048 90.3872C301.194 90.5262 300.251 90.5957 299.219 90.5957C297.332 90.5957 295.684 90.2879 294.274 89.6724C292.884 89.0369 291.812 88.0243 291.058 86.6343C290.303 85.2443 289.926 83.4175 289.926 81.1538V49.8198ZM348.603 46.6328H357.508V75.2861C357.508 78.6221 356.793 81.4318 355.364 83.7153C353.954 85.9989 351.998 87.7165 349.496 88.8682C347.014 90.0199 344.155 90.5957 340.918 90.5957C337.681 90.5957 334.802 90.0199 332.28 88.8682C329.778 87.7165 327.812 85.9989 326.383 83.7153C324.973 81.4318 324.268 78.6221 324.268 75.2861V46.6328H333.204V75.2861C333.204 77.2321 333.511 78.8206 334.127 80.0518C334.743 81.2829 335.626 82.1864 336.778 82.7622C337.949 83.3381 339.329 83.626 340.918 83.626C342.546 83.626 343.926 83.3381 345.058 82.7622C346.21 82.1864 347.083 81.2829 347.679 80.0518C348.295 78.8206 348.603 77.2321 348.603 75.2861V46.6328ZM381.753 81.0942C381.753 80.4787 381.575 79.9227 381.217 79.4263C380.86 78.9299 380.195 78.4731 379.222 78.0562C378.269 77.6193 376.889 77.2222 375.082 76.8647C373.453 76.5073 371.934 76.0605 370.524 75.5244C369.134 74.9684 367.923 74.3032 366.891 73.5288C365.878 72.7544 365.084 71.841 364.508 70.7886C363.932 69.7163 363.644 68.4951 363.644 67.125C363.644 65.7747 363.932 64.5039 364.508 63.3125C365.104 62.1211 365.947 61.0687 367.04 60.1553C368.152 59.222 369.502 58.4972 371.09 57.981C372.699 57.4448 374.506 57.1768 376.511 57.1768C379.311 57.1768 381.714 57.6235 383.719 58.5171C385.745 59.4106 387.293 60.6418 388.366 62.2104C389.458 63.7593 390.004 65.5265 390.004 67.5122H381.426C381.426 66.6782 381.247 65.9336 380.89 65.2783C380.552 64.6032 380.016 64.077 379.281 63.6997C378.566 63.3026 377.633 63.104 376.481 63.104C375.528 63.104 374.704 63.2728 374.009 63.6104C373.314 63.9281 372.778 64.3649 372.401 64.9209C372.043 65.457 371.865 66.0527 371.865 66.708C371.865 67.2044 371.964 67.6512 372.163 68.0483C372.381 68.4256 372.729 68.7731 373.205 69.0908C373.682 69.4085 374.297 69.7064 375.052 69.9844C375.826 70.2425 376.779 70.4808 377.911 70.6992C380.234 71.1758 382.309 71.8013 384.136 72.5757C385.963 73.3302 387.413 74.3628 388.485 75.6733C389.557 76.964 390.093 78.6618 390.093 80.7666C390.093 82.1963 389.776 83.5068 389.14 84.6982C388.505 85.8896 387.591 86.9321 386.4 87.8257C385.208 88.6994 383.779 89.3844 382.111 89.8809C380.463 90.3574 378.606 90.5957 376.541 90.5957C373.543 90.5957 371.001 90.0596 368.916 88.9873C366.851 87.915 365.282 86.5549 364.21 84.9067C363.158 83.2388 362.631 81.5311 362.631 79.7837H370.763C370.802 80.9552 371.1 81.8984 371.656 82.6133C372.232 83.3281 372.957 83.8444 373.831 84.1621C374.724 84.4798 375.687 84.6387 376.72 84.6387C377.832 84.6387 378.755 84.4897 379.49 84.1919C380.224 83.8742 380.78 83.4572 381.158 82.9409C381.555 82.4048 381.753 81.7892 381.753 81.0942Z" fill="#0F1111"/>
</svg>
