<svg xmlns="http://www.w3.org/2000/svg" width="64" height="64" viewBox="0 0 64 64" fill="none">
  <g opacity="0.64">
    <path fill-rule="evenodd" clip-rule="evenodd" d="M32.0002 58.6666C46.7278 58.6666 58.6668 46.7276 58.6668 32C58.6668 17.2724 46.7278 5.33331 32.0002 5.33331C17.2726 5.33331 5.3335 17.2724 5.3335 32C5.3335 46.7276 17.2726 58.6666 32.0002 58.6666ZM32 29.3333C36.4183 29.3333 40 25.7516 40 21.3333C40 16.9151 36.4183 13.3333 32 13.3333C27.5817 13.3333 24 16.9151 24 21.3333C24 25.7516 27.5817 29.3333 32 29.3333ZM16 42.6667C18 36.6667 28 34.6667 32 34.6667C36 34.6667 46 36.6667 48 42.6667C46 48.6667 38 50.6667 32 50.6667C26 50.6667 18 48.6667 16 42.6667Z" fill="#515A6A"/>
  </g>
</svg>