<svg xmlns="http://www.w3.org/2000/svg" width="24" height="24" viewBox="0 0 24 24" fill="none">
  <path d="M1.6665 5.66675H22.3332V18.3334H1.6665V5.66675Z" fill="#605D64"/>
  <path d="M1.6665 5.66675H22.3332V7.33341H1.6665V5.66675ZM1.6665 8.66675H22.3332V10.0001H1.6665V8.66675ZM1.6665 11.3334H22.3332V12.6667H1.6665V11.3334Z" fill="#D22F27"/>
  <path d="M1.6665 5.66675H12.3332V12.6667H1.6665V5.66675Z" fill="#1E50A0"/>
  <path d="M1.6665 14H22.3332V15.3333H1.6665V14Z" fill="#D22F27"/>
  <path d="M3.16683 7.91667C3.489 7.91667 3.75016 7.6555 3.75016 7.33333C3.75016 7.01117 3.489 6.75 3.16683 6.75C2.84466 6.75 2.5835 7.01117 2.5835 7.33333C2.5835 7.6555 2.84466 7.91667 3.16683 7.91667Z" fill="#605D64"/>
  <path d="M5.83333 7.91667C6.1555 7.91667 6.41667 7.6555 6.41667 7.33333C6.41667 7.01117 6.1555 6.75 5.83333 6.75C5.51117 6.75 5.25 7.01117 5.25 7.33333C5.25 7.6555 5.51117 7.91667 5.83333 7.91667Z" fill="#605D64"/>
  <path d="M8.49984 7.91667C8.822 7.91667 9.08317 7.6555 9.08317 7.33333C9.08317 7.01117 8.822 6.75 8.49984 6.75C8.17767 6.75 7.9165 7.01117 7.9165 7.33333C7.9165 7.6555 8.17767 7.91667 8.49984 7.91667Z" fill="#605D64"/>
  <path d="M11.1668 7.91667C11.489 7.91667 11.7502 7.6555 11.7502 7.33333C11.7502 7.01117 11.489 6.75 11.1668 6.75C10.8447 6.75 10.5835 7.01117 10.5835 7.33333C10.5835 7.6555 10.8447 7.91667 11.1668 7.91667Z" fill="#605D64"/>
  <path d="M9.83333 9.24992C10.1555 9.24992 10.4167 8.98875 10.4167 8.66659C10.4167 8.34442 10.1555 8.08325 9.83333 8.08325C9.51117 8.08325 9.25 8.34442 9.25 8.66659C9.25 8.98875 9.51117 9.24992 9.83333 9.24992Z" fill="#605D64"/>
  <path d="M7.16683 9.24992C7.489 9.24992 7.75016 8.98875 7.75016 8.66659C7.75016 8.34442 7.489 8.08325 7.16683 8.08325C6.84466 8.08325 6.5835 8.34442 6.5835 8.66659C6.5835 8.98875 6.84466 9.24992 7.16683 9.24992Z" fill="#605D64"/>
  <path d="M4.49984 9.24992C4.822 9.24992 5.08317 8.98875 5.08317 8.66659C5.08317 8.34442 4.822 8.08325 4.49984 8.08325C4.17767 8.08325 3.9165 8.34442 3.9165 8.66659C3.9165 8.98875 4.17767 9.24992 4.49984 9.24992Z" fill="#605D64"/>
  <path d="M3.16683 10.5834C3.489 10.5834 3.75016 10.3222 3.75016 10.0001C3.75016 9.67792 3.489 9.41675 3.16683 9.41675C2.84466 9.41675 2.5835 9.67792 2.5835 10.0001C2.5835 10.3222 2.84466 10.5834 3.16683 10.5834Z" fill="#605D64"/>
  <path d="M5.83333 10.5834C6.1555 10.5834 6.41667 10.3222 6.41667 10.0001C6.41667 9.67792 6.1555 9.41675 5.83333 9.41675C5.51117 9.41675 5.25 9.67792 5.25 10.0001C5.25 10.3222 5.51117 10.5834 5.83333 10.5834Z" fill="#605D64"/>
  <path d="M8.49984 10.5834C8.822 10.5834 9.08317 10.3222 9.08317 10.0001C9.08317 9.67792 8.822 9.41675 8.49984 9.41675C8.17767 9.41675 7.9165 9.67792 7.9165 10.0001C7.9165 10.3222 8.17767 10.5834 8.49984 10.5834Z" fill="#605D64"/>
  <path d="M11.1668 10.5834C11.489 10.5834 11.7502 10.3222 11.7502 10.0001C11.7502 9.67792 11.489 9.41675 11.1668 9.41675C10.8447 9.41675 10.5835 9.67792 10.5835 10.0001C10.5835 10.3222 10.8447 10.5834 11.1668 10.5834Z" fill="#605D64"/>
  <path d="M9.83333 11.9167C10.1555 11.9167 10.4167 11.6555 10.4167 11.3333C10.4167 11.0112 10.1555 10.75 9.83333 10.75C9.51117 10.75 9.25 11.0112 9.25 11.3333C9.25 11.6555 9.51117 11.9167 9.83333 11.9167Z" fill="#605D64"/>
  <path d="M7.16683 11.9167C7.489 11.9167 7.75016 11.6555 7.75016 11.3333C7.75016 11.0112 7.489 10.75 7.16683 10.75C6.84466 10.75 6.5835 11.0112 6.5835 11.3333C6.5835 11.6555 6.84466 11.9167 7.16683 11.9167Z" fill="#605D64"/>
  <path d="M4.49984 11.9167C4.822 11.9167 5.08317 11.6555 5.08317 11.3333C5.08317 11.0112 4.822 10.75 4.49984 10.75C4.17767 10.75 3.9165 11.0112 3.9165 11.3333C3.9165 11.6555 4.17767 11.9167 4.49984 11.9167Z" fill="#605D64"/>
  <path d="M1.6665 16.6667H22.3332V18.3334H1.6665V16.6667Z" fill="#D22F27"/>
  <path d="M1.6665 5.66675H22.3332V18.3334H1.6665V5.66675Z" stroke="black" stroke-width="2" stroke-linecap="round" stroke-linejoin="round"/>
</svg>