<svg xmlns="http://www.w3.org/2000/svg" width="18" height="18" viewBox="0 0 18 18" fill="none">
  <path fill-rule="evenodd" clip-rule="evenodd" d="M11.1807 15.2934C12.0548 14.0451 12.964 12.2092 13.1457 9.83341H15.6082C15.289 12.3767 13.534 14.4751 11.1807 15.2934ZM2.39067 9.83341H4.884C5.05567 12.2184 5.95317 14.0467 6.839 15.3009C4.47484 14.4867 2.7115 12.3842 2.39067 9.83341ZM6.86484 2.69091C5.98817 3.93925 5.07067 5.78092 4.88734 8.16675H2.39067C2.71234 5.60675 4.48817 3.49758 6.86484 2.69091ZM6.56567 8.16675C6.82067 5.44008 8.21567 3.54175 9.0215 2.66425C9.85484 3.55675 11.2282 5.43758 11.4657 8.16675H6.56567ZM6.5665 9.83341H11.4682C11.2132 12.5642 9.81484 14.4626 9.00984 15.3401C8.13734 14.4151 6.799 12.5601 6.5665 9.83341ZM15.6082 8.16675H13.1482C12.9773 5.79258 12.0898 3.97008 11.2082 2.71758C13.5482 3.54258 15.2907 5.63342 15.6082 8.16675ZM17.3332 9.00008C17.3332 4.41341 13.6073 0.681748 9.02317 0.668415C9.01984 0.668415 9.0165 0.667581 9.01234 0.667581C9.009 0.667581 9.004 0.666748 8.99984 0.666748C4.40484 0.666748 0.666504 4.40591 0.666504 9.00008C0.666504 13.5951 4.40484 17.3334 8.99984 17.3334C9.00484 17.3334 9.009 17.3326 9.01234 17.3326C9.014 17.3326 9.01484 17.3334 9.0165 17.3334C9.019 17.3334 9.0215 17.3317 9.02317 17.3317C13.6073 17.3192 17.3332 13.5867 17.3332 9.00008Z" fill="#605D64"/>
</svg>